<?xml version="1.0" encoding="UTF-8"?>
<svg width="38px" height="27px" viewBox="0 0 38 27" version="1.1" xmlns="http://www.w3.org/2000/svg" xmlns:xlink="http://www.w3.org/1999/xlink">
    <!-- Generator: Sketch 46.2 (44496) - http://www.bohemiancoding.com/sketch -->
    <title>Shape</title>
    <desc>Created with Sketch.</desc>
    <defs></defs>
    <g id="Page-1" stroke="none" stroke-width="1" fill="none" fill-rule="evenodd">
        <g id="V1---Desktop" transform="translate(-428.000000, -1239.000000)" fill-rule="nonzero" fill="#009BAC">
            <g id="Section:-Intro" transform="translate(117.000000, 839.000000)">
                <g id="Benefit-Columns" transform="translate(1.000000, 394.000000)">
                    <g id="Group-28" transform="translate(309.000000, 6.000000)">
                        <path d="M34.509476,0 C32.0947603,0 30.1460424,1.94871795 30.1460424,4.36343367 C30.1460424,5.88851728 30.9509476,7.24414716 32.1794872,8.0490524 L27.3500557,14.2341137 C26.9264214,14.1070234 26.4604236,14.0222965 25.9944259,14.0222965 C25.4013378,14.0222965 24.8082497,14.1493868 24.2998885,14.361204 L18.2419175,10.4214047 C18.7502787,9.70122631 19.0891862,8.8115942 19.0891862,7.87959866 C19.0891862,5.46488294 17.1404682,3.51616499 14.7257525,3.51616499 C12.3110368,3.51616499 10.3623188,5.46488294 10.3623188,7.87959866 C10.3623188,9.27759197 11.0401338,10.548495 12.0992196,11.3534002 L7.26978818,17.9620959 C6.67670011,17.6655518 6.04124861,17.4960981 5.32107023,17.4960981 C2.94871795,17.4960981 1,19.4448161 1,21.8595318 C1,24.2742475 2.94871795,26.2229654 5.36343367,26.2229654 C7.77814939,26.2229654 9.72686734,24.2742475 9.72686734,21.8595318 C9.72686734,20.7580825 9.303233,19.7837235 8.66778149,19.0211817 L13.6666667,12.0735786 C14.0055741,12.1583055 14.3444816,12.2006689 14.7257525,12.2006689 C15.5306577,12.2006689 16.2931996,11.9888517 16.9286511,11.6075808 L22.8171683,15.4202899 C22.09699,16.1828317 21.6733556,17.2419175 21.6733556,18.3857302 C21.6733556,20.8004459 23.6220736,22.7491639 26.0367893,22.7491639 C28.451505,22.7491639 30.400223,20.8004459 30.400223,18.3857302 C30.400223,17.0724638 29.8071349,15.8862876 28.9175028,15.1237458 L33.9587514,8.6845039 C34.1705686,8.72686734 34.3823857,8.72686734 34.6365663,8.72686734 C37.0512821,8.72686734 39,6.77814939 39,4.36343367 C39,1.94871795 36.9241918,0 34.509476,0 Z M5.36343367,24.4860647 C3.88071349,24.4860647 2.69453735,23.2998885 2.69453735,21.8171683 C2.69453735,20.3344482 3.88071349,19.148272 5.36343367,19.148272 C5.91415831,19.148272 6.42251951,19.3177258 6.80379041,19.5719064 C6.84615385,19.6566332 6.93088071,19.6989967 6.97324415,19.7413601 C7.01560758,19.7837235 7.05797101,19.7837235 7.10033445,19.826087 C7.65105909,20.2920847 7.94760312,21.0122631 7.94760312,21.7748049 C7.98996656,23.2998885 6.80379041,24.4860647 5.36343367,24.4860647 Z M12.0144928,7.83723523 C12.0144928,6.35451505 13.2006689,5.16833891 14.6833891,5.16833891 C16.1661093,5.16833891 17.3522854,6.35451505 17.3522854,7.83723523 C17.3522854,9.31995541 16.1661093,10.5061315 14.6833891,10.5061315 C13.2006689,10.5061315 12.0144928,9.31995541 12.0144928,7.83723523 Z M25.9520624,21.0122631 C24.4693423,21.0122631 23.2831661,19.826087 23.2831661,18.3433668 C23.2831661,16.8606466 24.4693423,15.6744705 25.9520624,15.6744705 C27.4347826,15.6744705 28.6209588,16.8606466 28.6209588,18.3433668 C28.6209588,19.826087 27.4347826,21.0122631 25.9520624,21.0122631 Z M34.509476,6.98996656 C33.0267559,6.98996656 31.8405797,5.80379041 31.8405797,4.32107023 C31.8405797,2.83835006 33.0267559,1.65217391 34.509476,1.65217391 C35.9921962,1.65217391 37.1783724,2.83835006 37.1783724,4.32107023 C37.1783724,5.80379041 35.9921962,6.98996656 34.509476,6.98996656 Z" id="Shape"></path>
                    </g>
                </g>
            </g>
        </g>
    </g>
</svg>