<svg xmlns="http://www.w3.org/2000/svg" width="155" height="42" viewBox="0 0 155 42">
    <defs>
        <linearGradient id="a" x1="37.599%" x2="66.456%" y1="82.43%" y2="24.041%">
            <stop offset="0%" stop-color="#00B5E9"/>
            <stop offset="100%" stop-color="#37EECB"/>
        </linearGradient>
    </defs>
    <g fill="none" fill-rule="evenodd">
        <path fill="#FFF" d="M31 24.64c0-.432.22-.798.66-1.098.236-.15.481-.224.735-.224.355 0 .693.158 1.014.474.507.515 1.035.898 1.585 1.147.55.25 1.213.374 1.99.374 1.319-.05 1.978-.54 1.978-1.471 0-.483-.224-.848-.672-1.098-.448-.25-1.145-.499-2.092-.748-.98-.266-1.78-.532-2.396-.798a4.232 4.232 0 0 1-1.598-1.21c-.448-.54-.672-1.268-.672-2.182 0-.799.233-1.493.698-2.083.465-.59 1.073-1.048 1.825-1.372a5.989 5.989 0 0 1 2.397-.486c.862 0 1.724.158 2.586.473.862.316 1.538.782 2.029 1.397.22.266.33.566.33.898 0 .383-.161.699-.483.948a1.291 1.291 0 0 1-.811.274c-.372 0-.676-.116-.913-.349a3.216 3.216 0 0 0-1.179-.873c-.482-.216-1.027-.324-1.635-.324-1.285 0-1.927.457-1.927 1.372 0 .366.118.66.354.885.237.225.537.4.9.524.364.125.875.279 1.535.462.913.249 1.673.507 2.282.773a3.906 3.906 0 0 1 1.547 1.222c.422.549.634 1.272.634 2.17 0 .815-.246 1.526-.736 2.133a4.65 4.65 0 0 1-1.889 1.384c-.77.316-1.56.474-2.37.474a8.714 8.714 0 0 1-3.12-.549 5.174 5.174 0 0 1-2.358-1.77c-.152-.2-.228-.45-.228-.75zm20.373.28c.197.225.296.519.296.884 0 .448-.253.825-.758 1.132a3.227 3.227 0 0 1-1.71.46c-1.062 0-1.957-.219-2.685-.659-.728-.44-1.092-1.373-1.092-2.8V17.07H44.24c-.41 0-.754-.133-1.028-.398a1.329 1.329 0 0 1-.411-.996c0-.382.137-.7.411-.958.274-.257.617-.386 1.028-.386h1.183v-1.593c0-.431.15-.792.45-1.082.3-.29.672-.436 1.117-.436.429 0 .788.145 1.08.436.29.29.437.651.437 1.082v1.593h1.824c.412 0 .754.133 1.028.398.275.266.412.598.412.996 0 .381-.137.7-.412.958-.274.257-.616.386-1.028.386h-1.824v6.744c0 .348.094.602.282.76.189.157.446.236.771.236.137 0 .326-.034.566-.1.205-.083.402-.124.59-.124.24 0 .46.112.656.336zm15.08-10.631c.284.282.425.648.425 1.097v10.55c0 .433-.141.795-.424 1.086-.283.29-.641.436-1.074.436-.433 0-.787-.14-1.062-.424-.274-.282-.42-.64-.437-1.072-.416.482-.978.894-1.685 1.235a5.086 5.086 0 0 1-2.235.51c-1.15 0-2.19-.294-3.122-.885-.932-.59-1.669-1.409-2.21-2.456-.541-1.048-.812-2.237-.812-3.567s.267-2.524.8-3.58c.532-1.056 1.26-1.879 2.185-2.469a5.567 5.567 0 0 1 3.059-.885c.799 0 1.548.145 2.247.436.7.291 1.29.661 1.773 1.11v-.025c0-.432.142-.794.425-1.085.283-.29.64-.436 1.074-.436.433 0 .79.14 1.074.424zm-3.42 9.428c.675-.794 1.013-1.793 1.013-2.996 0-1.204-.338-2.206-1.013-3.009-.675-.802-1.548-1.203-2.619-1.203-1.054 0-1.919.4-2.594 1.203-.675.803-1.013 1.805-1.013 3.009 0 1.203.334 2.202 1 2.996.668.794 1.536 1.191 2.607 1.191 1.07 0 1.944-.397 2.619-1.19zm14.62 1.204c.196.224.295.518.295.883 0 .448-.253.825-.758 1.132a3.227 3.227 0 0 1-1.71.46c-1.062 0-1.957-.219-2.685-.659-.728-.44-1.092-1.373-1.092-2.8V17.07H70.52c-.41 0-.753-.133-1.028-.398a1.329 1.329 0 0 1-.41-.996c0-.382.136-.7.41-.958.275-.257.617-.386 1.028-.386h1.183v-1.593c0-.431.15-.792.45-1.082.3-.29.672-.436 1.117-.436.429 0 .789.145 1.08.436.291.29.437.651.437 1.082v1.593h1.825c.41 0 .753.133 1.028.398.274.266.41.598.41.996 0 .381-.136.7-.41.958-.275.257-.617.386-1.028.386h-1.825v6.744c0 .348.094.602.282.76.189.157.446.236.772.236.137 0 .325-.034.565-.1.206-.083.403-.124.591-.124.24 0 .458.112.655.336zm13.677-.467a.445.445 0 0 1 .127.311.457.457 0 0 1-.102.299 6.731 6.731 0 0 1-2.084 1.792c-.83.464-1.72.696-2.668.696-1.271 0-2.398-.265-3.38-.796a5.697 5.697 0 0 1-2.3-2.265c-.551-.979-.827-2.115-.827-3.41 0-1.327.267-2.492.801-3.496s1.241-1.771 2.122-2.302a5.374 5.374 0 0 1 2.821-.796c1 0 1.927.211 2.783.634.856.423 1.554 1.058 2.097 1.904.542.846.83 1.892.864 3.136 0 .133-.051.253-.153.36a.475.475 0 0 1-.356.163h-9.987v.323c0 1.029.211 1.97.635 2.825a4.818 4.818 0 0 0 1.88 2.028c.83.498 1.83.747 3 .747.813 0 1.58-.195 2.3-.585.72-.39 1.283-.884 1.69-1.481a.535.535 0 0 1 .432-.224c.118 0 .22.046.305.137zm-7.263-8.555c-.647.32-1.219.794-1.715 1.424-.496.63-.828 1.396-.997 2.297h9.285v-.221c-.085-.835-.358-1.552-.82-2.15a4.509 4.509 0 0 0-1.716-1.362 5.075 5.075 0 0 0-2.132-.467c-.622 0-1.257.16-1.905.479zm19.916-.112c.756.867 1.134 1.994 1.134 3.38v7.579c0 .132-.05.248-.151.347-.101.099-.219.148-.353.148a.492.492 0 0 1-.504-.495v-7.48c0-1.122-.298-2.043-.894-2.76-.597-.72-1.5-1.078-2.709-1.078a4.94 4.94 0 0 0-2.179.52 4.8 4.8 0 0 0-1.75 1.412c-.454.594-.68 1.23-.68 1.907v7.479c0 .132-.051.248-.152.347-.1.099-.218.148-.353.148a.492.492 0 0 1-.504-.495V15.378c0-.132.05-.247.151-.346.101-.1.219-.149.353-.149a.492.492 0 0 1 .504.495v1.66c.487-.743 1.172-1.354 2.053-1.833.882-.479 1.768-.718 2.658-.718 1.495 0 2.62.433 3.376 1.3zm16.73-.75c.093.1.14.217.14.35v10.758c0 1.267-.262 2.368-.786 3.302a5.422 5.422 0 0 1-2.207 2.164c-.946.509-2.028.763-3.246.763a8.363 8.363 0 0 1-2.054-.263c-.693-.175-1.264-.4-1.712-.675-.448-.275-.672-.555-.672-.838 0-.133.038-.242.114-.325a.407.407 0 0 1 .317-.125c.102 0 .254.083.457.25.237.233.499.408.786.525.829.334 1.767.5 2.815.5 1.59 0 2.849-.483 3.779-1.45.93-.968 1.394-2.244 1.394-3.828v-1.726c-.456 1.067-1.162 1.868-2.117 2.401-.955.534-1.957.8-3.005.8-1.15 0-2.194-.287-3.132-.862a6.05 6.05 0 0 1-2.206-2.364c-.533-1.001-.8-2.119-.8-3.353s.267-2.351.8-3.352a5.96 5.96 0 0 1 2.206-2.352c.938-.567 1.982-.85 3.132-.85 1.132 0 2.168.296 3.106.888.939.592 1.61 1.305 2.016 2.139v-2.127a.498.498 0 0 1 .508-.5c.152 0 .274.05.367.15zm-3.456 10.871c.777-.474 1.387-1.135 1.83-1.983.443-.848.664-1.82.664-2.918 0-1.097-.221-2.07-.664-2.918-.443-.848-1.053-1.505-1.83-1.97-.777-.466-1.65-.699-2.62-.699-.97 0-1.843.241-2.62.723a5.042 5.042 0 0 0-1.83 1.996c-.443.848-.664 1.804-.664 2.868 0 1.064.221 2.02.664 2.868a5.134 5.134 0 0 0 1.83 2.008c.777.49 1.65.736 2.62.736.97 0 1.843-.237 2.62-.71zm8.332 1.185a.443.443 0 0 1-.33.148.432.432 0 0 1-.342-.148.51.51 0 0 1-.13-.347V14.982c0-.132.047-.248.141-.347a.443.443 0 0 1 .33-.148c.143 0 .257.05.343.148.087.1.13.215.13.347v11.764a.487.487 0 0 1-.142.347zm-.857-14.395a.765.765 0 0 1-.26-.596v-.208c0-.242.091-.44.274-.596.182-.155.42-.233.711-.233.256 0 .47.078.643.233.174.156.26.354.26.596v.208c0 .242-.086.44-.26.596-.173.156-.396.233-.67.233-.292 0-.525-.077-.698-.233zm14.5 3.089c.756.867 1.133 1.994 1.133 3.38v7.579c0 .132-.05.248-.15.347-.101.099-.219.148-.353.148a.492.492 0 0 1-.504-.495v-7.48c0-1.122-.298-2.043-.895-2.76-.596-.72-1.499-1.078-2.708-1.078a4.94 4.94 0 0 0-2.18.52 4.8 4.8 0 0 0-1.75 1.412c-.453.594-.68 1.23-.68 1.907v7.479c0 .132-.05.248-.151.347-.101.099-.219.148-.353.148a.492.492 0 0 1-.504-.495V15.378c0-.132.05-.247.151-.346.101-.1.219-.149.353-.149a.492.492 0 0 1 .504.495v1.66c.487-.743 1.171-1.354 2.053-1.833.882-.479 1.768-.718 2.658-.718 1.495 0 2.62.433 3.376 1.3zm15.514 8.667a.445.445 0 0 1 .127.311.457.457 0 0 1-.102.299 6.731 6.731 0 0 1-2.084 1.792c-.83.464-1.72.696-2.668.696-1.27 0-2.398-.265-3.38-.796a5.697 5.697 0 0 1-2.3-2.265c-.551-.979-.826-2.115-.826-3.41 0-1.327.267-2.492.8-3.496.534-1.004 1.241-1.771 2.122-2.302a5.374 5.374 0 0 1 2.821-.796c1 0 1.928.211 2.783.634.856.423 1.555 1.058 2.097 1.904.542.846.83 1.892.864 3.136 0 .133-.05.253-.152.36a.475.475 0 0 1-.356.163h-9.988v.323c0 1.029.212 1.97.635 2.825a4.818 4.818 0 0 0 1.88 2.028c.831.498 1.83.747 3 .747.813 0 1.58-.195 2.3-.585.72-.39 1.283-.884 1.69-1.481a.535.535 0 0 1 .432-.224c.118 0 .22.046.305.137zm-7.262-8.555c-.648.32-1.22.794-1.716 1.424-.496.63-.828 1.396-.996 2.297h9.284v-.221c-.084-.835-.358-1.552-.82-2.15a4.509 4.509 0 0 0-1.716-1.362 5.075 5.075 0 0 0-2.132-.467c-.622 0-1.257.16-1.904.479z"/>
        <g fill="url(#a)" transform="rotate(-7 20.675 36.85)">
            <path d="M2.296 31.875l-1.13.883a4.363 4.363 0 0 0-1.08 2.386c-.29 2.367 1.352 4.516 3.668 4.8a4.135 4.135 0 0 0 2.028-.257l6.775-5.294c.045-.015.09-.03.134-.047l3.21-2.508.889-.695 1.169-.914 2.368-1.85c.095-.112.184-.23.267-.353a4.573 4.573 0 0 0 1.158-3.045c0-.212-.024-.42-.072-.627v-.266c-.191-2.61-.974-4.585-1.644-6.034L2.806 31.516l-.186.164-.009-.012-.296.231-.02-.024zM24.66 8.953l1.131-.884a4.364 4.364 0 0 0 1.07-2.376c.29-2.369-1.355-4.52-3.675-4.805a4.146 4.146 0 0 0-2.05.265l-6.796 5.31a4.184 4.184 0 0 0-.141.05l-3.184 2.488-.891.697-1.172.915-2.363 1.846c-.099.117-.192.24-.278.367a4.57 4.57 0 0 0-1.156 3.041c0 .216.025.43.075.64v.26c.189 2.615.973 4.593 1.643 6.042L24.159 9.304l.178-.157.009.011.295-.23.02.025z"/>
        </g>
    </g>
</svg>
