<svg xmlns="http://www.w3.org/2000/svg" width="23" height="42" viewBox="0 0 23 42">
  <defs>
    <linearGradient id="branding-symbol-a" x1="37.599%" x2="66.456%" y1="65.268%" y2="37.779%">
      <stop offset="0%" stop-color="#00B5E9"/>
      <stop offset="100%" stop-color="#37EECB"/>
    </linearGradient>
  </defs>
  <path fill="url(#branding-symbol-a)" d="M2.296,31.875 L1.166,32.758 C0.570148512,33.423965 0.193158808,34.256833 0.086,35.144 C-0.204,37.511 1.438,39.66 3.754,39.944 C4.44085523,40.029414 5.13816326,39.9410471 5.782,39.687 L12.557,34.393 C12.602,34.378 12.647,34.363 12.691,34.346 L15.901,31.838 L16.79,31.143 L17.959,30.229 L20.327,28.379 C20.422,28.267 20.511,28.149 20.594,28.026 C21.3407084,27.1875677 21.7528839,26.1037383 21.752,24.981 C21.752,24.769 21.728,24.561 21.68,24.354 L21.68,24.088 C21.489,21.478 20.706,19.503 20.036,18.054 L2.806,31.516 L2.62,31.68 L2.611,31.668 L2.315,31.899 L2.295,31.875 L2.296,31.875 Z M24.66,8.953 L25.791,8.069 C26.3813195,7.40445322 26.7546328,6.57548828 26.861,5.693 C27.151,3.324 25.506,1.173 23.186,0.888 C22.4912527,0.801841127 21.786001,0.893007813 21.136,1.153 L14.34,6.463 C14.2927058,6.478825 14.2456983,6.49549433 14.199,6.513 L11.015,9.001 L10.124,9.698 L8.952,10.613 L6.589,12.459 C6.49,12.576 6.397,12.699 6.311,12.826 C5.56569061,13.6635498 5.15426671,14.7458509 5.155,15.867 C5.155,16.083 5.18,16.297 5.23,16.507 L5.23,16.767 C5.419,19.382 6.203,21.36 6.873,22.809 L24.159,9.304 L24.337,9.147 L24.346,9.158 L24.641,8.928 L24.661,8.953 L24.66,8.953 Z" transform="rotate(-7 20.675 36.85)"/>
</svg>
