<svg xmlns="http://www.w3.org/2000/svg" width="155" height="42" viewBox="0 0 155 42">
  <defs>
    <linearGradient id="branding-a" x1="37.599%" x2="66.456%" y1="82.43%" y2="24.041%">
      <stop offset="0%" stop-color="#00B5E9"/>
      <stop offset="100%" stop-color="#37EECB"/>
    </linearGradient>
  </defs>
  <g fill="none" fill-rule="evenodd" transform="translate(-5 -1)">
    <path fill="#384553" d="M36,25.6398971 C36,25.2075509 36.2197555,24.8417249 36.659273,24.5424082 C36.8959363,24.3927499 37.1410481,24.3179219 37.3946159,24.3179219 C37.7496108,24.3179219 38.0876962,24.4758922 38.408882,24.7918375 C38.9160176,25.3073273 39.444276,25.6897818 39.9936729,25.9392123 C40.5430698,26.1886428 41.2065622,26.3133562 41.9841701,26.3133562 C43.3027227,26.2634701 43.9619891,25.7729308 43.9619891,24.8417234 C43.9619891,24.359491 43.7380075,23.9936651 43.2900378,23.7442345 C42.842068,23.494804 42.144767,23.2453772 41.1981139,22.9959466 C40.2176517,22.7298874 39.4189251,22.4638321 38.8019102,22.1977729 C38.1848952,21.9317136 37.6524108,21.5284737 37.204441,20.9880408 C36.7564712,20.447608 36.5324897,19.7201131 36.5324897,18.8055345 C36.5324897,18.0073568 36.7649234,17.3131188 37.2297977,16.7227999 C37.694672,16.1324809 38.3032256,15.6751985 39.0554767,15.3509388 C39.8077278,15.0266791 40.6064544,14.8645517 41.4516804,14.8645517 C42.3138109,14.8645517 43.1759285,15.022522 44.038059,15.3384673 C44.9001896,15.6544127 45.5763602,16.1200094 46.0665913,16.7352714 C46.28635,17.0013306 46.3962278,17.3006428 46.3962278,17.6332168 C46.3962278,18.015677 46.2356372,18.3316176 45.9144514,18.5810481 C45.6777881,18.7639639 45.4073198,18.8554204 45.1030385,18.8554204 C44.731139,18.8554204 44.4268622,18.7390212 44.190199,18.5062193 C43.8859176,18.1403879 43.4928934,17.84939 43.0111146,17.6332168 C42.5293358,17.4170437 41.9841732,17.3089587 41.3756105,17.3089587 C40.0908669,17.3089587 39.4485048,17.7662412 39.4485048,18.6808199 C39.4485048,19.0466513 39.5668347,19.3418064 39.803498,19.5662938 C40.0401612,19.7907813 40.340212,19.9653801 40.7036592,20.0900954 C41.0671063,20.2148106 41.5784604,20.3686238 42.2377367,20.5515396 C43.1505807,20.8009701 43.9112727,21.0587111 44.5198354,21.3247704 C45.1283982,21.5908296 45.6439783,21.9982267 46.0665913,22.5469739 C46.4892043,23.0957211 46.7005076,23.8190588 46.7005076,24.7170088 C46.7005076,25.5318152 46.4553958,26.2426816 45.9651647,26.8496292 C45.4749336,27.4565769 44.8452497,27.9180164 44.076094,28.2339618 C43.3069384,28.5499071 42.5166639,28.7078775 41.705247,28.7078775 C40.5895486,28.7078775 39.5499363,28.5249645 38.5863786,28.159133 C37.622821,27.7933015 36.8367726,27.2029915 36.2282099,26.388185 C36.0760692,26.1886406 36,25.9392138 36,25.6398971 Z M56.3732128,25.9205471 C56.5702525,26.1445302 56.6687708,26.4390219 56.6687708,26.8040313 C56.6687708,27.2519973 56.4160498,27.6294445 55.9106003,27.9363842 C55.4051507,28.2433239 54.8354576,28.3967915 54.2015039,28.3967915 C53.1392032,28.3967915 52.2439712,28.1769596 51.5157811,27.7372892 C50.7875911,27.2976188 50.4235015,26.3643703 50.4235015,24.9375155 L50.4235015,18.0687372 L49.2412695,18.0687372 C48.8300563,18.0687372 48.4873837,17.9360085 48.2132416,17.6705471 C47.9390995,17.4050858 47.8020305,17.0732641 47.8020305,16.675072 C47.8020305,16.2934713 47.9390995,15.9740929 48.2132416,15.7169272 C48.4873837,15.4597615 48.8300563,15.3311806 49.2412695,15.3311806 L50.4235015,15.3311806 L50.4235015,13.7384204 C50.4235015,13.3070457 50.5734208,12.9461896 50.8732637,12.6558413 C51.1731067,12.3654929 51.545763,12.2203209 51.991244,12.2203209 C52.4195911,12.2203209 52.7793973,12.3654929 53.0706733,12.6558413 C53.3619493,12.9461896 53.5075851,13.3070457 53.5075851,13.7384204 L53.5075851,15.3311806 L55.3323346,15.3311806 C55.7435478,15.3311806 56.0862203,15.4639093 56.3603625,15.7293707 C56.6345046,15.994832 56.7715736,16.3266537 56.7715736,16.7248458 C56.7715736,17.1064465 56.6345046,17.4258249 56.3603625,17.6829906 C56.0862203,17.9401563 55.7435478,18.0687372 55.3323346,18.0687372 L53.5075851,18.0687372 L53.5075851,24.8130811 C53.5075851,25.1614991 53.6018201,25.4145132 53.7902928,25.5721308 C53.9787655,25.7297485 54.2357699,25.8085562 54.5613137,25.8085562 C54.6983848,25.8085562 54.8868546,25.775374 55.126729,25.7090087 C55.3323356,25.626052 55.5293723,25.5845743 55.717845,25.5845743 C55.9577194,25.5845743 56.1761731,25.6965641 56.3732128,25.9205471 Z M71.4536305,15.2885815 C71.73666,15.5712694 71.8781726,15.9370954 71.8781726,16.3860703 L71.8781726,26.9369295 C71.8781726,27.3692757 71.73666,27.7309446 71.4536305,28.0219469 C71.170601,28.3129492 70.8126573,28.4584482 70.3797886,28.4584482 C69.94692,28.4584482 69.5931384,28.3171063 69.3184333,28.0344184 C69.0437282,27.7517304 68.8980534,27.3942187 68.8814046,26.9618724 C68.4651848,27.4441048 67.9032964,27.855659 67.1957226,28.1965474 C66.4881489,28.5374358 65.7431265,28.7078775 64.9606332,28.7078775 C63.8118664,28.7078775 62.7713324,28.4127224 61.8389999,27.8224035 C60.9066674,27.2320845 60.1699693,26.4131332 59.6288835,25.3655249 C59.0877977,24.3179166 58.8172589,23.1289822 58.8172589,21.798686 C58.8172589,20.4683898 59.0836356,19.2752983 59.616397,18.2193757 C60.1491584,17.163453 60.8775322,16.3403446 61.8015403,15.7500257 C62.7255484,15.1597067 63.7452717,14.8645517 64.8607409,14.8645517 C65.6598831,14.8645517 66.4090676,15.0100506 67.1083169,15.3010529 C67.8075663,15.5920552 68.3985896,15.9620383 68.8814046,16.4110133 L68.8814046,16.3860703 C68.8814046,15.9537241 69.0229173,15.5920552 69.3059468,15.3010529 C69.5889763,15.0100506 69.94692,14.8645517 70.3797886,14.8645517 C70.8126573,14.8645517 71.170601,15.0058935 71.4536305,15.2885815 Z M68.0327784,24.7171552 C68.708053,23.9231855 69.0456853,22.9244702 69.0456853,21.7209794 C69.0456853,20.5174885 68.708053,19.5145945 68.0327784,18.7122673 C67.3575037,17.90994 66.4846008,17.5087824 65.4140434,17.5087824 C64.3599562,17.5087824 63.4952882,17.90994 62.8200135,18.7122673 C62.1447389,19.5145945 61.8071066,20.5174885 61.8071066,21.7209794 C61.8071066,22.9244702 62.1406214,23.9231855 62.807661,24.7171552 C63.4747006,25.5111248 64.343486,25.9081037 65.4140434,25.9081037 C66.4846008,25.9081037 67.3575037,25.5111248 68.0327784,24.7171552 Z M82.6524006,25.9205471 C82.8494403,26.1445302 82.9479586,26.4390219 82.9479586,26.8040313 C82.9479586,27.2519973 82.6952376,27.6294445 82.1897881,27.9363842 C81.6843385,28.2433239 81.1146454,28.3967915 80.4806918,28.3967915 C79.418391,28.3967915 78.523159,28.1769596 77.7949689,27.7372892 C77.0667789,27.2976188 76.7026893,26.3643703 76.7026893,24.9375155 L76.7026893,18.0687372 L75.5204573,18.0687372 C75.1092441,18.0687372 74.7665716,17.9360085 74.4924294,17.6705471 C74.2182873,17.4050858 74.0812183,17.0732641 74.0812183,16.675072 C74.0812183,16.2934713 74.2182873,15.9740929 74.4924294,15.7169272 C74.7665716,15.4597615 75.1092441,15.3311806 75.5204573,15.3311806 L76.7026893,15.3311806 L76.7026893,13.7384204 C76.7026893,13.3070457 76.8526086,12.9461896 77.1524515,12.6558413 C77.4522945,12.3654929 77.8249509,12.2203209 78.2704318,12.2203209 C78.6987789,12.2203209 79.0585851,12.3654929 79.3498611,12.6558413 C79.6411371,12.9461896 79.7867729,13.3070457 79.7867729,13.7384204 L79.7867729,15.3311806 L81.6115224,15.3311806 C82.0227356,15.3311806 82.3654081,15.4639093 82.6395503,15.7293707 C82.9136924,15.994832 83.0507614,16.3266537 83.0507614,16.7248458 C83.0507614,17.1064465 82.9136924,17.4258249 82.6395503,17.6829906 C82.3654081,17.9401563 82.0227356,18.0687372 81.6115224,18.0687372 L79.7867729,18.0687372 L79.7867729,24.8130811 C79.7867729,25.1614991 79.8810079,25.4145132 80.0694806,25.5721308 C80.2579533,25.7297485 80.5149577,25.8085562 80.8405015,25.8085562 C80.9775726,25.8085562 81.1660425,25.775374 81.4059168,25.7090087 C81.6115234,25.626052 81.8085601,25.5845743 81.9970329,25.5845743 C82.2369072,25.5845743 82.455361,25.6965641 82.6524006,25.9205471 Z M96.3296123,25.4539182 C96.4143274,25.5451705 96.4566843,25.6488648 96.4566843,25.7650041 C96.4566843,25.8811435 96.4227988,25.98069 96.3550267,26.0636467 C95.7959071,26.7936654 95.1012537,27.3909445 94.2710458,27.8555019 C93.4408378,28.3200593 92.5513427,28.5523345 91.6025336,28.5523345 C90.3318071,28.5523345 89.2051132,28.2868771 88.2224181,27.7559544 C87.239723,27.2250317 86.4730629,26.4701372 85.9224148,25.4912485 C85.3717666,24.5123597 85.0964467,23.3758703 85.0964467,22.0817462 C85.0964467,20.7544394 85.3632953,19.5889157 85.8970004,18.5851399 C86.4307055,17.5813641 87.1380659,16.8140264 88.0191029,16.2831037 C88.9001399,15.752181 89.8404634,15.4867236 90.8401015,15.4867236 C91.8397397,15.4867236 92.7673561,15.69826 93.6229785,16.121339 C94.478601,16.544418 95.1774901,17.1790271 95.7196667,18.0251851 C96.2618433,18.8713432 96.5498703,19.9165816 96.5837563,21.1609317 C96.5837563,21.2936624 96.532928,21.4139478 96.4312699,21.5217915 C96.3296118,21.6296352 96.2110125,21.6835562 96.0754683,21.6835562 L86.0876084,21.6835562 L86.0876084,22.0070856 C86.0876084,23.0357484 86.2993929,23.9772925 86.7229684,24.8317462 C87.1465439,25.6862 87.7734262,26.3622867 88.6036342,26.8600268 C89.4338421,27.3577668 90.4334652,27.6066331 91.6025336,27.6066331 C92.4157985,27.6066331 93.1824586,27.4116878 93.9025369,27.0217915 C94.6226153,26.6318951 95.1859622,26.1383103 95.5925947,25.5410222 C95.7111958,25.3917002 95.8552093,25.3170403 96.0246395,25.3170403 C96.1432406,25.3170403 96.2448972,25.3626658 96.3296123,25.4539182 Z M89.0674451,16.8988902 C88.4198981,17.2181642 87.848047,17.6929749 87.3518746,18.3233365 C86.8557022,18.9536981 86.523524,19.7191256 86.3553299,20.6196422 L95.6395939,20.6196422 L95.6395939,20.3986074 C95.5554969,19.563583 95.2821857,18.8472737 94.8196521,18.2496582 C94.3571185,17.6520427 93.7852674,17.197698 93.1040816,16.8866105 C92.4228958,16.575523 91.7122867,16.4199815 90.972233,16.4199815 C90.349915,16.4199815 89.7149921,16.5796161 89.0674451,16.8988902 Z M108.983059,16.7869422 C109.738858,17.6537589 110.116751,18.7806037 110.116751,20.1675104 L110.116751,27.7459271 C110.116751,27.8780135 110.066365,27.9935873 109.965592,28.0926521 C109.864819,28.1917169 109.747252,28.2412485 109.612888,28.2412485 C109.461728,28.2412485 109.339962,28.1917169 109.247587,28.0926521 C109.155212,27.9935873 109.109025,27.8780135 109.109025,27.7459271 L109.109025,20.2665747 C109.109025,19.1438407 108.810908,18.2233777 108.214667,17.5051581 C107.618426,16.7869386 106.71568,16.4278342 105.506401,16.4278342 C104.767398,16.4278342 104.041002,16.6011949 103.327192,16.9479216 C102.613382,17.2946483 102.029746,17.7651989 101.576267,18.3595875 C101.122788,18.9539761 100.896052,19.5896321 100.896052,20.2665747 L100.896052,27.7459271 C100.896052,27.8780135 100.845666,27.9935873 100.744893,28.0926521 C100.644119,28.1917169 100.526552,28.2412485 100.392188,28.2412485 C100.241028,28.2412485 100.119263,28.1917169 100.026887,28.0926521 C99.9345119,27.9935873 99.8883249,27.8780135 99.8883249,27.7459271 L99.8883249,16.378302 C99.8883249,16.2462157 99.9387107,16.1306419 100.039484,16.0315771 C100.140257,15.9325123 100.257824,15.8829807 100.392188,15.8829807 C100.543348,15.8829807 100.665114,15.9325123 100.757489,16.0315771 C100.849865,16.1306419 100.896052,16.2462157 100.896052,16.378302 L100.896052,18.0376286 C101.383122,17.2946428 102.06753,16.6837526 102.949295,16.2049396 C103.83106,15.7261265 104.717011,15.4867236 105.607174,15.4867236 C107.101976,15.4867236 108.22726,15.9201255 108.983059,16.7869422 Z M125.713313,16.0371065 C125.806299,16.1371766 125.852792,16.2539233 125.852792,16.3873501 L125.852792,27.1448336 C125.852792,28.4123884 125.590744,29.5131431 125.06664,30.4471308 C124.542536,31.3811186 123.807111,32.1024465 122.860343,32.6111362 C121.913575,33.119826 120.83157,33.374167 119.614297,33.374167 C118.938034,33.374167 118.253328,33.286607 117.560159,33.1114843 C116.866989,32.9363616 116.296401,32.7112072 115.848376,32.4360144 C115.400352,32.1608216 115.176343,31.8814634 115.176343,31.5979314 C115.176343,31.4645046 115.214383,31.3560969 115.290462,31.2727052 C115.366542,31.1893134 115.472206,31.1476181 115.607459,31.1476181 C115.708898,31.1476181 115.861055,31.2310087 116.063934,31.3977922 C116.300626,31.6312891 116.562674,31.8064092 116.850086,31.9231576 C117.678508,32.2567247 118.616809,32.4235057 119.665017,32.4235057 C121.254235,32.4235057 122.513755,31.9398408 123.443617,30.9724963 C124.373479,30.0051519 124.838402,28.7292771 124.838402,27.1448336 L124.838402,25.4186328 C124.381925,26.4860473 123.676086,27.2865962 122.720865,27.8203035 C121.765643,28.3540108 120.763944,28.6208604 119.715736,28.6208604 C118.566089,28.6208604 117.522124,28.3331631 116.583809,27.75776 C115.645494,27.1823568 114.910069,26.3943165 114.377512,25.3936154 C113.844955,24.3929142 113.57868,23.2754814 113.57868,22.0412833 C113.57868,20.8070852 113.844955,19.6896524 114.377512,18.6889512 C114.910069,17.6882501 115.645494,16.9043793 116.583809,16.3373153 C117.522124,15.7702513 118.566089,15.4867236 119.715736,15.4867236 C120.848477,15.4867236 121.883989,15.7827599 122.822304,16.3748414 C123.760618,16.9669229 124.432645,17.6799118 124.838402,18.5138294 L124.838402,16.3873501 C124.838402,16.2539233 124.884895,16.1371766 124.977881,16.0371065 C125.070867,15.9370364 125.193438,15.8870021 125.345597,15.8870021 C125.497756,15.8870021 125.620327,15.9370364 125.713313,16.0371065 Z M122.256837,26.9082208 C123.034,26.4343147 123.644023,25.7733502 124.086923,24.9253076 C124.529822,24.077265 124.751269,23.1045248 124.751269,22.0070579 C124.751269,20.909591 124.529822,19.9368508 124.086923,19.0888082 C123.644023,18.2407656 123.034,17.5839581 122.256837,17.1183661 C121.479673,16.652774 120.606421,16.4199815 119.637056,16.4199815 C118.66769,16.4199815 117.794439,16.6610881 117.017275,17.1433084 C116.240111,17.6255287 115.630089,18.2906502 115.187189,19.1386928 C114.744289,19.9867354 114.522843,20.9428475 114.522843,22.0070579 C114.522843,23.0712682 114.744289,24.0273804 115.187189,24.875423 C115.630089,25.7234656 116.240111,26.3927441 117.017275,26.8832785 C117.794439,27.373813 118.66769,27.6190765 119.637056,27.6190765 C120.606421,27.6190765 121.479673,27.382127 122.256837,26.9082208 Z M130.58934,28.0926521 C130.494923,28.1917169 130.384772,28.2412485 130.258883,28.2412485 C130.117258,28.2412485 130.003173,28.1917169 129.916624,28.0926521 C129.830076,27.9935873 129.786802,27.8780135 129.786802,27.7459271 L129.786802,15.982045 C129.786802,15.8499586 129.83401,15.7343848 129.928426,15.63532 C130.022843,15.5362552 130.132994,15.4867236 130.258883,15.4867236 C130.400508,15.4867236 130.514593,15.5362552 130.601142,15.63532 C130.687691,15.7343848 130.730964,15.8499586 130.730964,15.982045 L130.730964,27.7459271 C130.730964,27.8780135 130.683757,27.9935873 130.58934,28.0926521 Z M129.732068,13.6979793 C129.558743,13.5424355 129.472081,13.3436881 129.472081,13.1017311 L129.472081,12.8943405 C129.472081,12.6523835 129.563304,12.4536361 129.745751,12.2980924 C129.928199,12.1425486 130.165378,12.0647779 130.457294,12.0647779 C130.712721,12.0647779 130.927094,12.1425486 131.100419,12.2980924 C131.273745,12.4536361 131.360406,12.6523835 131.360406,12.8943405 L131.360406,13.1017311 C131.360406,13.3436881 131.273745,13.5424355 131.100419,13.6979793 C130.927094,13.853523 130.703599,13.9312937 130.429927,13.9312937 C130.138011,13.9312937 129.905393,13.853523 129.732068,13.6979793 Z M144.23179,16.7869422 C144.987588,17.6537589 145.365482,18.7806037 145.365482,20.1675104 L145.365482,27.7459271 C145.365482,27.8780135 145.315096,27.9935873 145.214323,28.0926521 C145.11355,28.1917169 144.995983,28.2412485 144.861619,28.2412485 C144.710459,28.2412485 144.588693,28.1917169 144.496318,28.0926521 C144.403943,27.9935873 144.357755,27.8780135 144.357755,27.7459271 L144.357755,20.2665747 C144.357755,19.1438407 144.059639,18.2233777 143.463398,17.5051581 C142.867157,16.7869386 141.964411,16.4278342 140.755132,16.4278342 C140.016129,16.4278342 139.289733,16.6011949 138.575923,16.9479216 C137.862113,17.2946483 137.278477,17.7651989 136.824998,18.3595875 C136.371519,18.9539761 136.144783,19.5896321 136.144783,20.2665747 L136.144783,27.7459271 C136.144783,27.8780135 136.094397,27.9935873 135.993624,28.0926521 C135.89285,28.1917169 135.775283,28.2412485 135.640919,28.2412485 C135.489759,28.2412485 135.367994,28.1917169 135.275618,28.0926521 C135.183243,27.9935873 135.137056,27.8780135 135.137056,27.7459271 L135.137056,16.378302 C135.137056,16.2462157 135.187442,16.1306419 135.288215,16.0315771 C135.388988,15.9325123 135.506555,15.8829807 135.640919,15.8829807 C135.792079,15.8829807 135.913845,15.9325123 136.00622,16.0315771 C136.098596,16.1306419 136.144783,16.2462157 136.144783,16.378302 L136.144783,18.0376286 C136.631853,17.2946428 137.316261,16.6837526 138.198026,16.2049396 C139.079791,15.7261265 139.965742,15.4867236 140.855905,15.4867236 C142.350707,15.4867236 143.475991,15.9201255 144.23179,16.7869422 Z M159.745856,25.4539182 C159.830571,25.5451705 159.872928,25.6488648 159.872928,25.7650041 C159.872928,25.8811435 159.839042,25.98069 159.77127,26.0636467 C159.212151,26.7936654 158.517497,27.3909445 157.687289,27.8555019 C156.857081,28.3200593 155.967586,28.5523345 155.018777,28.5523345 C153.748051,28.5523345 152.621357,28.2868771 151.638662,27.7559544 C150.655967,27.2250317 149.889307,26.4701372 149.338658,25.4912485 C148.78801,24.5123597 148.51269,23.3758703 148.51269,22.0817462 C148.51269,20.7544394 148.779539,19.5889157 149.313244,18.5851399 C149.846949,17.5813641 150.55431,16.8140264 151.435347,16.2831037 C152.316384,15.752181 153.256707,15.4867236 154.256345,15.4867236 C155.255983,15.4867236 156.1836,15.69826 157.039222,16.121339 C157.894845,16.544418 158.593734,17.1790271 159.13591,18.0251851 C159.678087,18.8713432 159.966114,19.9165816 160,21.1609317 C160,21.2936624 159.949172,21.4139478 159.847514,21.5217915 C159.745855,21.6296352 159.627256,21.6835562 159.491712,21.6835562 L149.503852,21.6835562 L149.503852,22.0070856 C149.503852,23.0357484 149.715637,23.9772925 150.139212,24.8317462 C150.562788,25.6862 151.18967,26.3622867 152.019878,26.8600268 C152.850086,27.3577668 153.849709,27.6066331 155.018777,27.6066331 C155.832042,27.6066331 156.598702,27.4116878 157.318781,27.0217915 C158.038859,26.6318951 158.602206,26.1383103 159.008838,25.5410222 C159.127439,25.3917002 159.271453,25.3170403 159.440883,25.3170403 C159.559484,25.3170403 159.661141,25.3626658 159.745856,25.4539182 Z M152.483689,16.8988902 C151.836142,17.2181642 151.264291,17.6929749 150.768118,18.3233365 C150.271946,18.9536981 149.939768,19.7191256 149.771574,20.6196422 L159.055838,20.6196422 L159.055838,20.3986074 C158.971741,19.563583 158.698429,18.8472737 158.235896,18.2496582 C157.773362,17.6520427 157.201511,17.197698 156.520325,16.8866105 C155.839139,16.575523 155.12853,16.4199815 154.388477,16.4199815 C153.766159,16.4199815 153.131236,16.5796161 152.483689,16.8988902 Z"/>
    <g fill="url(#branding-a)" transform="rotate(-7 31.35 -3.525)">
      <path d="M2.29569738,31.8746061 L2.31495815,31.8992587 L2.61101401,31.6679545 L2.62036231,31.6799198 L2.8059457,31.5156572 L20.0356047,18.0543723 C20.7058885,19.5027686 21.4886611,21.4771438 21.6793907,24.0877777 C21.6798455,24.1795529 21.6800029,24.2682071 21.6798468,24.3538939 C21.7279329,24.5603885 21.7519759,24.7693758 21.7519759,24.9808558 C21.7519759,26.1478766 21.3149086,27.2136867 20.5942114,28.0261594 C20.5110232,28.148779 20.4218698,28.2665568 20.3272432,28.3790976 L17.9589941,30.2293766 L16.7896033,31.1430048 L15.9005715,31.8375926 L12.6905569,34.3455309 C12.6464275,34.3620934 12.6019832,34.3779213 12.5572401,34.3930017 L5.78174554,39.686598 C5.15612502,39.9333596 4.464623,40.0318004 3.75401765,39.9445491 C1.43796991,39.6601742 -0.203968077,37.5109189 0.0866465062,35.144053 C0.200194385,34.2192798 0.591964242,33.3981123 1.16535428,32.7577269 L2.29569738,31.8746061 Z"/>
      <path d="M2.25302287,14.8366213 L2.27251352,14.8615682 L2.56746106,14.63113 L2.57640668,14.6425798 L2.75438446,14.4850894 L20.0404992,0.979696422 C20.7108892,2.42943799 21.4944696,4.40668221 21.6830787,7.0229179 C21.6834319,7.11233123 21.6835059,7.19878549 21.6832857,7.28242256 C21.733437,7.49301537 21.7585127,7.70620254 21.7585127,7.92198406 C21.7585127,9.0867502 21.3223565,10.1507264 20.6028203,10.9627562 C20.5162191,11.0906665 20.4231211,11.2133284 20.3240829,11.3302951 L17.9618982,13.1758361 L16.7897239,14.0916391 L15.8985759,14.7878802 L12.7146234,17.2754565 C12.6680354,17.2934156 12.6210889,17.3105565 12.573803,17.326864 L5.7782042,22.6361675 C5.14647706,22.8885637 4.44691632,22.9898825 3.72780766,22.9015871 C1.40728824,22.6166631 -0.238052866,20.4651555 0.0528354438,18.0960604 C0.16574051,17.1765224 0.553747204,16.3593584 1.12198053,15.7202884 L2.25302287,14.8366213 Z" transform="rotate(180 13.457 11.895)"/>
    </g>
  </g>
</svg>
