<svg xmlns="http://www.w3.org/2000/svg" width="72" height="80" viewBox="0 0 72 80">
  <g fill="none" fill-rule="evenodd">
    <g opacity=".98" transform="translate(0 .638)">
      <path fill="#384553" d="M19.698,0.16031 C19.6662719,0.169160597 19.6350005,0.179573289 19.6043,0.19151 C19.5398897,0.206101377 19.4770831,0.227036914 19.4168,0.25401 C19.3511904,0.278589402 19.2883454,0.309995182 19.2293,0.34771 C19.0995954,0.436175872 18.9925407,0.553936044 18.9168,0.69146 C18.9166378,0.701859367 18.9166378,0.712260633 18.9168,0.72266 C18.9056754,0.743123658 18.895269,0.763969704 18.8856,0.78516 C18.8854378,0.795559367 18.8854378,0.805960633 18.8856,0.81636 C18.8744754,0.836823658 18.864069,0.857669704 18.8544,0.87886 C18.8542378,0.889259367 18.8542378,0.899660633 18.8544,0.91006 C18.8432754,0.930523658 18.832869,0.951369704 18.8232,0.97256 C18.8230378,0.982959367 18.8230378,0.993360633 18.8232,1.00376 C18.7995552,1.12764185 18.7995552,1.25487815 18.8232,1.37876 L18.8232,7.72251 L1.79195,7.72251 C1.23968812,7.72256522 0.792005218,8.17024812 0.79195,8.72251 L0.79195,70.9725 C0.792005218,71.5247619 1.23968812,71.9724448 1.79195,71.9725 L20.1357,71.9725 L20.1357,77.5663 C20.1357552,78.1185619 20.5834381,78.5662448 21.1357,78.5663 L70.1982,78.5663 C70.7504619,78.5662448 71.1981448,78.1185619 71.1982,77.5663 L71.1982,15.50377 C71.2398467,15.2092348 71.1482195,14.9114464 70.9482,14.69127 L70.8857,14.62877 C70.8565725,14.5954996 70.8252704,14.5641975 70.792,14.53507 L58.9795,0.53506 C58.7895745,0.297866332 58.5021127,0.159884664 58.19825,0.16006 L19.917,0.16006 C19.8753741,0.157453546 19.8336259,0.157453546 19.792,0.16006 C19.7607838,0.158596061 19.7295162,0.158596061 19.6983,0.16006 L19.698,0.16031 Z M20.823,2.16031 L57.7605,2.16031 L68.04175,14.34782 L51.85425,14.34782 L51.85425,8.72281 C51.8541948,8.17054812 51.4065119,7.72286522 50.85425,7.72281 L20.823,7.72281 L20.823,2.16031 Z M2.79175,9.72281 L49.85425,9.72281 L49.85425,14.34782 L21.1355,14.34782 C20.5952137,14.3476085 20.1524362,14.7765492 20.1355,15.31657 L20.1355,69.9728 L2.79175,69.9728 L2.79175,9.72281 Z M22.1355,16.31657 L51.073,16.31657 L69.198,16.31657 L69.198,76.5666 L22.1355,76.5666 L22.1355,70.5666 L22.1355,16.31657 Z"/>
      <path fill="#000" d="M8.166749 20.94157C7.80611308 20.9364697 7.47066764 21.1259453 7.28886128 21.4374428 7.10705492 21.7489404 7.10705492 22.1341996 7.28886128 22.4456972 7.47066764 22.7571947 7.80611308 22.9466703 8.166749 22.94157L16.572998 22.94157C16.9336339 22.9466703 17.2690794 22.7571947 17.4508857 22.4456972 17.6326921 22.1341996 17.6326921 21.7489404 17.4508857 21.4374428 17.2690794 21.1259453 16.9336339 20.9364697 16.572998 20.94157L8.166749 20.94157zM26.479269 28.25407C25.93842 28.2699602 25.5082175 28.7129876 25.5082175 29.25407 25.5082175 29.7951524 25.93842 30.2381798 26.479269 30.25407L60.729261 30.25407C61.27011 30.2381798 61.7003125 29.7951524 61.7003125 29.25407 61.7003125 28.7129876 61.27011 28.2699602 60.729261 28.25407L26.479269 28.25407zM8.073029 29.09782C7.71546796 29.11416 7.39383566 29.3201583 7.22945164 29.6381124 7.06506761 29.9560665 7.08294597 30.3375936 7.27634302 30.6387821 7.46974006 30.9399705 7.80922679 31.1149888 8.166749 31.09782L16.448025 31.09782C16.8086609 31.1029203 17.1441064 30.9134447 17.3259127 30.6019472 17.5077191 30.2904496 17.5077191 29.9051904 17.3259127 29.5936928 17.1441064 29.2821953 16.8086609 29.0927197 16.448025 29.09782L8.166749 29.09782C8.13552617 29.0963554 8.10425183 29.0963554 8.073029 29.09782zM26.479269 36.91032C25.9290636 36.9645015 25.5260997 37.4531556 25.5776987 38.0036091 25.6292976 38.5540627 26.1160553 38.9593153 26.666745 38.9103L64.573012 38.9103C64.9338089 38.9156517 65.2695129 38.7262337 65.4514739 38.4146359 65.633435 38.103038 65.633435 37.717582 65.4514739 37.4059841 65.2695129 37.0943863 64.9338089 36.9049683 64.573012 36.91032L26.666745 36.91032C26.6043909 36.9044498 26.5416231 36.9044498 26.479269 36.91032zM14.760525 37.1916C14.3998891 37.1864997 14.0644436 37.3759753 13.8826373 37.6874728 13.7008309 37.9989704 13.7008309 38.3842296 13.8826373 38.6957272 14.0644436 39.0072247 14.3998891 39.1967003 14.760525 39.1916L15.010506 39.1916C15.3711419 39.1967003 15.7065874 39.0072247 15.8883937 38.6957272 16.0702001 38.3842296 16.0702001 37.9989704 15.8883937 37.6874728 15.7065874 37.3759753 15.3711419 37.1864997 15.010506 37.1916L14.760525 37.1916zM33.291773 44.7853C32.9311371 44.7801997 32.5956916 44.9696753 32.4138853 45.2811728 32.2320789 45.5926704 32.2320789 45.9779296 32.4138853 46.2894272 32.5956916 46.6009247 32.9311371 46.7904003 33.291773 46.7853L57.979261 46.7853C58.3398969 46.7904003 58.6753424 46.6009247 58.8571487 46.2894272 59.0389551 45.9779296 59.0389551 45.5926704 58.8571487 45.2811728 58.6753424 44.9696753 58.3398969 44.7801997 57.979261 44.7853L33.291773 44.7853zM8.073029 45.3478C7.71546796 45.36414 7.39383566 45.5701383 7.22945164 45.8880924 7.06506761 46.2060465 7.08294597 46.5875736 7.27634302 46.8887621 7.46974006 47.1899505 7.80922679 47.3649688 8.166749 47.3478L16.572998 47.3478C17.1138708 47.3319423 17.544109 46.8889052 17.544109 46.3478 17.544109 45.8066948 17.1138708 45.3636577 16.572998 45.3478L8.166749 45.3478C8.13552615 45.3463359 8.10425185 45.3463359 8.073029 45.3478zM26.479269 52.3791C25.9276394 52.4316333 25.5227717 52.9209924 25.5744876 53.4726992 25.6262035 54.024406 26.1149622 54.4299984 26.666745 54.3791L64.573012 54.3791C65.113861 54.3632098 65.5440635 53.9201824 65.5440635 53.3791 65.5440635 52.8380176 65.113861 52.3949902 64.573012 52.3791L26.666745 52.3791C26.6043908 52.3732317 26.5416232 52.3732317 26.479269 52.3791z"/>
    </g>
    <path fill="#0085FF" d="M21,10 L50,10 L50,15 L21,15 L21,71 L3,71 L3,10 L21,10 Z"/>
    <path stroke="#FFF" stroke-linecap="square" stroke-width="3" d="M8.5 23.5L19.5 23.5M7.5 29.5L19.5 29.5M10.5 54.5L19.5 54.5M6.5 61.5L19.5 61.5M11.5 36.5L19.5 36.5"/>
    <path stroke="#0C6BD6" stroke-linecap="square" stroke-width="3" d="M26.5 29.5L64.5 29.5M26.5 38.5L64.5 38.5M26.5 54.5L64.5 54.5M30.5 46.5L59.5 46.5"/>
  </g>
</svg>
