<svg xmlns="http://www.w3.org/2000/svg" width="65" height="80" viewBox="0 0 65 80">
  <g fill="none" transform="translate(1 1)">
    <path fill="#384553" stroke="#384553" d="M49.8792059,63.5652174 C49.4408985,63.5652174 49.1486935,63.8557375 49.1486935,64.2915177 L49.1486935,69.752168 L12.2210248,69.752168 L12.2210248,64.2915177 C12.2210248,63.8557375 11.9288198,63.5652174 11.4905124,63.5652174 C11.052205,63.5652174 10.76,63.8557375 10.76,64.2915177 L10.76,70.4784683 C10.76,70.9142485 11.052205,71.2047686 11.4905124,71.2047686 L49.8792059,71.2047686 C50.3175134,71.2047686 50.6097183,70.9142485 50.6097183,70.4784683 L50.6097183,64.2915177 C50.6097183,63.8557375 50.3175134,63.5652174 49.8792059,63.5652174 Z"/>
    <path fill="#384553" stroke="#384553" d="M61.9137931,63.0978261 C61.262069,63.0978261 60.8275862,63.5298036 60.8275862,64.17777 L60.8275862,76.2731417 L2.17241379,76.2731417 L2.17241379,64.17777 C2.17241379,63.5298036 1.73793103,63.0978261 1.0862069,63.0978261 C0.434482759,63.0978261 0,63.5298036 0,64.17777 L0,77.3530856 C0,78.0010519 0.434482759,78.4330295 1.0862069,78.4330295 L61.9137931,78.4330295 C62.5655172,78.4330295 63,78.0010519 63,77.3530856 L63,64.17777 C63,63.5298036 62.5655172,63.0978261 61.9137931,63.0978261 Z"/>
    <path fill="#0085FF" stroke="#0085FF" d="M30.8482759,53.3492286 C31.0655172,53.5652174 31.0655172,53.5652174 31.2827586,53.5652174 C31.5,53.5652174 31.5,53.5652174 31.7172414,53.5652174 C31.9344828,53.5652174 31.9344828,53.5652174 32.1517241,53.5652174 C32.1517241,53.5652174 32.3689655,53.5652174 32.3689655,53.3492286 C32.3689655,53.3492286 32.3689655,53.3492286 32.5862069,53.3492286 C32.5862069,53.3492286 38.3793103,47.7335203 49.9655172,36.5021038 C50.4,36.0701262 50.4,35.4221599 49.9655172,34.9901823 C49.5310345,34.5582048 48.8793103,34.5582048 48.4448276,34.9901823 L32.5862069,50.1093969 L32.5862069,1.0799439 C32.5862069,0.43197756 32.1517241,0 31.5,0 C30.8482759,0 30.4137931,0.43197756 30.4137931,1.0799439 L30.4137931,50.1093969 L14.7724138,35.2061711 C14.337931,34.7741935 13.6862069,34.7741935 13.2517241,35.2061711 C13.0344828,35.6381487 13.0344828,36.286115 13.4689655,36.7180926 L30.8482759,53.3492286 Z"/>
  </g>
</svg>
