<svg xmlns="http://www.w3.org/2000/svg" width="50" height="50" viewBox="0 0 50 50">
  <g fill="none" fill-rule="evenodd">
    <path fill="#384553" d="M28.110383 6.00043692C27.5172382 6.01708232 27.0357647 6.47271447 27.0018907 7.04943503 26.9680166 7.62615559 27.3930028 8.13224415 27.9803328 8.21459851 38.070855 9.77063587 45.7136321 17.8563116 45.7136321 27.5789226 45.7136321 30.0069737 45.2426503 32.3226682 44.3743153 34.4618975 44.2166897 34.8332122 44.2768673 35.2584056 44.5317664 35.5743898 44.7866655 35.890374 45.1967153 36.0480953 45.6046364 35.987058 46.0125575 35.9260206 46.3550239 35.6557 46.5006786 35.2797808 47.4726537 32.8852308 48 30.2876707 48 27.5789226 48 16.72083 39.4651073 7.73215475 28.3379565 6.01626368 28.2628297 6.00362197 28.1865924 5.99832744 28.110383 6.00045918L28.110383 6.00043692zM41.847521 40.0001364C41.5132423 40.0052693 41.1982886 40.15434 40.9867218 40.4075613 37.1313917 44.8901229 31.1826706 47.7801699 24.4912174 47.7801699 17.8117355 47.7801699 11.868461 44.8955064 8.01313099 40.4181063 7.75398955 40.1081381 7.34426853 39.9587281 6.94093934 40.0271182 6.53761015 40.0955082 6.2031993 40.3710959 6.06582552 40.7482987 5.92845174 41.1255016 6.00941155 41.5458433 6.2776878 41.8482836 10.5639851 46.8261264 17.1437817 50 24.4912174 50 31.8506811 50 38.4366619 46.8204654 42.7230154 41.8366841 43.0159189 41.5058501 43.0827501 41.0375371 42.8936633 40.6408848 42.7045765 40.2442325 42.2948739 39.993295 41.847521 40.0001364zM20.8746282 6.00002307C20.8104589 5.99961621 20.7463707 6.00459207 20.6830549 6.01489694 9.55815047 7.66238575 1 16.7353055 1 27.7106389 1 30.3671917 1.49745634 32.9127495 2.41629458 35.2707623 2.55823574 35.6482916 2.89482899 35.9213393 3.2975324 35.985631 3.7002358 36.0499227 4.1068589 35.8955296 4.36211599 35.5814131 4.61737308 35.2672967 4.68184418 34.8419666 4.53090838 34.4678526 3.70961279 32.3600676 3.26545949 30.0920809 3.26545949 27.7106389 3.26545949 17.8829649 10.9287324 9.72085767 21.0190729 8.22658099 21.6083559 8.14781749 22.0356551 7.63269812 21.9976509 7.04688208 21.9596466 6.46106605 21.4692751 6.00395898 20.8746282 6.00003984L20.8746282 6.00002307z"/>
    <path fill="#F5A623" d="M13.3252126,26.0008695 C12.77259,26.0367119 12.2835466,26.5019235 12.235393,27.0371699 C12.1872981,27.5723595 12.5857822,28.1125556 13.1235657,28.2409624 L18.6039253,29.556606 L0.641638807,38.8550339 C0.0800424242,39.1233967 -0.169582036,39.872958 0.124031697,40.4093423 C0.41764543,40.9457266 1.19754591,41.164991 1.74137063,40.8640287 L20.0152185,31.4056185 L18.5489094,36.6681926 C18.3294909,37.2561217 18.7180628,37.9857136 19.3393673,38.1522954 C19.9606718,38.3188772 20.6803949,37.8864358 20.8033889,37.2726774 L22.9295371,29.6099713 C23.1600409,28.8922131 22.8063085,28.2182622 22.1413667,28.0454222 L13.6734903,26.0364275 C13.5601153,26.0079811 13.4422827,25.9960337 13.3252126,26.001154 L13.3252126,26.0008695 Z"/>
    <path fill="#1681FF" d="M36.5345676,26.0019885 C36.4726247,26.0090046 36.411357,26.0208026 36.3513474,26.0372703 L27.9021589,28.0467426 C27.5932462,28.1178699 27.3272435,28.3074609 27.1649141,28.572207 C27.0025847,28.8369531 26.9577953,29.1542388 27.0407772,29.4515863 L29.2217673,37.2761908 C29.3330588,37.6701228 29.6525029,37.9765167 30.0597584,38.0799474 C30.4670139,38.1833781 30.9002028,38.0681306 31.1961338,37.7776209 C31.4920648,37.4871112 31.6057746,37.0654791 31.4944261,36.6715623 L30.0281946,31.4077374 L48.2461206,40.8506409 C48.6174789,41.0560333 49.0745889,41.0491569 49.4392064,40.8326929 C49.8038239,40.616229 50.0182158,40.224452 49.9987826,39.8101307 C49.9793495,39.3958094 49.7291684,39.0245466 49.3457942,38.8411117 L31.4394718,29.5582855 L36.9011255,28.2423292 C37.465956,28.1039407 37.8405219,27.5843073 37.7807397,27.0220452 C37.7209574,26.459783 37.2449447,26.0252913 36.6628922,26.001704 C36.6201494,25.999432 36.5773105,25.999432 36.5345676,26.001704 L36.5345676,26.0019885 Z"/>
    <path fill="#1BB996" d="M25.0093237,7.21504897e-06 C24.4241097,0.00924186413 23.8999707,0.560926641 23.9091907,1.1579011 L23.8917566,20.2186158 L19.8754999,16.3708454 C19.4457954,15.960445 18.6887555,15.985903 18.2864872,16.4242581 C17.884163,16.8626418 17.9091407,17.6349092 18.3390128,18.0453096 L24.241164,23.6744324 C24.7290938,24.17218 25.3971754,24.0448901 25.7778187,23.6567612 L31.6450459,17.9207558 C31.9762927,17.6087102 32.0919609,17.0811096 31.9225936,16.654845 C31.7531705,16.2285748 31.3099993,15.9320798 30.8592845,15.9434293 C30.5734108,15.9503838 30.2919515,16.0743961 30.0909571,16.2818906 L26.1270584,20.1652886 L26.1443807,1.15801511 C26.15388,0.549183816 25.6061604,-0.00944974966 25.0093796,0.000121223062 L25.0093237,7.21504897e-06 Z"/>
  </g>
</svg>
