<svg xmlns="http://www.w3.org/2000/svg" width="32" height="39" viewBox="0 0 32 39">
  <g fill="none" fill-rule="evenodd" transform="translate(1 1)">
    <path fill="#FFF" stroke="#333" d="M15,0 C23.2842712,0 30,6.71572875 30,15 C30,21.5635282 25.7844015,27.1424506 19.9130811,29.1768907 L15.5,38 L11.2653102,29.5313663 C4.78794117,27.8715367 0,21.9949101 0,15 C0,6.71572875 6.71572875,0 15,0 Z"/>
    <path fill="#333" fill-rule="nonzero" d="M15,5 L6,8.85714286 L6,23 L8.57142857,23 L8.57142857,14.3214286 C8.57142857,14.144 8.71542857,14 8.89285714,14 L21.1071429,14 C21.2845714,14 21.4285714,14.144 21.4285714,14.3214286 L21.4285714,23 L24,23 L24,8.85714286 L15,5 Z M10,16 L20,16 L20,18 L10,18 L10,16 Z M15,8 C16.1045695,8 17,8.8954305 17,10 C17,11.1045695 16.1045695,12 15,12 C13.8954305,12 13,11.1045695 13,10 C13,8.8954305 13.8954305,8 15,8 Z M10,20 L20,20 L20,22 L10,22 L10,20 Z"/>
  </g>
</svg>
