<svg xmlns="http://www.w3.org/2000/svg" width="44" height="44" viewBox="0 0 44 44">
    <g fill="none" fill-rule="evenodd" opacity=".968">
        <path d="M0 0h44v44H0z"/>
        <circle cx="22" cy="22" r="22" fill="#000" fill-opacity=".143"/>
        <path fill="#FFF" d="M10 22.304c0 5.436 3.438 10.048 8.207 11.675.6.113.819-.267.819-.593 0-.292-.01-1.066-.017-2.092-3.337.743-4.042-1.65-4.042-1.65-.546-1.422-1.332-1.8-1.332-1.8-1.09-.764.082-.748.082-.748 1.205.087 1.838 1.268 1.838 1.268 1.071 1.88 2.81 1.337 3.493 1.022.109-.795.419-1.336.762-1.645-2.665-.31-5.467-1.365-5.467-6.08 0-1.344.468-2.442 1.236-3.302-.123-.312-.535-1.562.118-3.256 0 0 1.007-.332 3.3 1.26.957-.272 1.983-.409 3.003-.413 1.02.004 2.046.141 3.005.414 2.29-1.593 3.297-1.26 3.297-1.26.654 1.693.242 2.943.12 3.255.768.86 1.232 1.958 1.232 3.302 0 4.726-2.805 5.766-5.478 6.071.43.38.814 1.131.814 2.278 0 1.646-.014 2.973-.014 3.376 0 .33.216.712.825.591C30.565 32.347 34 27.74 34 22.304 34 15.51 28.627 10 21.999 10 15.373 10 10 15.509 10 22.304z" opacity=".851"/>
    </g>
</svg>
