<svg xmlns="http://www.w3.org/2000/svg" xmlns:xlink="http://www.w3.org/1999/xlink" width="48" height="48" viewBox="0 0 48 48">
  <defs>
    <linearGradient id="icon-data-enrichment-a" x1="81.707%" x2="25.566%" y1="26.545%" y2="86.287%">
      <stop offset="0%" stop-color="#FFC800"/>
      <stop offset="43.351%" stop-color="#F9AA43"/>
      <stop offset="100%" stop-color="#F76B1C"/>
    </linearGradient>
    <linearGradient id="icon-data-enrichment-b" x1="21.997%" x2="66.24%" y1="83.555%" y2="50%">
      <stop offset="0%" stop-opacity="0"/>
      <stop offset="100%"/>
    </linearGradient>
    <linearGradient id="icon-data-enrichment-e" x1="50%" x2="50%" y1="100%" y2="61.694%">
      <stop offset="0%" stop-color="#CBCBCB"/>
      <stop offset="100%" stop-color="#FFF"/>
    </linearGradient>
    <path id="icon-data-enrichment-d" d="M13.786298,33.8613362 C11.8972973,31.976883 10.590932,29.5883092 10.0233603,26.9811365 C9.9628355,26.7278375 10.0213561,26.4607663 10.1822551,26.2559857 C10.3431541,26.0512052 10.5887973,25.9311589 10.8492245,25.9300365 L16.2548812,25.9300365 C16.6102184,25.9306521 16.9276648,26.1522656 17.050714,26.4856179 C17.7414744,28.3088046 19.1551015,29.7653943 20.9567968,30.5104135 C22.7584921,31.2554327 24.788004,31.2226157 26.5646698,30.4197348 C26.8857754,30.2735463 27.2638715,30.3417472 27.5136629,30.5909139 L31.3576855,34.425927 C31.5393709,34.6099499 31.6277522,34.8664664 31.5979775,35.1233467 C31.5682027,35.380227 31.4234878,35.6097256 31.2045252,35.7473098 C25.6741141,39.2790935 18.432587,38.4950109 13.786298,33.8613362 L13.786298,33.8613362 Z M31.2045252,12.2086779 C27.3575133,9.74259959 22.5474847,9.31423129 18.3252272,11.061682 C14.1029696,12.8091327 11.0024732,16.5114018 10.0233603,20.9748512 C9.9628355,21.2281501 10.0213561,21.4952213 10.1822551,21.7000019 C10.3431541,21.9047825 10.5887973,22.0248288 10.8492245,22.0259511 L16.2548812,22.0259511 C16.6102184,22.0253355 16.9276648,21.803722 17.050714,21.4703697 C17.7414744,19.6471831 19.1551015,18.1905933 20.9567968,17.4455741 C22.7584921,16.7005549 24.788004,16.733372 26.5646698,17.5362529 C26.8869544,17.688208 27.2698811,17.6221862 27.5226723,17.3710801 L31.3576855,13.5300607 C31.5393709,13.3460378 31.6277522,13.0895212 31.5979775,12.8326409 C31.5682027,12.5757606 31.4234878,12.346262 31.2045252,12.2086779 Z M34.949444,33.2516982 C34.2838613,33.3291245 33.6195856,33.096628 33.1475585,32.6210383 L29.3275611,28.783022 C28.6853422,28.1339524 28.5076276,27.1571185 28.8800928,26.3234482 C29.5504847,24.8295738 29.5504847,23.1204076 28.8800928,21.6265332 L28.8800928,21.6265332 C28.5112704,20.7943858 28.6887287,19.8213424 29.3275611,19.1729656 L33.1625742,15.3349494 C33.6346013,14.8593597 34.298877,14.6268632 34.9644598,14.7042894 C35.6328304,14.7761875 36.2320106,15.1487404 36.5921631,15.7163485 C39.8026123,20.7541009 39.8026123,27.1958805 36.5921631,32.2336329 C36.2298189,32.80708 35.6242266,33.1823922 34.949444,33.2516982 L34.949444,33.2516982 Z M32.0544146,23.2812647 C32.0929677,23.7459536 32.0929677,24.2130372 32.0544146,24.6777261 L36.2588142,24.6777261 C36.2843523,24.2125892 36.2843523,23.7464016 36.2588142,23.2812647 L32.0544146,23.2812647 Z M33.2256402,19.0948839 L35.306818,19.0948839 C35.1077824,18.6156374 34.8791012,18.1492481 34.6221015,17.6984226 L33.2256402,19.0948839 Z M31.4808143,20.8397098 C31.6162261,21.1773667 31.7295827,21.5234553 31.8201694,21.875794 L36.1086571,21.875794 C36.0349101,21.4050266 35.9346459,20.9387977 35.8083428,20.4793327 L31.8291789,20.4793327 L31.4808143,20.8397098 Z M35.7933271,27.4676456 C35.919624,27.008179 36.0198882,26.5419505 36.0936414,26.0711842 L31.8201694,26.0711842 C31.7299574,26.4265749 31.6165971,26.7756846 31.4808143,27.1162779 L31.8291789,27.4646424 L35.7933271,27.4676456 Z M35.306818,28.8611037 L33.2256402,28.8611037 L34.6221015,30.257565 C34.8790532,29.8067142 35.1077329,29.3403279 35.306818,28.8611037 Z"/>
    <filter id="icon-data-enrichment-c" width="113.8%" height="114.3%" x="-6.9%" y="-3.6%" filterUnits="objectBoundingBox">
      <feOffset dy="1" in="SourceAlpha" result="shadowOffsetOuter1"/>
      <feGaussianBlur in="shadowOffsetOuter1" result="shadowBlurOuter1" stdDeviation=".5"/>
      <feColorMatrix in="shadowBlurOuter1" values="0 0 0 0 0   0 0 0 0 0   0 0 0 0 0  0 0 0 0.231855752 0"/>
    </filter>
  </defs>
  <g fill="none" fill-rule="evenodd">
    <path fill="url(#icon-data-enrichment-a)" d="M24,48 C37.254834,48 48,37.254834 48,24 C48,10.745166 37.254834,0 24,0 C10.745166,0 0,10.745166 0,24 C0,37.254834 10.745166,48 24,48 Z"/>
    <path fill="url(#icon-data-enrichment-b)" d="M18.2966266,46.4136429 C11.9533645,45.3388491 8.02389069,43.99591 6.50820516,42.3848256 C4.99251962,40.7737412 3.65410957,38.9802339 2.49297499,37.0043039 L11.381891,27.3110665 L16.1482484,31.3491525 L30.7820375,33.594758 L18.2966266,46.4136429 Z" opacity=".214" style="mix-blend-mode:multiply" transform="rotate(10 16.638 36.862)"/>
    <g fill-rule="nonzero">
      <use fill="#000" filter="url(#icon-data-enrichment-c)" xlink:href="#icon-data-enrichment-d"/>
      <use fill="url(#icon-data-enrichment-e)" fill-rule="evenodd" xlink:href="#icon-data-enrichment-d"/>
    </g>
  </g>
</svg>
