<svg xmlns="http://www.w3.org/2000/svg" xmlns:xlink="http://www.w3.org/1999/xlink" width="50" height="48" viewBox="0 0 50 48">
  <defs>
    <linearGradient id="icon-continuous-improvement-a" x1="38.257%" x2="68.595%" y1="21.37%" y2="87.321%">
      <stop offset="0%" stop-color="#5CC7B0"/>
      <stop offset="100%" stop-color="#DCE900"/>
    </linearGradient>
    <linearGradient id="icon-continuous-improvement-b" x1="5.551%" x2="82.338%" y1="84.456%" y2="4.82%">
      <stop offset="0%" stop-opacity="0"/>
      <stop offset="57.626%" stop-opacity=".855"/>
      <stop offset="100%" stop-opacity=".398"/>
    </linearGradient>
    <linearGradient id="icon-continuous-improvement-e" x1="34.845%" x2="50%" y1="94.107%" y2="58.279%">
      <stop offset="0%" stop-color="#CBCBCB"/>
      <stop offset="100%" stop-color="#FFF"/>
    </linearGradient>
    <path id="icon-continuous-improvement-d" d="M38.2628867,27.9053608 C38.6889246,27.9796083 38.9999085,28.3493965 39.0000001,28.7818557 L39.0000001,29.7628866 C38.9999085,30.1953458 38.6889246,30.5651339 38.2628867,30.6393815 L37.1049486,30.8430928 C36.9692496,31.3477237 36.7683108,31.8324999 36.5072166,32.2851546 L37.1826805,33.2474227 C37.4317629,33.601497 37.3899031,34.08345 37.0835053,34.3892784 L36.3892785,35.0835052 C36.0834501,35.389903 35.6014971,35.4317628 35.2474228,35.1826804 L34.2851548,34.5072165 C33.8325678,34.7684482 33.3477731,34.9693947 32.8430929,35.1049485 L32.6393816,36.2628866 C32.5651341,36.6889245 32.1953459,36.9999084 31.7628867,37 L30.7818558,37 C30.3493966,36.9999084 29.9796085,36.6889245 29.9053609,36.2628866 L29.7016496,35.1049485 C29.1969793,34.9693656 28.7121883,34.7684206 28.2595877,34.5072165 L27.2973197,35.1826804 C26.9432454,35.4317628 26.4612924,35.389903 26.155464,35.0835052 L25.4639176,34.3892784 C25.1575198,34.08345 25.11566,33.601497 25.3647424,33.2474227 L26.0402063,32.2851546 C25.8431279,31.9358416 25.681498,31.5676846 25.5577321,31.1861856 C25.8446963,30.8305747 26.0373697,30.4083525 26.1179383,29.9585567 L26.2117527,29.4224742 L26.4985568,29.3045361 L26.9408249,29.628866 C27.399088,29.9511181 27.9459628,30.1234211 28.5061857,30.1220619 C28.5946393,30.1220619 28.6777321,30.1059794 28.7742269,30.0979382 C29.1598268,31.2857484 30.3242235,32.041538 31.5661198,31.9101074 C32.8080161,31.7786767 33.7884193,30.7959015 33.9168486,29.5536913 C34.0452779,28.311481 33.2866768,27.1489141 32.0979383,26.7661856 C32.1649482,26.120371 31.9985526,25.4719034 31.6288661,24.9381443 L31.3179383,24.4958763 C31.3590379,24.4011684 31.3983506,24.305567 31.4358764,24.2090722 L31.9719589,24.1152577 C32.4217894,24.0348004 32.8440382,23.8421149 33.1995878,23.5550516 C33.5810676,23.6788678 33.9492197,23.8404955 34.2985568,24.0375258 L35.2608249,23.3620619 C35.6148991,23.1129795 36.0968522,23.1548393 36.4026805,23.4612371 L37.0969073,24.1554639 C37.4033052,24.4612923 37.445165,24.9432453 37.1960826,25.2973196 L36.5072166,26.2595876 C36.7684207,26.7121882 36.9693657,27.1969792 37.1049486,27.7016495 L38.2628867,27.9053608 Z M22.807629,23.4639175 C24.2761371,23.4639175 25.4665981,22.2734565 25.4665981,20.8049485 C25.4665981,19.3364404 24.2761371,18.1459794 22.807629,18.1459794 C21.3391209,18.1459794 20.1486599,19.3364404 20.1486599,20.8049485 C20.1501374,22.2728441 21.3397334,23.46244 22.807629,23.4639175 L22.807629,23.4639175 Z M13.0000001,21.432165 L13.0000001,20.1857732 C12.9997555,19.6353365 13.3957784,19.164635 13.9381444,19.0707217 L15.4070104,18.8026804 C15.5789561,18.161975 15.8339716,17.5465135 16.1655671,16.9719588 L15.3078352,15.7496907 C14.9934634,15.3004533 15.0465574,14.6904378 15.4338145,14.302268 L16.3156702,13.4204124 C16.7038399,13.0331552 17.3138555,12.9800613 17.7630929,13.294433 L18.9853609,14.152165 C19.5600107,13.8207621 20.1754463,13.5657574 20.8160826,13.3936082 L21.0841238,11.9247423 C21.1828453,11.3926503 21.6446241,11.0050258 22.1857733,11 L23.4321651,11 C23.9815891,11.001058 24.4507964,11.396775 24.5445362,11.9381443 L24.8125774,13.4070103 C25.4532532,13.5790433 26.0687036,13.8340542 26.6432991,14.165567 L27.8655671,13.3078351 C28.3148046,12.9934633 28.9248201,13.0465573 29.3129898,13.4338144 L30.1948455,14.3156701 C30.5821027,14.7038398 30.6351966,15.3138554 30.3208249,15.7630928 L29.4630929,16.9853608 C29.7945507,17.5599835 30.0495585,18.1754265 30.2216496,18.8160825 L31.6905156,19.0841237 C32.2308197,19.1790186 32.62515,19.6479213 32.6259795,20.1964948 L32.6259795,21.4428866 C32.62515,21.9914601 32.2308197,22.4603628 31.6905156,22.5552577 L30.2216496,22.823299 C30.0495295,23.4639451 29.7945232,24.0793844 29.4630929,24.6540206 L30.3208249,25.8762887 C30.6351966,26.3255261 30.5821027,26.9355416 30.1948455,27.3237113 L29.3129898,28.205567 C28.9248201,28.5928242 28.3148046,28.6459181 27.8655671,28.3315464 L26.6432991,27.4738144 C26.0687579,27.8054376 25.4532928,28.0604546 24.8125774,28.2323711 L24.5445362,29.7012371 C24.4496413,30.2415413 23.9807386,30.6358715 23.4321651,30.636701 L22.1857733,30.636701 C21.6371998,30.6358715 21.1682971,30.2415413 21.0734022,29.7012371 L20.8053609,28.2323711 C20.1646654,28.0603964 19.5492077,27.8053824 18.9746393,27.4738144 L17.7523712,28.3315464 C17.3031338,28.6459181 16.6931183,28.5928242 16.3049486,28.205567 L15.4230929,27.3237113 C15.0358357,26.9355416 14.9827418,26.3255261 15.2971135,25.8762887 L16.1548455,24.6540206 C15.8232775,24.0794523 15.5682636,23.4639945 15.3962888,22.823299 L13.9381444,22.5445361 C13.3967751,22.4507963 13.0010581,21.981589 13.0000001,21.432165 Z M18.4519589,20.8076289 C18.4508748,22.5709045 19.5123553,24.1611091 21.1412023,24.8363864 C22.7700493,25.5116636 24.6453034,25.138952 25.8921278,23.8921277 C27.1389522,22.6453033 27.5116637,20.7700492 26.8363865,19.1412022 C26.1611093,17.5123552 24.5709046,16.4508747 22.807629,16.4519588 C20.4038943,16.4563842 18.4563843,18.4038942 18.4519589,20.8076289 Z"/>
    <filter id="icon-continuous-improvement-c" width="115.4%" height="115.4%" x="-7.7%" y="-3.8%" filterUnits="objectBoundingBox">
      <feOffset dy="1" in="SourceAlpha" result="shadowOffsetOuter1"/>
      <feGaussianBlur in="shadowOffsetOuter1" result="shadowBlurOuter1" stdDeviation=".5"/>
      <feColorMatrix in="shadowBlurOuter1" values="0 0 0 0 0   0 0 0 0 0   0 0 0 0 0  0 0 0 0.117697011 0"/>
    </filter>
  </defs>
  <g fill="none" fill-rule="evenodd">
    <path fill="url(#icon-continuous-improvement-a)" d="M26,48 C39.254834,48 50,37.254834 50,24 C50,10.745166 39.254834,0 26,0 C12.745166,0 2,10.745166 2,24 C2,37.254834 12.745166,48 26,48 Z" transform="matrix(1 0 0 -1 0 48)"/>
    <path fill="url(#icon-continuous-improvement-b)" d="M24.2285156,47.6494141 C16.0541041,45.6662528 11.216539,43.7596208 9.71582031,41.9295183 C8.21510164,40.0994157 5.26523185,37.2736258 0.866210938,33.4521484 L13.6982422,18.7265625 C23.5008582,16.286684 28.833215,15.7411111 29.6953125,17.0898437 C30.3924238,18.1804592 27.8842569,18.2862558 31.0732422,21.75 C31.5764028,22.2965122 33.510322,26.5341424 36.875,34.4628906 L24.2285156,47.6494141 Z" opacity=".203" style="mix-blend-mode:multiply"/>
    <g fill-rule="nonzero">
      <use fill="#000" filter="url(#icon-continuous-improvement-c)" xlink:href="#icon-continuous-improvement-d"/>
      <use fill="url(#icon-continuous-improvement-e)" fill-rule="evenodd" xlink:href="#icon-continuous-improvement-d"/>
    </g>
  </g>
</svg>
