<?xml version="1.0" encoding="UTF-8"?>
<svg width="23px" height="32px" viewBox="0 0 23 32" version="1.1" xmlns="http://www.w3.org/2000/svg" xmlns:xlink="http://www.w3.org/1999/xlink">
    <!-- Generator: Sketch 46.2 (44496) - http://www.bohemiancoding.com/sketch -->
    <title>Group 25</title>
    <desc>Created with Sketch.</desc>
    <defs></defs>
    <g id="Page-1" stroke="none" stroke-width="1" fill="none" fill-rule="evenodd">
        <g id="V1---Desktop" transform="translate(-1050.000000, -1240.000000)" fill-rule="nonzero" fill="#0097A8">
            <g id="Section:-Intro" transform="translate(117.000000, 839.000000)">
                <g id="Benefit-Columns" transform="translate(1.000000, 394.000000)">
                    <g id="Group-31" transform="translate(930.000000, 7.000000)">
                        <g id="Group-25" transform="translate(2.000000, 0.000000)">
                            <path d="M22.0330907,10.6035769 C22.0330907,4.75849566 17.08927,0 11.0165454,0 C4.94382071,0 0,4.75849566 0,10.6035769 C0,13.638523 1.36247027,16.4111897 3.50349499,18.3595502 L2.9974346,30.068447 C2.9974346,30.4806001 3.26992866,30.8927533 3.65920588,31.0426272 C4.0484831,31.1925011 4.47668805,31.1550326 4.82703754,30.8927533 L11.0554731,26.8461586 L17.2449809,30.9302218 C17.4396195,31.0800956 17.7121136,31.1550326 17.9456799,31.1550326 C18.1013908,31.1550326 18.2571017,31.1175641 18.4128126,31.0426272 C18.8020898,30.8552848 19.0745838,30.4806001 19.0745838,30.0309785 L18.5685235,18.3595502 C20.7095482,16.4111897 22.0330907,13.6759915 22.0330907,10.6035769 Z M11.7172444,25.4972937 C11.2890394,25.1975459 10.7440513,25.1975459 10.3158464,25.4972937 L4.55454349,29.2441406 L4.98274843,19.4836043 C6.73449593,20.5701899 8.7976652,21.2071539 11.0165454,21.2071539 C13.2354255,21.2071539 15.2985948,20.5701899 17.0503423,19.4836043 L17.4785472,29.2441406 L11.7172444,25.4972937 Z M11.0165454,19.7458835 C5.8002306,19.7458835 1.55710889,15.6618203 1.55710889,10.6410454 C1.55710889,5.62027046 5.8002306,1.49873879 11.0165454,1.49873879 C16.2328601,1.49873879 20.4759818,5.58280199 20.4759818,10.6035769 C20.4759818,15.6243519 16.2328601,19.7458835 11.0165454,19.7458835 Z" id="Shape"></path>
                            <polygon id="Shape" points="9.62027816 12.308874 7.08997622 9.83595502 6 10.9225406 9.62027816 14.4071083 15.1869424 9.04911715 14.0969662 8"></polygon>
                        </g>
                    </g>
                </g>
            </g>
        </g>
    </g>
</svg>