<svg xmlns="http://www.w3.org/2000/svg" width="77" height="77" viewBox="0 0 77 77">
  <g fill="none" fill-rule="evenodd">
    <path fill="#1681FF" fill-rule="nonzero" d="M34.7712598 57.1133858C34.7712598 57.1133858 31.0425197 62.767126 31.0425197 64.3889764 31.0425197 66.4807087 32.7098425 68.1783465 34.7712598 68.1783465 36.8326772 68.1783465 38.5 66.4807087 38.5 64.3889764 38.5 62.767126 34.7712598 57.1133858 34.7712598 57.1133858zM34.7712598 65.6318898C34.0891732 65.6318898 33.5283465 65.071063 33.5283465 64.3738189 33.5435039 63.9948819 34.0588583 62.8883858 34.7712598 61.6606299 35.4836614 62.8883858 35.9990157 63.9797244 36.0141732 64.3738189 36.0141732 65.071063 35.4533465 65.6318898 34.7712598 65.6318898zM19.8714567 57.1133858C19.8714567 57.1133858 16.1427165 62.767126 16.1427165 64.3889764 16.1427165 66.4807087 17.8100394 68.1783465 19.8714567 68.1783465 21.932874 68.1783465 23.6001969 66.4807087 23.6001969 64.3889764 23.6001969 62.767126 19.8714567 57.1133858 19.8714567 57.1133858zM19.8714567 65.6318898C19.1893701 65.6318898 18.6285433 65.071063 18.6285433 64.3738189 18.6437008 63.9948819 19.1590551 62.8883858 19.8714567 61.6606299 20.5838583 62.8883858 21.0992126 63.9797244 21.1143701 64.3738189 21.1143701 65.071063 20.5535433 65.6318898 19.8714567 65.6318898zM49.671063 57.1133858C49.671063 57.1133858 45.9423228 62.767126 45.9423228 64.3889764 45.9423228 66.4807087 47.6096457 68.1783465 49.671063 68.1783465 51.7324803 68.1783465 53.3998031 66.4807087 53.3998031 64.3889764 53.3998031 62.767126 49.671063 57.1133858 49.671063 57.1133858zM49.671063 65.6318898C48.9889764 65.6318898 48.4281496 65.071063 48.4281496 64.3738189 48.4433071 63.9948819 48.9586614 62.8883858 49.671063 61.6606299 50.3834646 62.8883858 50.8988189 63.9797244 50.9139764 64.3738189 50.9139764 65.071063 50.3683071 65.6318898 49.671063 65.6318898zM60.8572835 64.3738189C60.8572835 66.4655512 62.5246063 68.163189 64.5860236 68.163189 66.6474409 68.163189 68.3147638 66.4655512 68.3147638 64.3738189 68.3147638 62.767126 64.5860236 57.0982283 64.5860236 57.0982283 64.5860236 57.0982283 60.8572835 62.767126 60.8572835 64.3738189zM64.5860236 65.6318898C63.903937 65.6318898 63.3431102 65.071063 63.3431102 64.3738189 63.3582677 63.9948819 63.873622 62.8883858 64.5860236 61.6606299 65.2984252 62.8883858 65.8137795 63.9797244 65.828937 64.3738189 65.828937 65.071063 65.2681102 65.6318898 64.5860236 65.6318898zM23.6001969 73.2106299C23.6001969 75.3023622 25.2675197 77 27.328937 77 29.3903543 77 31.0576772 75.3023622 31.0576772 73.2106299 31.0576772 71.603937 27.328937 65.9350394 27.328937 65.9350394 27.328937 65.9350394 23.6001969 71.603937 23.6001969 73.2106299zM27.328937 74.4687008C26.6468504 74.4687008 26.0860236 73.907874 26.0860236 73.2106299 26.1011811 72.8316929 26.6165354 71.7251969 27.328937 70.4974409 28.0413386 71.7251969 28.5566929 72.8165354 28.5718504 73.2106299 28.5718504 73.907874 28.0110236 74.4687008 27.328937 74.4687008zM38.5 73.2106299C38.5 75.3023622 40.1673228 77 42.2287402 77 44.2901575 77 45.9574803 75.3023622 45.9574803 73.2106299 45.9574803 71.603937 42.2287402 65.9350394 42.2287402 65.9350394 42.2287402 65.9350394 38.5 71.603937 38.5 73.2106299zM42.2287402 74.4687008C41.5466535 74.4687008 40.9858268 73.907874 40.9858268 73.2106299 41.0009843 72.8316929 41.5163386 71.7251969 42.2287402 70.4974409 42.9411417 71.7251969 43.4564961 72.8165354 43.4716535 73.2106299 43.4716535 73.907874 42.9108268 74.4687008 42.2287402 74.4687008zM53.3998031 73.2106299C53.3998031 75.3023622 55.067126 77 57.1285433 77 59.1899606 77 60.8572835 75.3023622 60.8572835 73.2106299 60.8572835 71.603937 57.1285433 65.9350394 57.1285433 65.9350394 57.1285433 65.9350394 53.3998031 71.603937 53.3998031 73.2106299zM57.1285433 74.4687008C56.4464567 74.4687008 55.8856299 73.907874 55.8856299 73.2106299 55.9007874 72.8316929 56.4161417 71.7251969 57.1285433 70.4974409 57.8409449 71.7251969 58.3562992 72.8165354 58.3714567 73.2106299 58.3714567 73.907874 57.8106299 74.4687008 57.1285433 74.4687008z"/>
    <rect width="2.486" height="5.047" x="16.143" fill="#EEB707" fill-rule="nonzero"/>
    <polygon fill="#EEB707" fill-rule="nonzero" points="30.557 6.063 28.799 4.29 25.298 7.852 27.041 9.64"/>
    <polygon fill="#EEB707" fill-rule="nonzero" points="7.73 25.707 4.214 29.269 5.972 31.058 9.489 27.496"/>
    <rect width="4.972" height="2.531" y="16.416" fill="#EEB707" fill-rule="nonzero"/>
    <polygon fill="#EEB707" fill-rule="nonzero" points="9.489 7.852 5.972 4.29 4.214 6.063 7.73 9.64"/>
    <path fill="#384553" fill-rule="nonzero" d="M48.3220472,15.021063 L48.3220472,17.5523622 C54.3547244,17.5523622 59.2809055,22.4785433 59.2809055,28.5415354 L61.7667323,28.5415354 C61.7515748,21.0688976 55.7340551,15.021063 48.3220472,15.021063 Z"/>
    <path fill="#FFC200" stroke="#FFC200" d="M17.1111111,24.4444444 C19.2112311,24.4444444 20.6631062,19.7480864 22,18.3333333 C23.2413103,17.0197305 24.4444444,17.1111111 24.4444444,17.1111111 C28.4945326,17.1111111 21.1611993,9.77777778 17.1111111,9.77777778 C13.0610229,9.77777778 9.77777778,13.0610229 9.77777778,17.1111111 C9.77777778,21.1611993 13.0610229,24.4444444 17.1111111,24.4444444 Z"/>
    <path fill="#384553" fill-rule="nonzero" d="M67.8448819,27.9807087 C67.5568898,17.4007874 58.917126,8.88228346 48.3220472,8.88228346 C43.4564961,8.88228346 38.848622,10.6708661 35.2562992,13.9448819 C30.9364173,13.1112205 28.3141732,13.7629921 26.8287402,14.263189 C25.434252,10.2616142 21.6751969,7.4726378 17.3856299,7.4726378 C11.8531496,7.4726378 7.36653543,12.0501969 7.36653543,17.6584646 C7.36653543,23.0090551 11.4590551,27.4047244 16.6277559,27.8139764 C16.6277559,27.8746063 16.6125984,27.9200787 16.6125984,27.9807087 C11.171063,29.8299213 7.45748031,34.9531496 7.45748031,40.773622 C7.45748031,48.2159449 13.4901575,54.278937 20.8870079,54.278937 L63.5704724,54.278937 C70.9824803,54.278937 77,48.2159449 77,40.773622 C77,34.9531496 73.2864173,29.8299213 67.8448819,27.9807087 Z M9.8523622,17.673622 C9.8523622,13.444685 13.2324803,10.003937 17.3856299,10.003937 C20.6596457,10.003937 23.5244094,12.1562992 24.5248031,15.2484252 C20.7051181,17.294685 17.8858268,20.9627953 16.946063,25.3129921 C12.9899606,25.0856299 9.8523622,21.7509843 9.8523622,17.673622 Z M63.5704724,51.7476378 L20.8870079,51.7476378 C14.8543307,51.7476378 9.92814961,46.8214567 9.92814961,40.7584646 C9.92814961,35.7564961 13.3082677,31.3911417 18.1586614,30.1330709 L19.1135827,29.8905512 L19.0681102,28.5112205 C19.0681102,21.6145669 24.6612205,15.9911417 31.5427165,15.9911417 C33.7860236,15.9911417 35.9080709,16.7641732 35.9080709,16.7641732 L36.4385827,16.2488189 C39.636811,13.126378 43.865748,11.3984252 48.3068898,11.3984252 C57.7045276,11.3984252 65.3590551,19.0681102 65.3438976,28.6324803 C65.3438976,28.7234252 65.3135827,29.8905512 65.3135827,29.8905512 L66.2685039,30.1330709 C71.1188976,31.3911417 74.4990157,35.7564961 74.4990157,40.7584646 C74.5141732,46.8214567 69.6031496,51.7476378 63.5704724,51.7476378 Z"/>
  </g>
</svg>
