<svg xmlns="http://www.w3.org/2000/svg" width="44" height="44" viewBox="0 0 44 44">
    <g fill="none" fill-rule="evenodd" opacity=".968">
        <path d="M0 0h44v44H0z"/>
        <circle cx="22" cy="22" r="22" fill="#000" fill-opacity=".143"/>
        <path fill="#FFF" d="M13.008 12v3.626c8.466.006 15.348 6.9 15.356 15.374H32c-.002-5.237-2.131-9.983-5.572-13.426-3.44-3.441-8.184-5.572-13.42-5.574zm-.006 6.461v3.628a8.843 8.843 0 0 1 6.284 2.61 8.866 8.866 0 0 1 2.607 6.294V31h3.646a12.51 12.51 0 0 0-3.68-8.859 12.49 12.49 0 0 0-8.857-3.68zm.738 11.78v-.002h-.002l.002.001zm3.565-3.554a2.5 2.5 0 0 1 .003 3.552l-.003.001a2.512 2.512 0 0 1-1.783.738 2.513 2.513 0 0 1-1.782-.739 2.496 2.496 0 0 1-.74-1.774c0-.695.283-1.32.74-1.778a2.514 2.514 0 0 1 1.782-.74c.698 0 1.325.283 1.783.74z" opacity=".851"/>
    </g>
</svg>
