<?xml version="1.0" encoding="UTF-8"?>
<svg width="36px" height="28px" viewBox="0 0 36 28" version="1.1" xmlns="http://www.w3.org/2000/svg" xmlns:xlink="http://www.w3.org/1999/xlink">
    <!-- Generator: Sketch 46.2 (44496) - http://www.bohemiancoding.com/sketch -->
    <title>my_icon</title>
    <desc>Created with Sketch.</desc>
    <defs>
        <path d="M15.0297779,8.8817842e-15 L31.0351399,8.8817842e-15 L31.0351399,9.76996262e-15 C32.6898987,9.46598836e-15 34.0321749,1.33987709 34.0351351,2.99463322 L34.0656666,20.0615234 L33.1910952,23.8635026 L33.1910952,23.8635026 C32.8753225,25.236245 31.6470258,26.2044282 30.2384985,26.190835 L7.03877716,25.9669417 L7.03877686,25.9669729 C7.01715334,25.9667642 6.99979318,25.9490657 7.00000186,25.9274422 C7.00021054,25.9058186 7.01790904,25.8884585 7.03953256,25.8886672 C7.04492464,25.8887192 7.05024785,25.8898844 7.05516856,25.8920898 C7.05516856,25.8920898 7.05516856,25.8920898 7.05516856,25.8920898 C7.63475841,26.1518555 12.0143971,22.5419922 11.8613209,20.8913574 C12.0644459,20.1302897 12.1205983,19.5830892 12.0297779,19.2497559 L12.0297779,3 L12.0297779,3 C12.0297779,1.34314575 13.3729237,-9.45701653e-15 15.0297779,-3.33066907e-14 Z" id="path-1"></path>
    </defs>
    <g id="Page-1" stroke="none" stroke-width="1" fill="none" fill-rule="evenodd">
        <g id="V1---Desktop" transform="translate(-120.000000, -1239.000000)">
            <g id="Section:-Intro" transform="translate(117.000000, 839.000000)">
                <g id="Benefit-Columns" transform="translate(1.000000, 394.000000)">
                    <g id="Group-27" transform="translate(0.000000, 6.000000)">
                        <g id="Group-26" transform="translate(3.000000, 0.000000)">
                            <g id="my_icon">
                                <g id="Icon">
                                    <g id="Rectangle-16">
                                        <use fill="#FFFFFF" fill-rule="evenodd" xlink:href="#path-1"></use>
                                        <path stroke="#3EA7B7" stroke-width="1.4" d="M7.16410461,26.5768765 C7.01171762,26.5937823 6.87833645,26.5799262 6.76887579,26.5308671 C6.89684876,26.577923 6.89684876,26.577923 7.03277739,26.5886346 C7.07769911,26.5890681 7.12161716,26.5850091 7.16410461,26.5768765 Z M9.4609594,25.2902848 L30.2452536,25.4908676 C31.3251246,25.5012891 32.2668188,24.7590152 32.5089112,23.7065794 L33.3655244,19.9826686 L33.3351362,2.99588547 C33.3328667,1.7272391 32.3037883,0.7 31.0351399,0.7 L15.0297779,0.7 C13.759523,0.7 12.7297779,1.72974508 12.7297779,3 L12.7297779,19.169046 C12.8231202,19.6225666 12.7595991,20.2121346 12.5625985,20.9767487 C12.5265806,22.1333262 10.9872271,24.0279333 9.4609594,25.2902848 Z"></path>
                                    </g>
                                    <g id="Group-2">
                                        <path d="M31.5,1.5 L14.4706136,1.5" id="Line-3" stroke="#41A8B8" stroke-linecap="square"></path>
                                        <path d="M32.3325195,25.2080078 C30.390625,25.8614909 27.7764486,26.1882324 24.4899902,26.1882324 C21.2035319,26.1882324 14.8301248,26.1882324 5.36976905,26.1882324 C2.0264139,24.5327962 0.354736328,22.5397135 0.354736328,20.2089844 C0.354736328,17.8782552 0.281656901,13.9929199 0.135498047,8.55297852 C1.62280273,6.18432617 3.46459961,5 5.66088867,5 C8.95532227,5 9.38208008,7.7878418 9.38208008,8.21459961 C9.38208008,8.49910482 9.38208008,12.066803 9.38208008,18.9176941 C9.04077148,20.1317444 8.40332031,20.7387695 7.46972656,20.7387695 C6.06933594,20.7387695 4.4597168,19.9662476 4.4597168,18.9176941 C4.4597168,18.2186585 4.4597168,14.9836763 4.4597168,9.21274768" id="Path-4" stroke="#3EA7B7" stroke-width="2"></path>
                                    </g>
                                    <text id="$" font-family="Montserrat-SemiBold, Montserrat" font-size="14" font-weight="500" letter-spacing="0.323076934" fill="#3EA7B7">
                                        <tspan x="18" y="18">$</tspan>
                                    </text>
                                </g>
                            </g>
                        </g>
                    </g>
                </g>
            </g>
        </g>
    </g>
</svg>