<?xml version="1.0" encoding="UTF-8"?>
<svg width="124px" height="21px" viewBox="0 0 124 21" version="1.1" xmlns="http://www.w3.org/2000/svg" xmlns:xlink="http://www.w3.org/1999/xlink">
    <!-- Generator: Sketch 51.2 (57519) - http://www.bohemiancoding.com/sketch -->
    <title>StatEngine</title>
    <desc>Created with Sketch.</desc>
    <defs></defs>
    <g id="Symbols" stroke="none" stroke-width="1" fill="none" fill-rule="evenodd">
        <g id="Sidebar-Header---Pinned" transform="translate(-53.000000, -24.000000)" fill="#FFFFFF">
            <g id="Logo/Branding">
                <g transform="translate(18.000000, 8.000000)">
                    <path d="M35,29.3780233 C35,28.9519542 35.2197555,28.5914396 35.659273,28.2964687 C35.8959363,28.1489833 36.1410481,28.0752417 36.3946159,28.0752417 C36.7496108,28.0752417 37.0876962,28.2309184 37.408882,28.5422766 C37.9160176,29.050282 38.444276,29.4271836 38.9936729,29.6729927 C39.5430698,29.9188018 40.2065622,30.0417045 40.9841701,30.0417045 C42.3027227,29.9925427 42.9619891,29.5091254 42.9619891,28.5914382 C42.9619891,28.1162073 42.7380075,27.7556927 42.2900378,27.5098836 C41.842068,27.2640745 41.144767,27.0182691 40.1981139,26.7724601 C39.2176517,26.5102637 38.4189251,26.2480713 37.8019102,25.9858749 C37.1848952,25.7236786 36.6524108,25.3262932 36.204441,24.7937068 C35.7564712,24.2611205 35.5324897,23.5441881 35.5324897,22.6428881 C35.5324897,21.8562991 35.7649234,21.1721407 36.2297977,20.5903926 C36.694672,20.0086444 37.3032256,19.5580012 38.0554767,19.2384494 C38.8077278,18.9188976 39.6064544,18.7591241 40.4516804,18.7591241 C41.3138109,18.7591241 42.1759285,18.9148008 43.038059,19.226159 C43.9001896,19.5375172 44.5763602,19.9963539 45.0665913,20.602683 C45.28635,20.8648793 45.3962278,21.1598458 45.3962278,21.4875912 C45.3962278,21.8644985 45.2356372,22.175852 44.9144514,22.4216611 C44.6777881,22.6019211 44.4073198,22.6920497 44.1030385,22.6920497 C43.731139,22.6920497 43.4268622,22.5773405 43.190199,22.3479187 C42.8859176,21.9873987 42.4928934,21.7006258 42.0111146,21.4875912 C41.5293358,21.2745567 40.9841732,21.168041 40.3756105,21.168041 C39.0908669,21.168041 38.4485048,21.6186843 38.4485048,22.5199842 C38.4485048,22.8805042 38.5668347,23.1713739 38.803498,23.3926021 C39.0401612,23.6138303 39.340212,23.785894 39.7036592,23.9087986 C40.0671063,24.0317031 40.5784604,24.1832831 41.2377367,24.3635431 C42.1505807,24.6093522 42.9112727,24.8633511 43.5198354,25.1255474 C44.1283982,25.3877438 44.6439783,25.7892259 45.0665913,26.3300059 C45.4892043,26.8707859 45.7005076,27.5836215 45.7005076,28.4685342 C45.7005076,29.2715106 45.4553958,29.9720559 44.9651647,30.5701914 C44.4749336,31.1683268 43.8452497,31.6230668 43.076094,31.9344249 C42.3069384,32.2457831 41.5166639,32.4014599 40.705247,32.4014599 C39.5895486,32.4014599 38.5499363,32.2212026 37.5863786,31.8606826 C36.622821,31.5001626 35.8367726,30.9184232 35.2282099,30.1154468 C35.0760692,29.9187996 35,29.6729942 35,29.3780233 Z M55.3732128,29.6545985 C55.5702525,29.8753296 55.6687708,30.1655456 55.6687708,30.5252555 C55.6687708,30.9667175 55.4160498,31.3386846 54.9106003,31.6411679 C54.4051507,31.9436511 53.8354576,32.0948905 53.2015039,32.0948905 C52.1392032,32.0948905 51.2439712,31.8782503 50.5157811,31.4449635 C49.7875911,31.0116767 49.4235015,30.0919778 49.4235015,28.6858394 L49.4235015,21.9167883 L48.2412695,21.9167883 C47.8300563,21.9167883 47.4873837,21.7859867 47.2132416,21.5243796 C46.9390995,21.2627724 46.8020305,20.9357684 46.8020305,20.5433577 C46.8020305,20.1672974 46.9390995,19.852556 47.2132416,19.5991241 C47.4873837,19.3456922 47.8300563,19.2189781 48.2412695,19.2189781 L49.4235015,19.2189781 L49.4235015,17.6493431 C49.4235015,17.2242315 49.5734208,16.8686146 49.8732637,16.5824818 C50.1731067,16.2963489 50.545763,16.1532847 50.991244,16.1532847 C51.4195911,16.1532847 51.7793973,16.2963489 52.0706733,16.5824818 C52.3619493,16.8686146 52.5075851,17.2242315 52.5075851,17.6493431 L52.5075851,19.2189781 L54.3323346,19.2189781 C54.7435478,19.2189781 55.0862203,19.3497797 55.3603625,19.6113869 C55.6345046,19.872994 55.7715736,20.199998 55.7715736,20.5924088 C55.7715736,20.968469 55.6345046,21.2832104 55.3603625,21.5366423 C55.0862203,21.7900743 54.7435478,21.9167883 54.3323346,21.9167883 L52.5075851,21.9167883 L52.5075851,28.5632117 C52.5075851,28.9065711 52.6018201,29.1559116 52.7902928,29.3112409 C52.9787655,29.4665701 53.2357699,29.5442336 53.5613137,29.5442336 C53.6983848,29.5442336 53.8868546,29.5115332 54.126729,29.4461314 C54.3323356,29.3643792 54.5293723,29.3235036 54.717845,29.3235036 C54.9577194,29.3235036 55.1761731,29.4338675 55.3732128,29.6545985 Z M70.4536305,19.1769974 C70.73666,19.4555811 70.8781726,19.8160956 70.8781726,20.258552 L70.8781726,30.6562241 C70.8781726,31.0822932 70.73666,31.438711 70.4536305,31.7254883 C70.170601,32.0122655 69.8126573,32.155652 69.3797886,32.155652 C68.94692,32.155652 68.5931384,32.0163623 68.3184333,31.7377787 C68.0437282,31.459195 67.8980534,31.106874 67.8814046,30.6808049 C67.4651848,31.1560358 66.9032964,31.5616147 66.1957226,31.8975538 C65.4881489,32.2334928 64.7431265,32.4014599 63.9606332,32.4014599 C62.8118664,32.4014599 61.7713324,32.1105901 60.8389999,31.528842 C59.9066674,30.9470938 59.1699693,30.1400328 58.6288835,29.1076346 C58.0877977,28.0752365 57.8172589,26.9035641 57.8172589,25.5925824 C57.8172589,24.2816006 58.0836356,23.1058315 58.616397,22.0652397 C59.1491584,21.0246479 59.8775322,20.2134901 60.8015403,19.631742 C61.7255484,19.0499938 62.7452717,18.7591241 63.8607409,18.7591241 C64.6598831,18.7591241 65.4090676,18.9025106 66.1083169,19.1892878 C66.8075663,19.4760651 67.3985896,19.8406764 67.8814046,20.2831328 L67.8814046,20.258552 C67.8814046,19.8324829 68.0229173,19.4760651 68.3059468,19.1892878 C68.5889763,18.9025106 68.94692,18.7591241 69.3797886,18.7591241 C69.8126573,18.7591241 70.170601,18.8984138 70.4536305,19.1769974 Z M67.0327784,28.4686785 C67.708053,27.6862364 68.0456853,26.7020214 68.0456853,25.5160039 C68.0456853,24.3299864 67.708053,23.3416534 67.0327784,22.5509751 C66.3575037,21.7602967 65.4846008,21.3649635 64.4140434,21.3649635 C63.3599562,21.3649635 62.4952882,21.7602967 61.8200135,22.5509751 C61.1447389,23.3416534 60.8071066,24.3299864 60.8071066,25.5160039 C60.8071066,26.7020214 61.1406214,27.6862364 61.807661,28.4686785 C62.4747006,29.2511206 63.343486,29.6423358 64.4140434,29.6423358 C65.4846008,29.6423358 66.3575037,29.2511206 67.0327784,28.4686785 Z M81.6524006,29.6545985 C81.8494403,29.8753296 81.9479586,30.1655456 81.9479586,30.5252555 C81.9479586,30.9667175 81.6952376,31.3386846 81.1897881,31.6411679 C80.6843385,31.9436511 80.1146454,32.0948905 79.4806918,32.0948905 C78.418391,32.0948905 77.523159,31.8782503 76.7949689,31.4449635 C76.0667789,31.0116767 75.7026893,30.0919778 75.7026893,28.6858394 L75.7026893,21.9167883 L74.5204573,21.9167883 C74.1092441,21.9167883 73.7665716,21.7859867 73.4924294,21.5243796 C73.2182873,21.2627724 73.0812183,20.9357684 73.0812183,20.5433577 C73.0812183,20.1672974 73.2182873,19.852556 73.4924294,19.5991241 C73.7665716,19.3456922 74.1092441,19.2189781 74.5204573,19.2189781 L75.7026893,19.2189781 L75.7026893,17.6493431 C75.7026893,17.2242315 75.8526086,16.8686146 76.1524515,16.5824818 C76.4522945,16.2963489 76.8249509,16.1532847 77.2704318,16.1532847 C77.6987789,16.1532847 78.0585851,16.2963489 78.3498611,16.5824818 C78.6411371,16.8686146 78.7867729,17.2242315 78.7867729,17.6493431 L78.7867729,19.2189781 L80.6115224,19.2189781 C81.0227356,19.2189781 81.3654081,19.3497797 81.6395503,19.6113869 C81.9136924,19.872994 82.0507614,20.199998 82.0507614,20.5924088 C82.0507614,20.968469 81.9136924,21.2832104 81.6395503,21.5366423 C81.3654081,21.7900743 81.0227356,21.9167883 80.6115224,21.9167883 L78.7867729,21.9167883 L78.7867729,28.5632117 C78.7867729,28.9065711 78.8810079,29.1559116 79.0694806,29.3112409 C79.2579533,29.4665701 79.5149577,29.5442336 79.8405015,29.5442336 C79.9775726,29.5442336 80.1660425,29.5115332 80.4059168,29.4461314 C80.6115234,29.3643792 80.8085601,29.3235036 80.9970329,29.3235036 C81.2369072,29.3235036 81.455361,29.4338675 81.6524006,29.6545985 Z M95.3296123,29.1947445 C95.4143274,29.284672 95.4566843,29.3868607 95.4566843,29.5013139 C95.4566843,29.615767 95.4227988,29.7138682 95.3550267,29.7956204 C94.7959071,30.5150401 94.1012537,31.1036473 93.2710458,31.5614599 C92.4408378,32.0192724 91.5513427,32.2481752 90.6025336,32.2481752 C89.3318071,32.2481752 88.2051132,31.986572 87.2224181,31.4633577 C86.239723,30.9401434 85.4730629,30.1962092 84.9224148,29.2315328 C84.3717666,28.2668565 84.0964467,27.1468677 84.0964467,25.8715328 C84.0964467,24.5634971 84.3632953,23.4148955 84.8970004,22.4256934 C85.4307055,21.4364914 86.1380659,20.6802946 87.0191029,20.1570803 C87.9001399,19.633866 88.8404634,19.3722628 89.8401015,19.3722628 C90.8397397,19.3722628 91.7673561,19.5807278 92.6229785,19.9976642 C93.478601,20.4146006 94.1774901,21.0399958 94.7196667,21.8738686 C95.2618433,22.7077414 95.5498703,23.7378041 95.5837563,24.9640876 C95.5837563,25.0948912 95.532928,25.2134301 95.4312699,25.319708 C95.3296118,25.4259859 95.2110125,25.4791241 95.0754683,25.4791241 L85.0876084,25.4791241 L85.0876084,25.7979562 C85.0876084,26.8116839 85.2993929,27.7395578 85.7229684,28.5816058 C86.1465439,29.4236538 86.7734262,30.0899246 87.6036342,30.580438 C88.4338421,31.0709514 89.4334652,31.3162044 90.6025336,31.3162044 C91.4157985,31.3162044 92.1824586,31.1240895 92.9025369,30.739854 C93.6226153,30.3556185 94.1859622,29.8692 94.5925947,29.2805839 C94.7111958,29.1334299 94.8552093,29.059854 95.0246395,29.059854 C95.1432406,29.059854 95.2448972,29.1048171 95.3296123,29.1947445 Z M88.0674451,20.7639262 C87.4198981,21.0785648 86.848047,21.5464817 86.3518746,22.1676911 C85.8557022,22.7889005 85.523524,23.5432149 85.3553299,24.4306569 L94.6395939,24.4306569 L94.6395939,24.2128313 C94.5554969,23.3899306 94.2821857,22.6840214 93.8196521,22.0950826 C93.3571185,21.5061438 92.7852674,21.0583957 92.1040816,20.7518248 C91.4228958,20.4452539 90.7122867,20.2919708 89.972233,20.2919708 C89.349915,20.2919708 88.7149921,20.4492877 88.0674451,20.7639262 Z M107.983059,20.6536036 C108.738858,21.507835 109.116751,22.6183193 109.116751,23.9850896 L109.116751,31.453476 C109.116751,31.5836446 109.066365,31.6975404 108.965592,31.7951669 C108.864819,31.8927933 108.747252,31.9416058 108.612888,31.9416058 C108.461728,31.9416058 108.339962,31.8927933 108.247587,31.7951669 C108.155212,31.6975404 108.109025,31.5836446 108.109025,31.453476 L108.109025,24.0827156 C108.109025,22.9762825 107.810908,22.0691836 107.214667,21.3613918 C106.618426,20.6536 105.71568,20.2997094 104.506401,20.2997094 C103.767398,20.2997094 103.041002,20.4705532 102.327192,20.8122458 C101.613382,21.1539384 101.029746,21.6176571 100.576267,22.2034158 C100.122788,22.7891745 99.8960516,23.4156015 99.8960516,24.0827156 L99.8960516,31.453476 C99.8960516,31.5836446 99.8456658,31.6975404 99.7448926,31.7951669 C99.6441194,31.8927933 99.5265525,31.9416058 99.3921882,31.9416058 C99.2410285,31.9416058 99.1192627,31.8927933 99.0268873,31.7951669 C98.9345119,31.6975404 98.8883249,31.5836446 98.8883249,31.453476 L98.8883249,20.2508965 C98.8883249,20.1207279 98.9387107,20.006832 99.0394839,19.9092056 C99.1402571,19.8115791 99.257824,19.7627666 99.3921882,19.7627666 C99.543348,19.7627666 99.6651138,19.8115791 99.7574892,19.9092056 C99.8498646,20.006832 99.8960516,20.1207279 99.8960516,20.2508965 L99.8960516,21.8861314 C100.383122,21.153933 101.06753,20.5519122 101.949295,20.080051 C102.83106,19.6081898 103.717011,19.3722628 104.607174,19.3722628 C106.101976,19.3722628 107.22726,19.7993721 107.983059,20.6536036 Z M124.713313,19.9146547 C124.806299,20.0132719 124.852792,20.1283236 124.852792,20.2598132 L124.852792,30.8611097 C124.852792,32.110261 124.590744,33.1950339 124.06664,34.1154612 C123.542536,35.0358884 122.807111,35.7467434 121.860343,36.2480476 C120.913575,36.7493517 119.83157,37 118.614297,37 C117.938034,37 117.253328,36.9137112 116.560159,36.7411311 C115.866989,36.568551 115.296401,36.3466656 114.848376,36.0754683 C114.400352,35.804271 114.176343,35.5289688 114.176343,35.2495534 C114.176343,35.1180638 114.214383,35.0112301 114.290462,34.9290491 C114.366542,34.846868 114.472206,34.8057782 114.607459,34.8057782 C114.708898,34.8057782 114.861055,34.8879579 115.063934,35.0523199 C115.300626,35.2824268 115.562674,35.4550043 115.850086,35.5700577 C116.678508,35.8987817 117.616809,36.0631412 118.665017,36.0631412 C120.254235,36.0631412 121.513755,35.5864986 122.443617,34.6331989 C123.373479,33.6798993 123.838402,32.4225488 123.838402,30.8611097 L123.838402,29.1599714 C123.381925,30.2118883 122.676086,31.0008141 121.720865,31.5267725 C120.765643,32.0527309 119.763944,32.3157062 118.715736,32.3157062 C117.566089,32.3157062 116.522124,32.032186 115.583809,31.4651371 C114.645494,30.8980881 113.910069,30.1214893 113.377512,29.1353172 C112.844955,28.1491452 112.57868,27.0479363 112.57868,25.8316574 C112.57868,24.6153785 112.844955,23.5141696 113.377512,22.5279975 C113.910069,21.5418255 114.645494,20.7693357 115.583809,20.2105048 C116.522124,19.651674 117.566089,19.3722628 118.715736,19.3722628 C119.848477,19.3722628 120.883989,19.664001 121.822304,20.2474861 C122.760618,20.8309712 123.432645,21.5336083 123.838402,22.3554183 L123.838402,20.2598132 C123.838402,20.1283236 123.884895,20.0132719 123.977881,19.9146547 C124.070867,19.8160375 124.193438,19.7667296 124.345597,19.7667296 C124.497756,19.7667296 124.620327,19.8160375 124.713313,19.9146547 Z M121.256837,30.6279323 C122.034,30.1609067 122.644023,29.5095387 123.086923,28.6738088 C123.529822,27.8380788 123.751269,26.8794618 123.751269,25.7979289 C123.751269,24.716396 123.529822,23.757779 123.086923,22.922049 C122.644023,22.086319 122.034,21.4390477 121.256837,20.9802156 C120.479673,20.5213834 119.606421,20.2919708 118.637056,20.2919708 C117.66769,20.2919708 116.794439,20.5295767 116.017275,21.0047957 C115.240111,21.4800147 114.630089,22.1354794 114.187189,22.9712093 C113.744289,23.8069393 113.522843,24.7491697 113.522843,25.7979289 C113.522843,26.8466881 113.744289,27.7889185 114.187189,28.6246484 C114.630089,29.4603784 115.240111,30.1199397 116.017275,30.6033521 C116.794439,31.0867646 117.66769,31.3284672 118.637056,31.3284672 C119.606421,31.3284672 120.479673,31.0949579 121.256837,30.6279323 Z M129.58934,31.7951669 C129.494923,31.8927933 129.384772,31.9416058 129.258883,31.9416058 C129.117258,31.9416058 129.003173,31.8927933 128.916624,31.7951669 C128.830076,31.6975404 128.786802,31.5836446 128.786802,31.453476 L128.786802,19.8603926 C128.786802,19.730224 128.83401,19.6163282 128.928426,19.5187017 C129.022843,19.4210753 129.132994,19.3722628 129.258883,19.3722628 C129.400508,19.3722628 129.514593,19.4210753 129.601142,19.5187017 C129.687691,19.6163282 129.730964,19.730224 129.730964,19.8603926 L129.730964,31.453476 C129.730964,31.5836446 129.683757,31.6975404 129.58934,31.7951669 Z M128.732068,17.6094891 C128.558743,17.4562036 128.472081,17.2603418 128.472081,17.0218978 L128.472081,16.8175182 C128.472081,16.5790742 128.563304,16.3832124 128.745751,16.229927 C128.928199,16.0766416 129.165378,16 129.457294,16 C129.712721,16 129.927094,16.0766416 130.100419,16.229927 C130.273745,16.3832124 130.360406,16.5790742 130.360406,16.8175182 L130.360406,17.0218978 C130.360406,17.2603418 130.273745,17.4562036 130.100419,17.6094891 C129.927094,17.7627745 129.703599,17.8394161 129.429927,17.8394161 C129.138011,17.8394161 128.905393,17.7627745 128.732068,17.6094891 Z M143.23179,20.6536036 C143.987588,21.507835 144.365482,22.6183193 144.365482,23.9850896 L144.365482,31.453476 C144.365482,31.5836446 144.315096,31.6975404 144.214323,31.7951669 C144.11355,31.8927933 143.995983,31.9416058 143.861619,31.9416058 C143.710459,31.9416058 143.588693,31.8927933 143.496318,31.7951669 C143.403943,31.6975404 143.357755,31.5836446 143.357755,31.453476 L143.357755,24.0827156 C143.357755,22.9762825 143.059639,22.0691836 142.463398,21.3613918 C141.867157,20.6536 140.964411,20.2997094 139.755132,20.2997094 C139.016129,20.2997094 138.289733,20.4705532 137.575923,20.8122458 C136.862113,21.1539384 136.278477,21.6176571 135.824998,22.2034158 C135.371519,22.7891745 135.144783,23.4156015 135.144783,24.0827156 L135.144783,31.453476 C135.144783,31.5836446 135.094397,31.6975404 134.993624,31.7951669 C134.89285,31.8927933 134.775283,31.9416058 134.640919,31.9416058 C134.489759,31.9416058 134.367994,31.8927933 134.275618,31.7951669 C134.183243,31.6975404 134.137056,31.5836446 134.137056,31.453476 L134.137056,20.2508965 C134.137056,20.1207279 134.187442,20.006832 134.288215,19.9092056 C134.388988,19.8115791 134.506555,19.7627666 134.640919,19.7627666 C134.792079,19.7627666 134.913845,19.8115791 135.00622,19.9092056 C135.098596,20.006832 135.144783,20.1207279 135.144783,20.2508965 L135.144783,21.8861314 C135.631853,21.153933 136.316261,20.5519122 137.198026,20.080051 C138.079791,19.6081898 138.965742,19.3722628 139.855905,19.3722628 C141.350707,19.3722628 142.475991,19.7993721 143.23179,20.6536036 Z M158.745856,29.1947445 C158.830571,29.284672 158.872928,29.3868607 158.872928,29.5013139 C158.872928,29.615767 158.839042,29.7138682 158.77127,29.7956204 C158.212151,30.5150401 157.517497,31.1036473 156.687289,31.5614599 C155.857081,32.0192724 154.967586,32.2481752 154.018777,32.2481752 C152.748051,32.2481752 151.621357,31.986572 150.638662,31.4633577 C149.655967,30.9401434 148.889307,30.1962092 148.338658,29.2315328 C147.78801,28.2668565 147.51269,27.1468677 147.51269,25.8715328 C147.51269,24.5634971 147.779539,23.4148955 148.313244,22.4256934 C148.846949,21.4364914 149.55431,20.6802946 150.435347,20.1570803 C151.316384,19.633866 152.256707,19.3722628 153.256345,19.3722628 C154.255983,19.3722628 155.1836,19.5807278 156.039222,19.9976642 C156.894845,20.4146006 157.593734,21.0399958 158.13591,21.8738686 C158.678087,22.7077414 158.966114,23.7378041 159,24.9640876 C159,25.0948912 158.949172,25.2134301 158.847514,25.319708 C158.745855,25.4259859 158.627256,25.4791241 158.491712,25.4791241 L148.503852,25.4791241 L148.503852,25.7979562 C148.503852,26.8116839 148.715637,27.7395578 149.139212,28.5816058 C149.562788,29.4236538 150.18967,30.0899246 151.019878,30.580438 C151.850086,31.0709514 152.849709,31.3162044 154.018777,31.3162044 C154.832042,31.3162044 155.598702,31.1240895 156.318781,30.739854 C157.038859,30.3556185 157.602206,29.8692 158.008838,29.2805839 C158.127439,29.1334299 158.271453,29.059854 158.440883,29.059854 C158.559484,29.059854 158.661141,29.1048171 158.745856,29.1947445 Z M151.483689,20.7639262 C150.836142,21.0785648 150.264291,21.5464817 149.768118,22.1676911 C149.271946,22.7889005 148.939768,23.5432149 148.771574,24.4306569 L158.055838,24.4306569 L158.055838,24.2128313 C157.971741,23.3899306 157.698429,22.6840214 157.235896,22.0950826 C156.773362,21.5061438 156.201511,21.0583957 155.520325,20.7518248 C154.839139,20.4452539 154.12853,20.2919708 153.388477,20.2919708 C152.766159,20.2919708 152.131236,20.4492877 151.483689,20.7639262 Z" id="StatEngine"></path>
                </g>
            </g>
        </g>
    </g>
</svg>