<?xml version="1.0" encoding="UTF-8"?>
<svg width="19px" height="36px" viewBox="0 0 19 36" version="1.1" xmlns="http://www.w3.org/2000/svg" xmlns:xlink="http://www.w3.org/1999/xlink">
    <!-- Generator: Sketch 51.2 (57519) - http://www.bohemiancoding.com/sketch -->
    <title>Symbol</title>
    <desc>Created with Sketch.</desc>
    <defs>
        <linearGradient x1="37.5986761%" y1="82.429692%" x2="66.4559117%" y2="24.0408717%" id="linearGradient-1">
            <stop stop-color="#00B5E9" offset="0%"></stop>
            <stop stop-color="#37EECB" offset="100%"></stop>
        </linearGradient>
    </defs>
    <g id="Symbols" stroke="none" stroke-width="1" fill="none" fill-rule="evenodd">
        <g id="Sidebar-Header---Pinned" transform="translate(-25.000000, -16.000000)" fill="url(#linearGradient-1)">
            <g id="Logo/Branding">
                <g transform="translate(18.000000, 8.000000)">
                    <g id="Symbol" transform="translate(16.283158, 24.794397) rotate(-7.000000) translate(-16.283158, -24.794397) translate(5.283158, 6.794397)">
                        <path d="M7.32027109,23.4283359 L16.6773295,16.1178006 C16.9986664,16.9269211 17.2254915,17.750244 17.3578023,18.5877712 C17.6257735,19.4233811 17.849692,20.3671268 17.969388,21.4261034 C18.0640108,23.4529849 17.921675,23.7194437 17.4085369,24.4132893 L16.9894497,24.7407161 C16.608672,25.2119428 16.1306214,25.5888312 15.589183,25.8347244 L14.6233535,26.5893131 L13.6628406,27.339748 L12.9326087,27.9102677 L6.00259786,33.3245855 L6.17498256,33.5452279 L3.74294125,35.4453468 C3.53519513,35.4618783 3.3236768,35.4578711 3.11028298,35.4316696 C1.20793031,35.1980901 -0.123089586,33.2891258 0.137366833,31.1678785 C0.286949231,29.9496276 0.928918072,28.9263033 1.80872515,28.3200716 L1.71908301,28.2053349 L6.6373551,24.3627596 C6.86589331,24.0561191 7.13402864,23.789015 7.43136559,23.5705304 L7.32027109,23.4283359 Z" id="Combined-Shape"></path>
                        <g id="Group-4" transform="translate(12.497375, 10.874468) scale(-1, -1) translate(-12.497375, -10.874468) translate(3.497375, 0.874468)">
                            <path d="M7.0913064,7.51029166 L16.4307549,0.213514788 C16.7567967,1.07864378 16.978596,1.96011579 17.096153,2.85793082 C17.3521443,3.66222676 17.5672062,4.56252185 17.6913694,5.56415974 C17.7969891,7.38093054 17.6977132,7.78795029 17.316949,8.34527759 L16.7621277,8.7787515 C16.335498,9.35068269 15.7744316,9.79488682 15.132585,10.0518898 L14.2987863,10.7033247 L13.3491747,11.4452426 L12.6272305,12.0092872 L5.7758715,17.3621556 L6.00707462,17.6580821 L4.61071757,18.7490358 C4.03615822,18.8978478 3.40349131,18.9239694 2.77642359,18.8469751 C0.896505189,18.6161502 -0.221202548,17.5459586 0.0428034872,15.395802 C0.195311295,14.1537256 0.839689211,13.1099441 1.71915811,12.4943371 L1.59575944,12.336394 L6.40468555,8.57924916 C6.64083893,8.23696016 6.92320263,7.9398214 7.23897251,7.69929566 L7.0913064,7.51029166 Z" id="Combined-Shape"></path>
                        </g>
                    </g>
                </g>
            </g>
        </g>
    </g>
</svg>