<svg xmlns="http://www.w3.org/2000/svg" xmlns:xlink="http://www.w3.org/1999/xlink" width="1440" height="667" viewBox="0 0 1440 667">
  <defs>
    <linearGradient id="bg-a" x1="17.426%" x2="68.738%" y1="87.475%" y2="42.926%">
      <stop offset="0%" stop-color="#062E5A"/>
      <stop offset="59.198%" stop-color="#1C5087"/>
      <stop offset="100%" stop-color="#00AEE1"/>
    </linearGradient>
    <linearGradient id="bg-b" x1="3.848%" x2="47.794%" y1="92.716%" y2="55.863%">
      <stop offset="0%" stop-color="#00B5E9"/>
      <stop offset="57.944%" stop-color="#37EECB" stop-opacity=".566"/>
      <stop offset="100%" stop-color="#154267"/>
    </linearGradient>
    <linearGradient id="bg-c" x1="37.599%" x2="66.456%" y1="82.43%" y2="24.041%">
      <stop offset="0%" stop-color="#0B313C"/>
      <stop offset="100%" stop-color="#37EECB"/>
    </linearGradient>
    <linearGradient id="bg-d" x1="60.906%" x2="44.405%" y1="54.262%" y2="32.752%">
      <stop offset="0%" stop-color="#1B4D6D"/>
      <stop offset="53.162%" stop-color="#1A5771"/>
      <stop offset="100%" stop-color="#113862"/>
    </linearGradient>
    <linearGradient id="bg-e" x1="37.599%" x2="66.456%" y1="82.43%" y2="24.041%">
      <stop offset="0%" stop-color="#00B5E9"/>
      <stop offset="100%" stop-color="#37EECB"/>
    </linearGradient>
    <linearGradient id="bg-f" x1="50%" x2="50%" y1="0%" y2="100%">
      <stop offset="0%" stop-opacity="0"/>
      <stop offset="100%"/>
    </linearGradient>
    <linearGradient id="bg-h" x1="52.637%" x2="109.72%" y1="70.921%" y2="23.72%">
      <stop offset="0%" stop-opacity="0"/>
      <stop offset="100%"/>
    </linearGradient>
    <path id="bg-g" d="M355.643034,388.314212 C354.00563,389.884486 352.396745,391.487484 350.817436,393.122352 L67.2451925,614.673269 C40.7567936,641.933476 22.5180229,678.12621 17.4668383,719.264807 C5.46138133,817.041408 72.4987072,905.731134 167.198896,917.358855 C193.427578,920.579332 219.027378,917.550626 242.589724,909.409949 L317.842452,850.616075 L317.79823,850.559473 L662.932889,580.910725 L699.300558,552.497188 L747.136888,515.123351 L846.05191,437.842466 C849.200435,433.985363 852.196504,429.983536 855.028941,425.846059 C865.075883,414.574594 873.803324,402.100104 880.968583,388.665416 C888.340961,377.419876 893.305934,366.390104 896.431858,349.909988 C900.89124,333.742088 903.273576,316.711959 903.273576,299.125074 C903.273576,291.227516 902.468809,283.414162 900.859274,275.685012 C900.852943,271.713696 900.829149,267.585514 900.788825,263.291166 C894.135041,177.232618 871.962997,107.899273 849.125296,53.0256887 C844.334517,40.3590194 839.014617,27.7613559 833.165595,15.2326983 L355.643034,388.314212 Z"/>
    <linearGradient id="bg-k" x1="50%" x2="114.771%" y1="58.24%" y2="-.774%">
      <stop offset="0%" stop-opacity="0"/>
      <stop offset="100%"/>
    </linearGradient>
    <path id="bg-j" d="M355.150423,388.842885 C353.513018,390.41316 351.904134,392.016157 350.324825,393.651025 L66.7525814,615.201943 C40.2641825,642.462149 22.0254117,678.654883 16.9742271,719.79348 C4.96877018,817.570081 72.006096,906.259807 166.706285,917.887528 C192.934967,921.108005 218.534767,918.079299 242.097113,909.938623 L317.349841,851.144748 L317.305619,851.088147 L662.440278,581.439399 L698.807947,553.025862 L746.644277,515.652024 L845.559299,438.371139 C848.707824,434.514036 851.703893,430.51221 854.53633,426.374732 C864.583272,415.103267 873.310713,402.628778 880.475972,389.194089 C887.84835,377.948549 892.813323,366.918778 895.939246,350.438661 C900.398629,334.270762 902.780965,317.240633 902.780965,299.653748 C902.780965,291.756189 901.976198,283.942835 900.366663,276.213685 C900.360332,272.242369 900.336538,268.114187 900.296214,263.819839 C893.64243,177.761292 871.470386,108.427946 848.632685,53.554362 C843.841906,40.8876927 838.522006,28.2900292 832.672984,15.7613716 L355.150423,388.842885 Z"/>
  </defs>
  <g fill="none" fill-rule="evenodd" transform="rotate(-7 -2087.728 2864.34)">
    <path fill="url(#bg-a)" d="M224.327991,742.287813 C223.309928,743.234463 222.31142,744.204216 221.333304,745.196395 L68.0369752,864.964613 C53.5876268,879.700146 43.6293763,899.343532 40.8850501,921.694275 C34.413393,974.401692 70.5096651,1022.20573 121.50833,1028.46758 C135.495522,1030.18499 149.151003,1028.59915 161.738102,1024.30543 L202.719406,992.287326 L202.675914,992.231658 L388.457083,847.083501 L408.033291,831.788891 L433.78292,811.671076 L487.26842,769.883624 C488.878513,767.898404 490.414081,765.842553 491.869931,763.720295 C497.006209,757.964544 501.504887,751.624748 505.254653,744.812517 C509.889293,737.997868 512.872748,731.581592 514.630566,721.276431 C516.796163,712.962261 517.948997,704.237673 517.948997,695.243105 C517.948997,691.093903 517.538042,686.987789 516.716131,682.924765 C516.71101,680.721553 516.695764,678.428473 516.670939,676.040015 C513.201977,631.725482 502.11197,595.630107 490.375593,566.696395 C487.43241,558.50507 484.081558,550.36713 480.323036,542.282564 L224.327991,742.287813 Z" opacity=".565" transform="rotate(178 279.042 785.715)"/>
    <path fill="url(#bg-b)" d="M212.138849,864.809462 C211.120787,865.756111 210.122279,866.725864 209.144163,867.718043 L55.8478337,987.486262 C41.3984853,1002.22179 31.4402348,1021.86518 28.6959086,1044.21592 C22.2242516,1096.92334 58.3205236,1144.72738 109.319189,1150.98922 C123.30638,1152.70664 136.961861,1151.1208 149.54896,1146.82708 L190.530265,1114.80897 L190.486772,1114.75331 L376.267941,969.60515 L395.84415,954.310539 L421.593779,934.192724 L475.079278,892.405272 C476.689371,890.420052 478.22494,888.364201 479.680789,886.241943 C484.817067,880.486192 489.315746,874.146396 493.065512,867.334165 C497.700152,860.519517 500.683607,854.10324 502.441425,843.798079 C504.607022,835.483909 505.759856,826.759321 505.759856,817.764753 C505.759856,813.615551 505.348901,809.509438 504.52699,805.446413 C504.521869,803.243202 504.506622,800.950121 504.481797,798.561663 C501.012836,754.24713 489.922828,718.151755 478.186452,689.218043 C475.243268,681.026719 471.892417,672.888778 468.133894,664.804212 L212.138849,864.809462 Z" opacity=".069" transform="rotate(178 266.853 908.237)"/>
    <path fill="url(#bg-b)" d="M500.641383,797.388715 C499.62332,798.335364 498.624812,799.305117 497.646696,800.297296 L344.350367,920.065515 C329.901019,934.801047 319.942768,954.444433 317.198442,976.795177 C310.726785,1029.50259 346.823057,1077.30663 397.821722,1083.56848 C411.808914,1085.28589 425.464395,1083.70006 438.051494,1079.40633 L479.032798,1047.38823 L478.989306,1047.33256 L664.770475,902.184403 L684.346683,886.889792 L710.096312,866.771977 L763.581812,824.984525 C765.191905,822.999305 766.727473,820.943454 768.183323,818.821196 C773.3196,813.065445 777.818279,806.725649 781.568045,799.913418 C786.202685,793.098769 789.18614,786.682493 790.943958,776.377332 C793.109555,768.063162 794.262389,759.338574 794.262389,750.344006 C794.262389,746.194804 793.851434,742.088691 793.029523,738.025666 C793.024402,735.822455 793.009156,733.529374 792.984331,731.140916 C789.515369,686.826383 778.425362,650.731008 766.688985,621.797296 C763.745802,613.605972 760.39495,605.468031 756.636428,597.383465 L500.641383,797.388715 Z" opacity=".048" transform="rotate(178 555.355 840.816)"/>
    <path fill="url(#bg-b)" d="M922.268795,1211.88225 C921.250732,1212.8289 920.252224,1213.79865 919.274108,1214.79083 L765.977779,1334.55905 C751.528431,1349.29458 741.57018,1368.93797 738.825854,1391.28871 C732.354197,1443.99613 768.450469,1491.80017 819.449134,1498.06201 C833.436326,1499.77943 847.091807,1498.19359 859.678906,1493.89987 L900.66021,1461.88176 L900.616718,1461.8261 L1086.39789,1316.67794 L1105.9741,1301.38333 L1131.72372,1281.26551 L1185.20922,1239.47806 C1186.81932,1237.49284 1188.35489,1235.43699 1189.81073,1233.31473 C1194.94701,1227.55898 1199.44569,1221.21919 1203.19546,1214.40696 C1207.8301,1207.59231 1210.81355,1201.17603 1212.57137,1190.87087 C1214.73697,1182.5567 1215.8898,1173.83211 1215.8898,1164.83754 C1215.8898,1160.68834 1215.47885,1156.58223 1214.65694,1152.5192 C1214.65181,1150.31599 1214.63657,1148.02291 1214.61174,1145.63445 C1211.14278,1101.31992 1200.05277,1065.22454 1188.3164,1036.29083 C1185.37321,1028.09951 1182.02236,1019.96157 1178.26384,1011.877 L922.268795,1211.88225 Z" opacity=".356" transform="rotate(178 976.983 1255.31)"/>
    <g transform="rotate(180 1028.788 803.618)">
      <path fill="url(#bg-c)" d="M1400.89982,731.36407 C1399.26242,732.934344 1397.65353,734.537342 1396.07422,736.17221 L1112.50198,957.723128 C1086.01358,984.983334 1067.77481,1021.17607 1062.72362,1062.31467 C1050.71817,1160.09127 1117.75549,1248.78099 1212.45568,1260.40871 C1238.68436,1263.62919 1264.28416,1260.60048 1287.84651,1252.45981 L1363.09924,1193.66593 L1363.05502,1193.60933 L1708.18967,923.960584 L1744.55734,895.547047 L1792.39367,858.173209 L1891.3087,780.892324 C1894.45722,777.035221 1897.45329,773.033395 1900.28573,768.895917 C1910.33267,757.624452 1919.06011,745.149963 1926.22537,731.715274 C1933.59775,720.469734 1938.56272,709.439963 1941.68864,692.959846 C1946.14803,676.791946 1948.53036,659.761818 1948.53036,642.174933 C1948.53036,634.277374 1947.7256,626.46402 1946.11606,618.73487 C1946.10973,614.763554 1946.08594,610.635372 1946.04561,606.341024 C1939.39183,520.282477 1917.21978,450.949131 1894.38208,396.075547 C1889.5913,383.408878 1884.2714,370.811214 1878.42238,358.282557 L1400.89982,731.36407 Z" opacity=".1" style="mix-blend-mode:overlay" transform="rotate(-2 1504.932 809.978)"/>
      <path fill="url(#bg-d)" d="M1568.17849,336.847021 C1566.75835,338.208935 1565.36295,339.599229 1563.9932,341.017166 L1318.04827,533.170406 C1295.07463,556.813445 1279.25596,588.203751 1274.87502,623.883652 C1264.46258,708.686237 1322.60469,785.607688 1404.73908,795.692523 C1427.48746,798.485674 1449.69042,795.858847 1470.12627,788.798361 L1535.39368,737.805868 L1535.35533,737.756777 L1834.69393,503.887827 L1866.23596,479.244494 L1907.72487,446.829805 L1993.51482,379.803351 C1996.24556,376.458048 1998.84408,372.987226 2001.30068,369.398752 C2010.01449,359.622902 2017.58389,348.803657 2023.79838,337.151623 C2030.19252,327.398258 2034.49869,317.832031 2037.20983,303.538668 C2041.0775,289.516093 2043.14372,274.745699 2043.14372,259.492424 C2043.14372,252.642796 2042.44574,245.866199 2041.04977,239.162633 C2041.04428,235.718272 2041.02364,232.13786 2040.98867,228.413331 C2035.21778,153.773926 2015.98775,93.6404491 1996.1804,46.0480626 C1992.02531,35.0621386 1987.41131,24.136064 1982.33839,13.2698389 L1568.17849,336.847021 Z" opacity=".079" style="mix-blend-mode:multiply" transform="rotate(-2 1658.406 405.03)"/>
      <path fill="url(#bg-e)" d="M576.045619,507.893687 C575.373954,508.537815 574.713987,509.195366 574.066153,509.865991 L457.74447,600.74645 C446.878903,611.928615 439.397337,626.774918 437.325335,643.65002 C432.400682,683.7581 459.899474,720.138732 498.745606,724.908438 C509.504643,726.229481 520.005712,724.987102 529.671015,721.647787 L560.539775,697.530469 L560.521635,697.507251 L702.096289,586.897009 L717.01435,575.241742 L736.636871,559.910948 L777.211932,528.210236 C778.503461,526.628048 779.732452,524.986494 780.894321,523.289296 C785.015589,518.665727 788.595596,513.548676 791.534793,508.037751 C794.558952,503.424817 796.59559,498.900391 797.877847,492.140227 C799.707091,485.508135 800.684329,478.522356 800.684329,471.308195 C800.684329,468.068607 800.354212,464.863559 799.693979,461.693053 C799.691382,460.064014 799.681622,458.370629 799.665081,456.609082 C796.93569,421.307762 787.840691,392.86714 778.472639,370.35793 C776.507455,365.162046 774.325226,359.99447 771.92595,354.855199 L576.045619,507.893687 Z" opacity=".172" style="mix-blend-mode:overlay" transform="rotate(-2 618.72 540.141)"/>
      <path fill="url(#bg-e)" d="M356.057729,507.534807 C354.420325,509.105081 352.81144,510.708079 351.232131,512.342947 L67.6598876,733.893865 C41.1714887,761.154071 22.9327179,797.346805 17.8815334,838.485402 C5.87607641,936.262003 72.9134022,1024.95173 167.613591,1036.57945 C193.842273,1039.79993 219.442074,1036.77122 243.004419,1028.63054 L318.257147,969.83667 L318.212926,969.780068 L663.347584,700.131321 L699.715253,671.717784 L747.551583,634.343946 L846.466605,557.063061 C849.61513,553.205958 852.611199,549.204132 855.443636,545.066654 C865.490579,533.795189 874.218019,521.320699 881.383278,507.886011 C888.755656,496.640471 893.720629,485.610699 896.846553,469.130583 C901.305935,452.962683 903.688272,435.932554 903.688272,418.345669 C903.688272,410.448111 902.883504,402.634757 901.273969,394.905607 C901.267638,390.934291 901.243845,386.806109 901.203521,382.511761 C894.549736,296.453213 872.377692,227.119868 849.539991,172.246284 C844.749212,159.579614 839.429312,146.981951 833.580291,134.453293 L356.057729,507.534807 Z" opacity=".132" style="mix-blend-mode:overlay" transform="rotate(-2 460.09 586.149)"/>
      <path fill="url(#bg-f)" d="M356.474206,507.350526 C354.836801,508.9208 353.227917,510.523797 351.648608,512.158666 L68.0763644,733.709583 C41.5879654,760.969789 23.3491947,797.162524 18.2980101,838.301121 C6.29255315,936.077722 73.329879,1024.76745 168.030068,1036.39517 C194.25875,1039.61565 219.85855,1036.58694 243.420896,1028.44626 L318.673624,969.652388 L318.629402,969.595787 L663.764061,699.947039 L700.13173,671.533502 L747.96806,634.159665 L846.883082,556.87878 C850.031607,553.021676 853.027676,549.01985 855.860113,544.882373 C865.907055,533.610908 874.634496,521.136418 881.799755,507.70173 C889.172133,496.45619 894.137106,485.426418 897.263029,468.946302 C901.722412,452.778402 904.104748,435.748273 904.104748,418.161388 C904.104748,410.26383 903.299981,402.450476 901.690446,394.721326 C901.684115,390.75001 901.660321,386.621828 901.619997,382.327479 C894.966213,296.268932 872.794169,226.935587 849.956468,172.062003 C845.165689,159.395333 839.845789,146.79767 833.996767,134.269012 L356.474206,507.350526 Z" opacity="0" style="mix-blend-mode:overlay" transform="rotate(-2 460.506 585.965)"/>
      <g transform="translate(1 403)">
        <mask id="bg-i" fill="#fff">
          <use xlink:href="#bg-g"/>
        </mask>
        <use fill="url(#bg-h)" opacity=".124" style="mix-blend-mode:overlay" transform="rotate(-2 459.675 466.928)" xlink:href="#bg-g"/>
        <path fill="url(#bg-e)" d="M355.643034,388.314212 C354.00563,389.884486 352.396745,391.487484 350.817436,393.122352 L67.2451925,614.673269 C40.7567936,641.933476 22.5180229,678.12621 17.4668383,719.264807 C5.46138133,817.041408 72.4987072,905.731134 167.198896,917.358855 C193.427578,920.579332 219.027378,917.550626 242.589724,909.409949 L317.842452,850.616075 L317.79823,850.559473 L662.932889,580.910725 L699.300558,552.497188 L747.136888,515.123351 L846.05191,437.842466 C849.200435,433.985363 852.196504,429.983536 855.028941,425.846059 C865.075883,414.574594 873.803324,402.100104 880.968583,388.665416 C888.340961,377.419876 893.305934,366.390104 896.431858,349.909988 C900.89124,333.742088 903.273576,316.711959 903.273576,299.125074 C903.273576,291.227516 902.468809,283.414162 900.859274,275.685012 C900.852943,271.713696 900.829149,267.585514 900.788825,263.291166 C894.135041,177.232618 871.962997,107.899273 849.125296,53.0256887 C844.334517,40.3590194 839.014617,27.7613559 833.165595,15.2326983 L355.643034,388.314212 Z" mask="url(#bg-i)" opacity=".124" style="mix-blend-mode:overlay" transform="rotate(-2 459.675 466.928)"/>
      </g>
      <path fill="url(#bg-e)" d="M1509.19562,494.7078 C1508.24932,495.615309 1507.3195,496.54173 1506.40676,497.486571 L1342.52167,625.52764 C1327.21321,641.282149 1316.67247,662.19904 1313.75323,685.974296 C1306.81491,742.482392 1345.55784,793.738904 1400.28798,800.458921 C1415.44634,802.320133 1430.24125,800.569751 1443.85865,795.865004 L1487.34951,761.886221 L1487.32395,761.85351 L1686.78785,606.01523 L1707.80585,589.594176 L1735.45193,567.994689 L1792.61795,523.331696 C1794.43758,521.102558 1796.1691,518.78978 1797.80605,516.398605 C1803.61249,509.884479 1808.65635,502.675089 1812.79737,494.910771 C1817.05809,488.411629 1819.9275,482.037185 1821.73407,472.512821 C1824.31128,463.168896 1825.68811,453.326662 1825.68811,443.162662 C1825.68811,438.598421 1825.22301,434.082844 1824.29281,429.615931 C1824.28915,427.320786 1824.2754,424.934983 1824.25209,422.453147 C1820.40667,372.717274 1807.59276,332.647408 1794.39416,300.934281 C1791.62542,293.613824 1788.55088,286.333248 1785.17056,279.092553 L1509.19562,494.7078 Z" opacity="0" style="mix-blend-mode:overlay" transform="rotate(-2 1569.319 540.141)"/>
      <g transform="translate(975 672)">
        <use fill="url(#bg-k)" opacity=".771" transform="rotate(-2 459.182 467.457)" xlink:href="#bg-j"/>
      </g>
    </g>
  </g>
</svg>
