<svg xmlns="http://www.w3.org/2000/svg" width="44" height="44" viewBox="0 0 44 44">
    <g fill="none" fill-rule="evenodd" opacity=".968">
        <circle cx="22" cy="22" r="22" fill="#000" fill-opacity=".143"/>
        <path fill="#FFF" d="M28.256 23.883l-1.425.478.493 1.475a1.14 1.14 0 1 1-2.162.724l-.494-1.475-2.94.985.494 1.474a1.14 1.14 0 1 1-2.162.725l-.494-1.475-1.425.477a1.143 1.143 0 0 1-1.444-.72 1.14 1.14 0 0 1 .719-1.442l1.426-.478-.948-2.83-1.425.479a1.14 1.14 0 0 1-.725-2.163l1.426-.478-.494-1.475a1.14 1.14 0 1 1 2.162-.724l.494 1.475 2.94-.985-.494-1.474a1.14 1.14 0 0 1 2.162-.725l.494 1.475 1.426-.477a1.14 1.14 0 1 1 .724 2.163l-1.425.477.947 2.83 1.426-.478a1.141 1.141 0 0 1 .724 2.162m-8.318-2.961l.947 2.83 2.94-.985-.948-2.83-2.94.985zm12.141-1.946c2.268 7.56.505 10.835-7.055 13.103-7.56 2.268-10.835.504-13.103-7.055-2.268-7.56-.504-10.836 7.055-13.103 7.56-2.268 10.836-.505 13.103 7.055z" opacity=".851"/>
    </g>
</svg>
