<svg xmlns="http://www.w3.org/2000/svg" width="44" height="44" viewBox="0 0 44 44">
    <g fill="none" fill-rule="evenodd" opacity=".968">
        <path d="M0 0h44v44H0z"/>
        <circle cx="22" cy="22" r="22" fill="#000" fill-opacity=".143"/>
        <path fill="#FFF" d="M25.443 26.527l-.185 2.176-10.029-.943.2-2.176 10.014.943zm-.242 2.8v2.191l-10.057.014v-2.19l10.057-.015zm2.176-8.168l-1.095 1.886-8.663-5.224 1.095-1.886 8.663 5.224zm-1.266 2.495l-.555 2.118-9.715-2.655.555-2.118 9.715 2.655zm.81 9.62v-8.967h1.708v10.17l-.014.508V35H12.512l-.498-.015H12V24.307h1.721v8.966h13.2zM30.28 9L32 19.113l-2.12.377-1.72-10.113L30.278 9zm-8.222 3.38l1.778-1.247 5.662 8.488-1.764 1.233-5.676-8.473z" opacity=".851"/>
    </g>
</svg>
