<svg xmlns="http://www.w3.org/2000/svg" width="311" height="83" viewBox="0 0 311 83">
  <defs>
    <linearGradient id="branding-a" x1="37.599%" x2="66.456%" y1="82.43%" y2="24.041%">
      <stop offset="0%" stop-color="#00B5E9"/>
      <stop offset="100%" stop-color="#37EECB"/>
    </linearGradient>
  </defs>
  <g fill="none" fill-rule="evenodd" transform="translate(-9 -1)">
    <path fill="#FFF" class="logo-text" d="M71,48.7560466 C71,47.9039084 71.4412831,47.1828793 72.3238627,46.5929375 C72.7990978,46.2979666 73.2912982,46.1504833 73.8004787,46.1504833 C74.5133314,46.1504833 75.1922286,46.4618368 75.8371906,47.0845532 C76.8555516,48.100564 77.9163284,48.8543672 79.0195528,49.3459854 C80.1227772,49.8376036 81.4551128,50.083409 83.0165997,50.083409 C85.6643383,49.9850853 86.9881877,49.0182508 86.9881877,47.1828763 C86.9881877,46.2324145 86.5384184,45.5113854 85.6388662,45.0197672 C84.739314,44.5281491 83.3390886,44.0365383 81.4381481,43.5449201 C79.4693168,43.0205274 77.8654223,42.4961426 76.6264164,41.9717499 C75.3874105,41.4473571 74.3181475,40.6525864 73.4185953,39.5874137 C72.5190431,38.522241 72.0692737,37.0883762 72.0692737,35.2857763 C72.0692737,33.7125982 72.5360155,32.3442815 73.4695131,31.1807852 C74.4030107,30.0172888 75.6250255,29.1160024 77.1355943,28.4768988 C78.6461632,27.8377952 80.2500577,27.5182482 81.947326,27.5182482 C83.6785397,27.5182482 85.4097274,27.8296017 87.1409411,28.452318 C88.8721548,29.0750343 90.2299491,29.9927078 91.2143648,31.2053659 C91.6556545,31.7297587 91.8762961,32.3196916 91.8762961,32.9751825 C91.8762961,33.728997 91.55382,34.351704 90.908858,34.8433222 C90.4336229,35.2038421 89.8905051,35.3840994 89.2794885,35.3840994 C88.5326905,35.3840994 87.921683,35.1546811 87.4464479,34.6958374 C86.8354313,33.9747975 86.0462134,33.4012516 85.0787704,32.9751825 C84.1113275,32.5491134 83.0166058,32.3360821 81.7945726,32.3360821 C79.2147248,32.3360821 77.9248202,33.2373685 77.9248202,35.0399684 C77.9248202,35.7610084 78.1624342,36.3427478 78.6376693,36.7852042 C79.1129044,37.2276605 79.7154257,37.5717881 80.445251,37.8175972 C81.1750764,38.0634062 82.2019084,38.3665662 83.5257777,38.7270862 C85.3588275,39.2187044 86.886346,39.7267022 88.1083792,40.2510949 C89.3304124,40.7754876 90.3657306,41.5784519 91.2143648,42.6600118 C92.0629989,43.7415718 92.4873096,45.1672431 92.4873096,46.9370685 C92.4873096,48.5430211 91.9951092,49.9441119 91.0106936,51.1403827 C90.0262779,52.3366536 88.761832,53.2461335 87.2173178,53.8688499 C85.6728036,54.4915662 84.0858816,54.8029197 82.456504,54.8029197 C80.2161098,54.8029197 78.128501,54.4424051 76.1936151,53.7213652 C74.2587292,53.0003252 72.6802934,51.8368463 71.4582602,50.2308937 C71.1527519,49.8375991 71,49.3459884 71,48.7560466 Z M111.910726,49.3091971 C112.306394,49.7506591 112.504225,50.3310913 112.504225,51.0505109 C112.504225,51.9334351 111.996745,52.6773692 110.98177,53.2823358 C109.966795,53.8873023 108.822814,54.189781 107.549794,54.189781 C105.416626,54.189781 103.618942,53.7565007 102.15669,52.889927 C100.694437,52.0233533 99.9633216,50.1839557 99.9633216,47.3716788 L99.9633216,33.8335766 L97.5893234,33.8335766 C96.7635807,33.8335766 96.0754722,33.5719734 95.5249771,33.0487591 C94.974482,32.5255448 94.6992386,31.8715368 94.6992386,31.0867153 C94.6992386,30.3345948 94.974482,29.705112 95.5249771,29.1982482 C96.0754722,28.6913843 96.7635807,28.4379562 97.5893234,28.4379562 L99.9633216,28.4379562 L99.9633216,25.2986861 C99.9633216,24.4484629 100.264369,23.7372291 100.866473,23.1649635 C101.468577,22.5926979 102.216895,22.3065693 103.11145,22.3065693 C103.971598,22.3065693 104.694112,22.5926979 105.279013,23.1649635 C105.863914,23.7372291 106.15636,24.4484629 106.15636,25.2986861 L106.15636,28.4379562 L109.820575,28.4379562 C110.646318,28.4379562 111.334426,28.6995594 111.884921,29.2227737 C112.435416,29.745988 112.71066,30.3999961 112.71066,31.1848175 C112.71066,31.9369381 112.435416,32.5664208 111.884921,33.0732847 C111.334426,33.5801485 110.646318,33.8335766 109.820575,33.8335766 L106.15636,33.8335766 L106.15636,47.1264234 C106.15636,47.8131421 106.34559,48.3118233 106.724056,48.6224818 C107.102521,48.9331402 107.618602,49.0884672 108.272315,49.0884672 C108.547563,49.0884672 108.926023,49.0230663 109.407706,48.8922628 C109.820577,48.7287583 110.21624,48.6470073 110.594705,48.6470073 C111.076388,48.6470073 111.515057,48.867735 111.910726,49.3091971 Z M142.193177,28.3539949 C142.761519,28.9111621 143.045685,29.6321913 143.045685,30.517104 L143.045685,51.3124482 C143.045685,52.1645864 142.761519,52.877422 142.193177,53.4509765 C141.624836,54.024531 140.906062,54.311304 140.036834,54.311304 C139.167605,54.311304 138.457189,54.0327246 137.905564,53.4755573 C137.353938,52.9183901 137.061414,52.2137479 137.027982,51.3616098 C136.192186,52.3120716 135.063877,53.1232294 133.643024,53.7951075 C132.22217,54.4669857 130.726117,54.8029197 129.15482,54.8029197 C126.848022,54.8029197 124.758563,54.2211803 122.886379,53.057684 C121.014195,51.8941876 119.534858,50.2800656 118.448323,48.2152693 C117.361787,46.150473 116.818528,43.8071283 116.818528,41.1851647 C116.818528,38.5632012 117.35343,36.2116629 118.423249,34.1304794 C119.493068,32.0492958 120.95569,30.4269802 122.811158,29.2634839 C124.666625,28.0999876 126.714296,27.5182482 128.95423,27.5182482 C130.558959,27.5182482 132.06337,27.8050211 133.467507,28.3785757 C134.871645,28.9521302 136.058458,29.6813528 137.027982,30.5662655 L137.027982,30.517104 C137.027982,29.6649658 137.312148,28.9521302 137.88049,28.3785757 C138.448831,27.8050211 139.167605,27.5182482 140.036834,27.5182482 C140.906062,27.5182482 141.624836,27.7968276 142.193177,28.3539949 Z M135.323886,46.937357 C136.679881,45.3724728 137.357868,43.4040428 137.357868,41.0320078 C137.357868,38.6599729 136.679881,36.6833067 135.323886,35.1019501 C133.967891,33.5205935 132.215045,32.729927 130.065297,32.729927 C127.948622,32.729927 126.212313,33.5205935 124.856317,35.1019501 C123.500322,36.6833067 122.822335,38.6599729 122.822335,41.0320078 C122.822335,43.4040428 123.492054,45.3724728 124.831513,46.937357 C126.170971,48.5022412 127.915549,49.2846715 130.065297,49.2846715 C132.215045,49.2846715 133.967891,48.5022412 135.323886,46.937357 Z M164.68103,49.3091971 C165.076699,49.7506591 165.27453,50.3310913 165.27453,51.0505109 C165.27453,51.9334351 164.76705,52.6773692 163.752074,53.2823358 C162.737099,53.8873023 161.593119,54.189781 160.320099,54.189781 C158.18693,54.189781 156.389247,53.7565007 154.926994,52.889927 C153.464741,52.0233533 152.733626,50.1839557 152.733626,47.3716788 L152.733626,33.8335766 L150.359628,33.8335766 C149.533885,33.8335766 148.845777,33.5719734 148.295282,33.0487591 C147.744787,32.5255448 147.469543,31.8715368 147.469543,31.0867153 C147.469543,30.3345948 147.744787,29.705112 148.295282,29.1982482 C148.845777,28.6913843 149.533885,28.4379562 150.359628,28.4379562 L152.733626,28.4379562 L152.733626,25.2986861 C152.733626,24.4484629 153.034674,23.7372291 153.636778,23.1649635 C154.238882,22.5926979 154.9872,22.3065693 155.881754,22.3065693 C156.741903,22.3065693 157.464417,22.5926979 158.049318,23.1649635 C158.634219,23.7372291 158.926665,24.4484629 158.926665,25.2986861 L158.926665,28.4379562 L162.59088,28.4379562 C163.416622,28.4379562 164.104731,28.6995594 164.655226,29.2227737 C165.205721,29.745988 165.480964,30.3999961 165.480964,31.1848175 C165.480964,31.9369381 165.205721,32.5664208 164.655226,33.0732847 C164.104731,33.5801485 163.416622,33.8335766 162.59088,33.8335766 L158.926665,33.8335766 L158.926665,47.1264234 C158.926665,47.8131421 159.115895,48.3118233 159.49436,48.6224818 C159.872826,48.9331402 160.388907,49.0884672 161.04262,49.0884672 C161.317868,49.0884672 161.696327,49.0230663 162.17801,48.8922628 C162.590882,48.7287583 162.986544,48.6470073 163.36501,48.6470073 C163.846693,48.6470073 164.285362,48.867735 164.68103,49.3091971 Z M192.145754,48.3894891 C192.315867,48.569344 192.400923,48.7737215 192.400923,49.0026277 C192.400923,49.231534 192.332878,49.4277364 192.196788,49.5912409 C191.074039,51.0300802 189.67913,52.2072947 188.012019,53.1229197 C186.344908,54.0385447 184.558745,54.4963504 182.653475,54.4963504 C180.101774,54.4963504 177.8393,53.9731439 175.865985,52.9267153 C173.89267,51.8802867 172.353167,50.3924184 171.24743,48.4630657 C170.141693,46.533713 169.588832,44.2937354 169.588832,41.7430657 C169.588832,39.1269942 170.124682,36.8297909 171.196396,34.8513869 C172.26811,32.8729828 173.688536,31.3605892 175.457715,30.3141606 C177.226894,29.267732 179.115124,28.7445255 181.122462,28.7445255 C183.1298,28.7445255 184.992513,29.1614557 186.710658,29.9953285 C188.428804,30.8292012 189.832218,32.0799917 190.920944,33.7477372 C192.009669,35.4154828 192.588046,37.4756082 192.656091,39.9281752 C192.656091,40.1897823 192.554025,40.4268603 192.349889,40.6394161 C192.145753,40.8519719 191.907598,40.9582482 191.635416,40.9582482 L171.579149,40.9582482 L171.579149,41.5959124 C171.579149,43.6233678 172.004426,45.4791157 172.854993,47.1632117 C173.70556,48.8473077 174.96438,50.1798491 176.631491,51.1608759 C178.298602,52.1419027 180.30591,52.6324088 182.653475,52.6324088 C184.286563,52.6324088 185.826066,52.248179 187.27203,51.479708 C188.717994,50.711237 189.849231,49.7384 190.665775,48.5611679 C190.903934,48.2668598 191.193122,48.119708 191.533349,48.119708 C191.771507,48.119708 191.97564,48.2096341 192.145754,48.3894891 Z M177.562853,31.5278525 C176.262537,32.1571295 175.114223,33.0929634 174.117877,34.3353823 C173.121531,35.5778011 172.454496,37.0864299 172.116751,38.8613139 L190.760152,38.8613139 L190.760152,38.4256627 C190.59128,36.7798612 190.042454,35.3680428 189.113656,34.1901652 C188.184859,33.0122876 187.036545,32.1167914 185.66868,31.5036496 C184.300815,30.8905079 182.873866,30.5839416 181.38779,30.5839416 C180.138136,30.5839416 178.86317,30.8985754 177.562853,31.5278525 Z M217.55469,31.3072071 C219.072383,33.0156701 219.831218,35.2366386 219.831218,37.9701793 L219.831218,52.906952 C219.831218,53.1672892 219.73004,53.3950809 219.527681,53.5903338 C219.325322,53.7855867 219.08924,53.8832117 218.819428,53.8832117 C218.51589,53.8832117 218.271376,53.7855867 218.08588,53.5903338 C217.900384,53.3950809 217.807638,53.1672892 217.807638,52.906952 L217.807638,38.1654312 C217.807638,35.9525649 217.209001,34.1383672 216.01171,32.7227836 C214.814419,31.3072001 213.001647,30.5994189 210.573338,30.5994189 C209.089372,30.5994189 207.630723,30.9411064 206.197346,31.6244915 C204.763969,32.3078767 203.591991,33.2353141 202.681375,34.4068315 C201.770759,35.578349 201.315458,36.831203 201.315458,38.1654312 L201.315458,52.906952 C201.315458,53.1672892 201.21428,53.3950809 201.011921,53.5903338 C200.809562,53.7855867 200.57348,53.8832117 200.303668,53.8832117 C200.00013,53.8832117 199.755616,53.7855867 199.57012,53.5903338 C199.384625,53.3950809 199.291878,53.1672892 199.291878,52.906952 L199.291878,30.5017929 C199.291878,30.2414557 199.393056,30.0136641 199.595415,29.8184112 C199.797774,29.6231583 200.033856,29.5255333 200.303668,29.5255333 C200.607207,29.5255333 200.85172,29.6231583 201.037216,29.8184112 C201.222712,30.0136641 201.315458,30.2414557 201.315458,30.5017929 L201.315458,33.7722628 C202.293527,32.307866 203.667862,31.1038244 205.438503,30.160102 C207.209145,29.2163797 208.988192,28.7445255 210.775696,28.7445255 C213.777356,28.7445255 216.036998,29.5987442 217.55469,31.3072071 Z M251.150121,29.8293094 C251.336843,30.0265438 251.430203,30.2566471 251.430203,30.5196264 L251.430203,51.7222194 C251.430203,54.2205219 250.903994,56.3900679 249.85156,58.2309224 C248.799125,60.0717769 247.322345,61.4934869 245.421173,62.4960951 C243.520001,63.4987034 241.347266,64 238.902903,64 C237.544923,64 236.16999,63.8274225 234.77806,63.4822623 C233.386131,63.137102 232.240353,62.6933313 231.340691,62.1509367 C230.44103,61.608542 229.991206,61.0579376 229.991206,60.4991067 C229.991206,60.2361275 230.067591,60.0224601 230.220364,59.8580981 C230.373137,59.6937361 230.585318,59.6115563 230.856914,59.6115563 C231.060611,59.6115563 231.366151,59.7759159 231.773545,60.1046399 C232.248838,60.5648535 232.775047,60.9100085 233.352189,61.1401154 C235.015714,61.7975634 236.899882,62.1262825 239.004751,62.1262825 C242.196003,62.1262825 244.725203,61.1729971 246.592425,59.2663978 C248.459647,57.3597985 249.393244,54.8450975 249.393244,51.7222194 L249.393244,48.3199428 C248.476607,50.4237765 247.059237,52.0016281 245.141091,53.053545 C243.222945,54.1054618 241.211468,54.6314124 239.106599,54.6314124 C236.798034,54.6314124 234.701684,54.064372 232.817487,52.9302741 C230.93329,51.7961762 229.456509,50.2429786 228.3871,48.2706345 C227.317691,46.2982904 226.782995,44.0958725 226.782995,41.6633148 C226.782995,39.2307571 227.317691,37.0283392 228.3871,35.0559951 C229.456509,33.083651 230.93329,31.5386713 232.817487,30.4210096 C234.701684,29.303348 236.798034,28.7445255 239.106599,28.7445255 C241.381215,28.7445255 243.46059,29.3280019 245.344787,30.4949722 C247.228984,31.6619424 248.578456,33.0672165 249.393244,34.7108366 L249.393244,30.5196264 C249.393244,30.2566471 249.486603,30.0265438 249.673326,29.8293094 C249.860048,29.632075 250.106178,29.5334592 250.411723,29.5334592 C250.717269,29.5334592 250.963399,29.632075 251.150121,29.8293094 Z M244.209293,51.2558646 C245.769888,50.3218135 246.994853,49.0190775 247.884224,47.3476176 C248.773595,45.6761577 249.218274,43.7589236 249.218274,41.5958578 C249.218274,39.432792 248.773595,37.5155579 247.884224,35.844098 C246.994853,34.1726381 245.769888,32.8780954 244.209293,31.9604311 C242.648698,31.0427669 240.895153,30.5839416 238.948604,30.5839416 C237.002056,30.5839416 235.24851,31.0591535 233.687915,32.0095915 C232.12732,32.9600295 230.902356,34.2709588 230.012984,35.9424187 C229.123613,37.6138786 228.678934,39.4983395 228.678934,41.5958578 C228.678934,43.6933761 229.123613,45.577837 230.012984,47.2492969 C230.902356,48.9207568 232.12732,50.2398794 233.687915,51.2067043 C235.24851,52.1735291 237.002056,52.6569343 238.948604,52.6569343 C240.895153,52.6569343 242.648698,52.1899157 244.209293,51.2558646 Z M260.941497,53.5903338 C260.751903,53.7855867 260.530712,53.8832117 260.277919,53.8832117 C259.993526,53.8832117 259.764436,53.7855867 259.590641,53.5903338 C259.416846,53.3950809 259.329949,53.1672892 259.329949,52.906952 L259.329949,29.7207852 C259.329949,29.460448 259.424745,29.2326564 259.61434,29.0374034 C259.803935,28.8421505 260.025126,28.7445255 260.277919,28.7445255 C260.562311,28.7445255 260.791401,28.8421505 260.965197,29.0374034 C261.138992,29.2326564 261.225888,29.460448 261.225888,29.7207852 L261.225888,52.906952 C261.225888,53.1672892 261.131092,53.3950809 260.941497,53.5903338 Z M259.22004,25.2189781 C258.871991,24.9124072 258.69797,24.5206836 258.69797,24.0437956 L258.69797,23.6350365 C258.69797,23.1581485 258.88115,22.7664249 259.247517,22.459854 C259.613884,22.1532831 260.090154,22 260.676341,22 C261.189254,22 261.619729,22.1532831 261.967778,22.459854 C262.315826,22.7664249 262.489848,23.1581485 262.489848,23.6350365 L262.489848,24.0437956 C262.489848,24.5206836 262.315826,24.9124072 261.967778,25.2189781 C261.619729,25.525549 261.170936,25.6788321 260.621386,25.6788321 C260.035199,25.6788321 259.568088,25.525549 259.22004,25.2189781 Z M288.336416,31.3072071 C289.854109,33.0156701 290.612944,35.2366386 290.612944,37.9701793 L290.612944,52.906952 C290.612944,53.1672892 290.511766,53.3950809 290.309407,53.5903338 C290.107048,53.7855867 289.870966,53.8832117 289.601154,53.8832117 C289.297615,53.8832117 289.053102,53.7855867 288.867606,53.5903338 C288.68211,53.3950809 288.589364,53.1672892 288.589364,52.906952 L288.589364,38.1654312 C288.589364,35.9525649 287.990727,34.1383672 286.793436,32.7227836 C285.596145,31.3072001 283.783373,30.5994189 281.355064,30.5994189 C279.871098,30.5994189 278.412448,30.9411064 276.979072,31.6244915 C275.545695,32.3078767 274.373717,33.2353141 273.463101,34.4068315 C272.552485,35.578349 272.097184,36.831203 272.097184,38.1654312 L272.097184,52.906952 C272.097184,53.1672892 271.996006,53.3950809 271.793647,53.5903338 C271.591288,53.7855867 271.355206,53.8832117 271.085394,53.8832117 C270.781856,53.8832117 270.537342,53.7855867 270.351846,53.5903338 C270.166351,53.3950809 270.073604,53.1672892 270.073604,52.906952 L270.073604,30.5017929 C270.073604,30.2414557 270.174782,30.0136641 270.377141,29.8184112 C270.5795,29.6231583 270.815582,29.5255333 271.085394,29.5255333 C271.388933,29.5255333 271.633446,29.6231583 271.818942,29.8184112 C272.004438,30.0136641 272.097184,30.2414557 272.097184,30.5017929 L272.097184,33.7722628 C273.075253,32.307866 274.449588,31.1038244 276.220229,30.160102 C277.990871,29.2163797 279.769917,28.7445255 281.557422,28.7445255 C284.559081,28.7445255 286.818724,29.5987442 288.336416,31.3072071 Z M319.489662,48.3894891 C319.659776,48.569344 319.744831,48.7737215 319.744831,49.0026277 C319.744831,49.231534 319.676787,49.4277364 319.540696,49.5912409 C318.417948,51.0300802 317.023039,52.2072947 315.355928,53.1229197 C313.688817,54.0385447 311.902653,54.4963504 309.997383,54.4963504 C307.445683,54.4963504 305.183209,53.9731439 303.209893,52.9267153 C301.236578,51.8802867 299.697075,50.3924184 298.591338,48.4630657 C297.485601,46.533713 296.932741,44.2937354 296.932741,41.7430657 C296.932741,39.1269942 297.46859,36.8297909 298.540305,34.8513869 C299.612019,32.8729828 301.032444,31.3605892 302.801623,30.3141606 C304.570802,29.267732 306.459033,28.7445255 308.466371,28.7445255 C310.473708,28.7445255 312.336422,29.1614557 314.054567,29.9953285 C315.772712,30.8292012 317.176127,32.0799917 318.264852,33.7477372 C319.353578,35.4154828 319.931955,37.4756082 320,39.9281752 C320,40.1897823 319.897934,40.4268603 319.693797,40.6394161 C319.489661,40.8519719 319.251506,40.9582482 318.979325,40.9582482 L298.923058,40.9582482 L298.923058,41.5959124 C298.923058,43.6233678 299.348335,45.4791157 300.198902,47.1632117 C301.049469,48.8473077 302.308289,50.1798491 303.9754,51.1608759 C305.642511,52.1419027 307.649819,52.6324088 309.997383,52.6324088 C311.630472,52.6324088 313.169975,52.248179 314.615938,51.479708 C316.061902,50.711237 317.193139,49.7384 318.009683,48.5611679 C318.247842,48.2668598 318.537031,48.119708 318.877257,48.119708 C319.115416,48.119708 319.319549,48.2096341 319.489662,48.3894891 Z M304.906762,31.5278525 C303.606446,32.1571295 302.458132,33.0929634 301.461786,34.3353823 C300.46544,35.5778011 299.798404,37.0864299 299.46066,38.8613139 L318.104061,38.8613139 L318.104061,38.4256627 C317.935189,36.7798612 317.386362,35.3680428 316.457565,34.1901652 C315.528768,33.0122876 314.380454,32.1167914 313.012589,31.5036496 C311.644724,30.8905079 310.217775,30.5839416 308.731699,30.5839416 C307.482044,30.5839416 306.207078,30.8985754 304.906762,31.5278525 Z"/>
    <g fill="url(#branding-a)" transform="rotate(-7 54.025 -.375)">
      <path d="M4.59139476,62.7492121 L4.6299163,62.7985174 L5.22202802,62.3359091 L5.24072462,62.3598396 L5.6118914,62.0313144 L40.0712095,35.1087445 C41.411777,38.0055372 42.9773223,41.9542876 43.3587813,47.1755553 C43.359691,47.3591059 43.3600059,47.5364142 43.3596936,47.7077877 C43.4558657,48.1207769 43.5039518,48.5387515 43.5039518,48.9617115 C43.5039518,51.2957532 42.6298173,53.4273735 41.1884228,55.0523188 C41.0220463,55.2975579 40.8437396,55.5331137 40.6544864,55.7581953 L35.9179882,59.4587532 L33.5792066,61.2860097 L31.801143,62.6751852 L25.3811138,67.6910617 C25.292855,67.7241869 25.2039664,67.7558427 25.1144802,67.7860034 L11.5634911,78.373196 C10.31225,78.8667191 8.92924601,79.0636009 7.50803531,78.8890981 C2.87593983,78.3203483 -0.407936155,74.0218378 0.173293012,69.2881061 C0.40038877,67.4385596 1.18392848,65.7962246 2.33070856,64.5154538 L4.59139476,62.7492121 Z"/>
      <path d="M4.50604574,28.6732426 L4.54502704,28.7231364 L5.13492211,28.2622599 L5.15281337,28.2851597 L5.50876892,27.9701788 L40.0809983,0.959392843 C41.4217784,3.85887597 42.9889393,7.81336443 43.3661575,13.0458358 C43.3668638,13.2246625 43.3670117,13.397571 43.3665713,13.5648451 C43.466874,13.9860307 43.5170253,14.4124051 43.5170253,14.8439681 C43.5170253,17.1735004 42.6447131,19.3014529 41.2056405,20.9255124 C41.0324383,21.181333 40.8462422,21.4266568 40.6481658,21.6605903 L35.9237965,25.3516722 L33.5794477,27.1832781 L31.7971518,28.5757603 L25.4292468,33.550913 C25.3360709,33.5868311 25.2421779,33.621113 25.147606,33.653728 L11.5564084,44.2723349 C10.2929541,44.7771274 8.89383265,44.979765 7.45561532,44.8031742 C2.81457648,44.2333262 -0.476105731,39.9303111 0.105670888,35.1921207 C0.331481021,33.3530448 1.10749441,31.7187168 2.24396107,30.4405769 L4.50604574,28.6732426 Z" transform="rotate(180 26.913 22.79)"/>
    </g>
  </g>
</svg>
