<svg xmlns="http://www.w3.org/2000/svg" width="85" height="154" viewBox="0 0 85 154">
  <defs>
    <filter id="se-symbol-a" width="133.7%" height="132.5%" x="-16.9%" y="-16.2%" filterUnits="objectBoundingBox">
      <feGaussianBlur in="SourceGraphic" stdDeviation="2"/>
    </filter>
    <filter id="se-symbol-b" width="133.7%" height="132.5%" x="-16.9%" y="-16.2%" filterUnits="objectBoundingBox">
      <feGaussianBlur in="SourceGraphic" stdDeviation="2"/>
    </filter>
    <linearGradient id="se-symbol-c" x1="13.148%" x2="63.826%" y1="67.268%" y2="-4.746%">
      <stop offset="0%" stop-color="#00A4D3"/>
      <stop offset="61.25%" stop-color="#2FE6CF"/>
      <stop offset="75.206%" stop-color="#32E8CE"/>
      <stop offset="86.841%" stop-color="#32E9CE"/>
      <stop offset="94.55%" stop-color="#35ECCC"/>
      <stop offset="100%" stop-color="#37EECB"/>
    </linearGradient>
    <filter id="se-symbol-d" width="133.8%" height="132.6%" x="-16.9%" y="-16.3%" filterUnits="objectBoundingBox">
      <feGaussianBlur in="SourceGraphic" stdDeviation="2"/>
    </filter>
    <filter id="se-symbol-e" width="133.8%" height="132.6%" x="-16.9%" y="-16.3%" filterUnits="objectBoundingBox">
      <feGaussianBlur in="SourceGraphic" stdDeviation="2"/>
    </filter>
  </defs>
  <g fill="none" fill-rule="evenodd" transform="rotate(-7 70.525 132.724)">
    <path fill="#008DB6" d="M68.4256461,108.568312 C70.8478663,106.098117 72.5172202,102.805193 72.977266,99.0584204 C74.0621439,90.2227991 68.0111361,82.2091574 59.4619618,81.1594508 C57.1172154,80.8715522 54.8280753,81.1373937 52.7180338,81.8571732 L0.194018196,122.893432 L19.1066685,147.10052 L68.4256461,108.568312 Z" transform="rotate(180 36.649 114.073)"/>
    <path fill="#01246F" d="M39.8737938,131.043968 C42.3136132,128.56377 43.9956366,125.252782 44.4583735,121.484092 C45.5466177,112.621054 39.4791904,104.582835 30.9063953,103.530228 C28.5630651,103.242504 26.2750988,103.506509 24.1650911,104.223131 L15.9809131,110.617312 C15.9730462,110.629344 15.9651942,110.641389 15.9573572,110.653445 L8.98857798,116.371739 L13.4429963,121.997923 C14.2532943,127.86083 18.1592613,132.826628 23.5899676,134.814124 L27.9689612,140.345042 L33.429498,136.078803 L36.1921381,133.836849 C36.3243472,133.764133 36.4555023,133.68951 36.5855649,133.613014 L39.8737938,131.043968 Z" filter="url(#se-symbol-a)" opacity=".139" style="mix-blend-mode:multiply" transform="rotate(180 26.787 121.88)"/>
    <path fill="#0098C3" d="M54.7906241,119.615218 C57.2458614,117.132306 58.9394031,113.809942 59.4040031,110.026079 C60.4918001,101.166683 54.4306388,93.1322309 45.8660204,92.080628 C43.5375084,91.7947227 41.263679,92.0543996 39.1650533,92.7621699 L12.2934635,113.756557 L31.2438638,138.011963 L54.7906301,119.615213 Z" transform="rotate(180 35.912 114.99)"/>
    <path fill="#01246F" d="M53.6310572,120.107783 C56.0708766,117.627586 57.7529,114.316597 58.2156369,110.547908 C59.3038811,101.68487 53.2364538,93.6466513 44.6636586,92.5940444 C42.3203285,92.3063196 40.0323622,92.5703244 37.9223545,93.2869473 L29.7381765,99.681128 C29.7303096,99.6931604 29.7224576,99.7052046 29.7146206,99.7172607 L22.7458414,105.435555 L27.2002597,111.061738 C28.0105576,116.924646 31.9165247,121.890444 37.347231,123.87794 L41.7262246,129.408858 L47.1867614,125.142619 L49.9494015,122.900665 C50.0816106,122.827949 50.2127657,122.753326 50.3428283,122.676829 L53.6310572,120.107783 Z" filter="url(#se-symbol-b)" opacity=".139" style="mix-blend-mode:multiply" transform="rotate(180 40.544 110.944)"/>
    <path fill="url(#se-symbol-c)" d="M31.0713406,99.0126219 C28.3599669,101.533804 26.4759999,105.032532 25.9822974,109.053416 C24.8967215,117.894722 30.9440549,125.91259 39.4893945,126.961826 C40.5554073,127.092716 41.6099363,127.108977 42.6413648,127.020007 C43.8334314,126.924963 44.9952135,126.689356 46.1088524,126.327636 L58.585163,116.580074 L61.8668257,114.016158 L66.1833714,110.643703 L75.1494268,103.638653 C75.4193351,103.30586 75.6767505,102.961227 75.9208022,102.605461 C76.7818235,101.640595 77.5359606,100.577821 78.1645536,99.4358513 C78.941483,98.2934755 79.4416152,97.2178811 79.7362875,95.4903718 C80.0993176,94.0966254 80.2925733,92.6340769 80.2925733,91.1262701 C80.2925733,90.4307176 80.2236827,89.7423883 80.0859014,89.0612821 C80.085043,88.6919462 80.0824871,88.307545 80.0783256,87.9071552 C79.4968053,80.4784771 77.6377291,74.4276197 75.6702986,69.5773096 C75.1769177,68.2041557 74.6151967,66.8399495 73.9851356,65.4846908 L31.0713406,99.0126219 Z"/>
    <g transform="rotate(180 49.477 41.472)">
      <path fill="#008DB6" d="M68.5327904,42.8811509 C70.92868,40.4154506 72.5783858,37.1417996 73.035268,33.4207929 C74.1211677,24.5768494 68.0576073,16.5548184 59.4919268,15.5030851 C57.1195292,15.2117913 54.8040141,15.4857393 52.6727879,16.2220676 L0.113865316,57.2855984 L19.0590229,81.5342943 L68.5327904,42.8811509 Z" transform="rotate(180 36.637 48.461)"/>
      <path fill="#01246F" d="M40.4910676,64.3271523 C42.8869572,61.861452 44.536663,58.5878009 44.9935452,54.8667942 C46.0794449,46.0228508 40.0158845,38.0008197 31.450204,36.9490864 C29.0778064,36.6577926 26.7622913,36.9317407 24.6310651,37.668069 L16.5764125,43.9610533 C16.5505983,44.0001286 16.5249425,44.0393309 16.4994461,44.0786592 L9.56559032,49.7679288 L14.0045957,55.3745463 C14.8141898,61.2181768 18.7093893,66.1692133 24.1258142,68.1579957 L28.5062892,73.6906873 L33.8935149,69.4817253 L36.6721654,67.2268916 C36.8003349,67.1572783 36.9275236,67.0858787 37.0536963,67.0127211 L40.4910676,64.3271523 Z" filter="url(#se-symbol-d)" opacity=".139" style="mix-blend-mode:multiply" transform="rotate(180 27.342 55.263)"/>
      <path fill="#0098C3" d="M54.7207118,53.4355436 C57.1166014,50.9698433 58.7663072,47.6961923 59.2231894,43.9751856 C60.3090891,35.1312421 54.2455287,27.109211 45.6798482,26.0574777 C43.3074506,25.7661839 40.9919355,26.040132 38.8607093,26.7764603 L12.102125,47.6825576 L31.0472826,71.9312535 L54.7207118,53.4355436 Z" transform="rotate(180 35.726 48.937)"/>
      <path fill="#01246F" d="M53.5621169,54.1966487 C55.9580064,51.7309484 57.6077123,48.4572974 58.0645944,44.7362907 C59.1504942,35.8923472 53.0869338,27.8703161 44.5212533,26.8185828 C42.1488557,26.527289 39.8333406,26.8012371 37.7021144,27.5375654 L29.6474617,33.8305498 C29.6216476,33.8696251 29.5959918,33.9088273 29.5704954,33.9481556 L22.6366396,39.6374252 L27.075652,45.2440516 C27.8852391,51.0876733 31.7804386,56.0387097 37.1968634,58.0274921 L41.5773385,63.5601838 L46.9645642,59.3512217 L49.7432146,57.0963881 C49.8713842,57.0267747 49.9985728,56.9553751 50.1247456,56.8822175 L53.5621169,54.1966487 Z" filter="url(#se-symbol-e)" opacity=".139" style="mix-blend-mode:multiply" transform="rotate(180 40.414 45.132)"/>
      <path fill="url(#se-symbol-c)" d="M30.3930028,33.9072945 C27.7793119,36.4138298 25.9690205,39.8421696 25.4869118,43.7686301 C24.4010121,52.6125735 30.4645725,60.6346046 39.030253,61.6863379 C40.1000639,61.8176942 41.1583079,61.8341098 42.1933021,61.7450171 C43.4324802,61.646423 44.6389471,61.3965838 45.7927357,61.01162 L58.1875271,51.3277476 L61.4770014,48.7577286 L65.8038219,45.3772459 L74.7507362,38.3871504 C75.0355218,38.0382734 75.3065179,37.6763062 75.5627132,37.3020693 C76.4714643,36.2825595 77.2608658,35.1542355 77.9089671,33.9390611 C78.5758025,32.9218963 79.0248868,31.9242478 79.3076282,30.4336128 C79.7109816,28.971218 79.9264651,27.4308342 79.9264651,25.8400915 C79.9264651,25.1257533 79.8536735,24.4190314 79.7080903,23.7199258 C79.7075176,23.3607182 79.7053655,22.9873221 79.7017181,22.5988961 C79.0998799,14.8148565 77.0944072,8.54361998 75.0287255,3.58027628 C74.5953971,2.43456957 74.1142094,1.29510447 73.5851624,0.161880992 L30.3930028,33.9072945 Z"/>
    </g>
  </g>
</svg>
