<svg xmlns="http://www.w3.org/2000/svg" xmlns:xlink="http://www.w3.org/1999/xlink" width="286" height="283" viewBox="0 0 286 283">
  <defs>
    <linearGradient id="integration-nws-b" x1="69.209%" x2="40.625%" y1="5.24%" y2="92.22%">
      <stop offset="0%" stop-color="#30AEE3"/>
      <stop offset="100%" stop-color="#544ACB"/>
    </linearGradient>
    <path id="integration-nws-a" d="M143,283 C221.976719,283 286,219.648292 286,141.5 C286,63.3517079 221.976719,0 143,0 C64.0232808,0 0,63.3517079 0,141.5 C0,219.648292 64.0232808,283 143,283 Z"/>
    <linearGradient id="integration-nws-c" x1="10.984%" x2="66.24%" y1="72.547%" y2="50%">
      <stop offset="0%" stop-opacity="0"/>
      <stop offset="100%"/>
    </linearGradient>
    <linearGradient id="integration-nws-e" x1="-12.57%" x2="101.258%" y1="-16.652%" y2="49.75%">
      <stop offset="0%" stop-color="#6B5EE6"/>
      <stop offset="100%" stop-color="#7FB9FF"/>
    </linearGradient>
    <linearGradient id="integration-nws-f" x1="39.868%" x2="70.434%" y1="9.806%" y2="80.26%">
      <stop offset="0%" stop-color="#B0C0E9"/>
      <stop offset="34.527%" stop-color="#D2DEFF"/>
      <stop offset="100%" stop-color="#D2DDFF"/>
    </linearGradient>
    <linearGradient id="integration-nws-g" x1="-12.57%" x2="101.258%" y1="-16.652%" y2="49.75%">
      <stop offset="6.417%" stop-color="#374C9F"/>
      <stop offset="100%" stop-color="#7FB9FF"/>
    </linearGradient>
    <linearGradient id="integration-nws-h" x1="48.604%" x2="67.164%" y1="22.004%" y2="89.024%">
      <stop offset="0%" stop-color="#91A6DF"/>
      <stop offset="68.995%" stop-color="#D2DEFF"/>
      <stop offset="100%" stop-color="#D2DDFF"/>
    </linearGradient>
    <linearGradient id="integration-nws-i" x1="56.662%" x2="85.878%" y1="100%" y2="0%">
      <stop offset="0%" stop-color="#C08D14"/>
      <stop offset="100%" stop-color="#FFE567"/>
    </linearGradient>
    <linearGradient id="integration-nws-j" x1="0%" x2="69.264%" y1="0%" y2="72.287%">
      <stop offset="0%" stop-color="#C08D14"/>
      <stop offset="100%" stop-color="#FFE567"/>
    </linearGradient>
  </defs>
  <g fill="none" fill-rule="evenodd">
    <mask id="integration-nws-d" fill="#fff">
      <use xlink:href="#integration-nws-a"/>
    </mask>
    <use fill="url(#integration-nws-b)" xlink:href="#integration-nws-a"/>
    <path fill="url(#integration-nws-c)" d="M15.876619,113.921485 L99.4082297,87.6236022 L202.557488,219.976277 L66.7912124,267.048752 C42.291294,248.768025 25.4040432,225.853854 16.1294602,198.306241 C6.85487708,170.758628 6.77059669,142.630376 15.876619,113.921485 Z" mask="url(#integration-nws-d)" opacity=".238" style="mix-blend-mode:multiply" transform="rotate(-18 105.834 177.336)"/>
    <g transform="translate(73 53)">
      <path fill="url(#integration-nws-e)" d="M106.780488 73L122 63.4019534C110.585366 19.8908089 90.2926829-1.22489356 61.1219512.0548459805L44 11.5725019C73.1707317 14.131981 93.4634146 34.6078137 104.878049 73M14 16.2857143L27.1764706 6.64285714C38.4705882 5.35714286 44.745098 6 46 8.57142857L30.9411765 24 14 16.2857143z"/>
      <path fill="url(#integration-nws-e)" d="M136,135 L160,116 C161.045365,102.17094 158.431953,90.8290598 152.159763,81.974359 C142.751479,68.6923077 137.106509,64.8974359 122.053254,63 L107,72.4871795 C118.289941,75.017094 127.698225,81.974359 135.224852,93.3589744 C142.751479,104.74359 143.009862,118.623932 136,135 Z"/>
      <path fill="url(#integration-nws-f)" d="M31.8572573,21.3249264 C22.987701,16.246077 16.018764,14.9763646 10.9504461,17.5157893 C3.34796932,21.3249264 -12.4834615,37.568528 17.9264456,71.8507615 L123.086979,135.599038 C140.826091,138.138463 147.795028,128.61562 143.99379,107.03051 C140.192551,85.4454002 127.521757,73.3831329 105.981406,70.8437082 C103.447247,54.3374476 98.3789291,41.640324 90.7764523,32.7523376 C79.3727372,19.4203578 67.969022,11.8020837 58.465926,9.89751519 C44.4169689,7.08188524 35.5474126,10.8910223 31.8572573,21.3249264 Z"/>
      <g transform="translate(7 55)">
        <path fill="url(#integration-nws-g)" d="M60.4146341,43 L69,37.6093163 C62.5609756,13.1715502 51.1138211,1.31204608 34.6585366,2.03080391 L25,8.49962434 C41.4552846,9.93713999 52.902439,21.4372652 59.3414634,43"/>
        <path fill="url(#integration-nws-e)" d="M8 10.7142857L15.4117647 5.35714286C21.7647059 4.64285714 25.2941176 5 26 6.42857143L17.5294118 15 8 10.7142857zM76 78L89.8224852 67.1538462C90.5325444 59.2564103 89.112426 52.7948718 85.5621302 47.7692308 80.2366864 40.2307692 77.0414201 38.0769231 68.5207101 37L60 42.3846154C66.3905325 43.8205128 71.7159763 47.7692308 75.9763314 54.2307692 80.2366864 60.6923077 80.2445759 68.6153846 76 78z"/>
        <path fill="url(#integration-nws-h)" d="M18.0158282,13.8903132 C12.9999413,11.0509564 9.0588872,10.3411172 6.19266607,11.7607956 C1.89333437,13.8903132 -7.05961273,22.9713818 10.1377141,42.1370399 L69.6078086,77.7758403 C79.6395826,79.1955186 83.5806367,73.8717247 81.4309708,61.8044585 C79.281305,49.7371923 72.1157521,42.99372 59.9343123,41.5740416 C58.5012017,32.3461321 55.6349806,25.2477402 51.3356489,20.2788659 C44.8866514,12.8255544 38.4376538,8.56651925 33.0634892,7.50176046 C25.1185617,5.92766812 20.1026747,8.05718569 18.0158282,13.8903132 Z"/>
      </g>
      <g transform="translate(13 90)">
        <path fill="url(#integration-nws-i)" d="M38.5945381,0.30256083 L30.1212117,34.0573628 C21.8802996,38.3653934 16.1239804,41.2697512 12.8522539,42.7704362 C9.58052742,44.2711212 9.10083415,44.2711212 11.4131741,42.7704362 L36.0011171,1.32753937 L38.5945381,0.30256083 Z"/>
        <polygon fill="#FED800" points="9 93 21.919 52.626 .113 39.5 38 1 21.919 38.076 43.46 51.171"/>
        <polygon fill="url(#integration-nws-j)" points="21.201 38.373 43 52 52.379 46.925 31.121 32.672"/>
        <polygon fill="#B99700" points="8.368 93.811 42 52 52 46 17.32 86.072"/>
      </g>
    </g>
  </g>
</svg>
