<svg xmlns="http://www.w3.org/2000/svg" width="112" height="137" viewBox="0 0 112 137">
  <g fill="none">
    <path fill="#3B4755" d="M87.8730811,10.6920889 L77.2421622,0 L0.915675676,0 L0.915675676,126.307911 L11.5465946,126.307911 L11.5465946,137 L111.084324,137 L111.084324,34.0384111 L87.8730811,10.6920889 Z M6.59891892,120.591967 L6.59891892,5.71594444 L74.8886486,5.71594444 L75.0006486,5.82858889 L75.0006486,25.6022556 L94.6596757,25.6022556 L94.7716757,25.7149 L94.7716757,120.593489 L6.59891892,120.593489 L6.59891892,120.591967 Z M17.2298378,131.284056 L17.2298378,126.307911 L100.453405,126.307911 L100.453405,31.4293222 L105.401081,36.4054667 L105.401081,131.284056 L17.2298378,131.284056 Z"/>
    <path fill="#2185FC" d="M49.9974054,72.3055556 C61.3442162,72.3055556 70.5766486,63.02 70.5766486,51.6079 L70.5766486,48.7506889 L52.8382703,48.7506889 L52.8382703,30.9102444 L49.9974054,30.9102444 C38.6505946,30.9102444 29.4181622,40.1958 29.4181622,51.6079 C29.4181622,63.02 38.6490811,72.3055556 49.9974054,72.3055556 Z M47.155027,36.9001889 L47.155027,54.4666333 L64.620973,54.4666333 C63.2905946,61.3653444 57.2395676,66.5911333 49.9974054,66.5911333 C41.7835676,66.5911333 35.1014054,59.8705222 35.1014054,51.6094222 C35.1014054,44.3240667 40.2957838,38.2382222 47.155027,36.9001889 Z"/>
    <path fill="#D52579" d="M57.2774054,26.4455667 L57.2774054,44.2844889 L75.0142703,44.2844889 C75.0157838,34.4326667 67.0743784,26.4455667 57.2774054,26.4455667 Z"/>
    <rect width="56.628" height="5.716" x="28.174" y="84.704" fill="#3B4755"/>
    <polygon fill="#F5A623" points="15.927 84.94 21.854 84.94 21.854 90.42 16.39 90.42"/>
    <rect width="5.927" height="5.716" x="16.565" y="98.445" fill="#F5A623"/>
    <rect width="56.628" height="5.716" x="28.174" y="98.445" fill="#3B4755"/>
    <polygon fill="#1BB996" points="100.5 126.5 100.5 31.5 105.5 31.5 105.5 131.5 15.5 131.5 15.5 126.5"/>
  </g>
</svg>
