<svg xmlns="http://www.w3.org/2000/svg" xmlns:xlink="http://www.w3.org/1999/xlink" width="286" height="283" viewBox="0 0 286 283">
  <defs>
    <linearGradient id="integration-alexa-b" x1="27.568%" x2="84.561%" y1="87.982%" y2="20.293%">
      <stop offset="0%" stop-color="#0087AA"/>
      <stop offset="100%" stop-color="#00CAFF"/>
    </linearGradient>
    <path id="integration-alexa-a" d="M143,283 C221.976719,283 286,219.648292 286,141.5 C286,63.3517079 221.976719,0 143,0 C64.0232808,0 0,63.3517079 0,141.5 C0,219.648292 64.0232808,283 143,283 Z"/>
    <linearGradient id="integration-alexa-c" x1="35.798%" x2="48.225%" y1="54.841%" y2="28.499%">
      <stop offset="0%" stop-opacity="0"/>
      <stop offset="100%"/>
    </linearGradient>
    <linearGradient id="integration-alexa-e" x1="54.09%" x2="50%" y1="17.269%" y2="100%">
      <stop offset="0%" stop-color="#8B8B8B"/>
      <stop offset="18.861%" stop-color="#C8C8C8"/>
      <stop offset="44.968%" stop-color="#D3D3D3"/>
      <stop offset="92.244%" stop-color="#A1A1A1"/>
      <stop offset="100%" stop-color="#757575"/>
    </linearGradient>
    <linearGradient id="integration-alexa-f" x1="50%" x2="50%" y1="0%" y2="96.999%">
      <stop offset="0%" stop-color="#EEE"/>
      <stop offset="100%" stop-color="#A6A6A6"/>
    </linearGradient>
  </defs>
  <g fill="none" fill-rule="evenodd">
    <mask id="integration-alexa-d" fill="#fff">
      <use xlink:href="#integration-alexa-a"/>
    </mask>
    <use fill="url(#integration-alexa-b)" xlink:href="#integration-alexa-a"/>
    <path fill="url(#integration-alexa-c)" d="M136,323 L-4,256 L68,130 C74.9654212,158.71988 83.9654212,174.386547 95,177 C101.452147,178.52814 101.601732,213.766185 129,211 C131.643871,210.733069 127,218 134,220 C141,222 150.739896,215.033229 159,211 C169.260191,205.990173 189.593524,190.990173 220,166 L136,323 Z" mask="url(#integration-alexa-d)" opacity=".214" style="mix-blend-mode:multiply"/>
    <path fill="url(#integration-alexa-e)" d="M147.717441,214.358721 C169.627796,199.676712 182.360266,188.617552 185.914852,181.181241 C194.059638,171.932003 199,159.792943 199,146.5 C199,117.505051 175.494949,94 146.5,94 C117.505051,94 94,117.505051 94,146.5 C94,170.440892 110.024967,190.638953 131.933643,196.952923 C134.644548,199.781887 136,201.797579 136,203 C136,204.304658 136,210.396566 136,221.275724 C99.2724946,216.165533 71,184.634464 71,146.5 C71,104.802501 104.802501,71 146.5,71 C188.197499,71 222,104.802501 222,146.5 C222,188.197499 188.197499,222 146.5,222 C143.261787,222 140.071189,221.796136 136.94034,221.400543 C137.295455,221.173758 137.648679,220.94772 138.000011,220.722427 L138,216 C137.02729,216.614766 137.360624,216.614766 139,216 C140.639376,215.385234 142.639376,214.385234 145,213 L147.717441,214.358721 Z"/>
    <path fill="#FFF" d="M138.25015,215.820315 C163.91679,197.374563 178.805199,183.828006 182.915376,175.180646 C191.05985,165.931482 196,153.792658 196,140.5 C196,111.505051 172.494949,88 143.5,88 C114.505051,88 91,111.505051 91,140.5 C91,164.440892 107.024967,184.638953 128.933643,190.952923 C131.644548,193.781887 133,195.797579 133,197 C133,197.973413 134,206.864784 134,213 C134,214.261247 134.530248,215.124808 135.590745,215.590683 C97.6105248,211.636917 68,179.526413 68,140.5 C68,98.8025014 101.802501,65 143.5,65 C185.197499,65 219,98.8025014 219,140.5 C219,182.197499 185.197499,216 143.5,216 C141.735251,216 139.984643,215.939453 138.250141,215.820322 Z"/>
    <polygon fill="url(#integration-alexa-f)" points="133 215 135 221 136 220 136 202 133 196"/>
  </g>
</svg>
