<svg xmlns="http://www.w3.org/2000/svg" width="143" height="139" viewBox="0 0 143 139">
  <g fill="none" fill-rule="evenodd">
    <rect width="15.808" height="65.76" y="27.4" fill="#F5A623"/>
    <rect width="15.808" height="65.76" x="47.423" y="27.4" fill="#2185FC"/>
    <rect width="15.808" height="93.16" x="23.712" fill="#BD10E0"/>
    <rect width="15.808" height="82.2" x="94.846" y="10.96" fill="#D52579"/>
    <rect width="15.808" height="93.16" x="71.135" fill="#1BB996"/>
    <path fill="#57B3FF" fill-rule="nonzero" stroke="#384553" stroke-width="4" d="M137,74.2011979 C133.891388,75.6297083 130.56839,76.5944167 127.066735,77.0396667 C130.639852,74.8134167 133.391152,71.2885208 134.677474,67.09575 C131.33661,69.1550312 127.638434,70.65775 123.69014,71.4554896 C120.527931,67.9491458 116.025804,65.76 111.059172,65.76 C101.501084,65.76 93.765286,73.8116042 93.765286,83.7369688 C93.765286,85.1469271 93.9082107,86.5197813 94.2119256,87.8369792 C79.8301302,87.0948958 67.0741031,79.9337917 58.5522193,69.0437187 C57.0693758,71.6966667 56.2118278,74.7948646 56.2118278,78.0785833 C56.2118278,84.3120833 59.2668427,89.8220521 63.9118946,93.0501146 C61.0712667,92.9759063 58.3914291,92.1596146 56.0689031,90.8053125 C56.0689031,90.8795208 56.0689031,90.9537292 56.0689031,91.0279375 C56.0689031,99.7474167 62.0360083,107.001281 69.9504621,108.652417 C68.5033498,109.060563 66.9669095,109.283188 65.3947381,109.283188 C64.2870719,109.283188 63.1972713,109.171875 62.1432018,108.94925 C64.3406687,116.091802 70.7365478,121.286385 78.3115556,121.434802 C72.3980472,126.258344 64.9302329,129.133917 56.8192577,129.133917 C55.4257421,129.133917 54.0500921,129.041156 52.6923077,128.874188 C60.3387778,134.031667 69.4323602,137 79.1869692,137 C111.02344,137 128.42452,109.598573 128.42452,85.8333542 C128.42452,85.0541667 128.406654,84.2749792 128.370923,83.5143438 C131.747518,80.9727083 134.677474,77.8003021 137,74.2011979 Z"/>
  </g>
</svg>
