<svg xmlns="http://www.w3.org/2000/svg" xmlns:xlink="http://www.w3.org/1999/xlink" width="283" height="283" viewBox="0 0 283 283">
  <defs>
    <linearGradient id="reports-b" x1="25.354%" x2="84.561%" y1="90.611%" y2="20.293%">
      <stop offset="0%" stop-color="#7C4194"/>
      <stop offset="100%" stop-color="#E52937"/>
    </linearGradient>
    <path id="reports-a" d="M141.5,283 C219.648292,283 283,219.648292 283,141.5 C283,63.3517079 219.648292,0 141.5,0 C63.3517079,0 0,63.3517079 0,141.5 C0,219.648292 63.3517079,283 141.5,283 Z"/>
    <linearGradient id="reports-c" x1="31.635%" x2="66.469%" y1="70.881%" y2="24.425%">
      <stop offset="0%" stop-opacity="0"/>
      <stop offset="100%"/>
    </linearGradient>
    <linearGradient id="reports-e" x1="43.099%" x2="35.055%" y1="57.099%" y2="96.779%">
      <stop offset="0%" stop-color="#FFF"/>
      <stop offset="100%" stop-color="#D8D8D8"/>
    </linearGradient>
    <linearGradient id="reports-f" x1="24.715%" x2="83.821%" y1="54.261%" y2="100%">
      <stop offset="0%" stop-color="#CCC"/>
      <stop offset="12.959%" stop-color="#B0B0B0"/>
      <stop offset="47.936%" stop-color="#B6B6B6"/>
      <stop offset="100%" stop-color="#B1B1B1"/>
    </linearGradient>
    <linearGradient id="reports-g" x1="39.517%" x2="22.695%" y1="63.177%" y2="80.684%">
      <stop offset="0%" stop-color="#FFF"/>
      <stop offset="100%" stop-color="#F2F2F2"/>
    </linearGradient>
    <path id="reports-h" d="M141.5,283 C219.648292,283 283,219.648292 283,141.5 C283,63.3517079 219.648292,0 141.5,0 C63.3517079,0 0,63.3517079 0,141.5 C0,219.648292 63.3517079,283 141.5,283 Z"/>
    <linearGradient id="reports-j" x1="79.215%" x2="82.856%" y1="18.233%" y2="8.848%">
      <stop offset="0%" stop-opacity="0"/>
      <stop offset="100%"/>
    </linearGradient>
    <linearGradient id="reports-k" x1="26.358%" x2="80.276%" y1="50%" y2="74.701%">
      <stop offset="0%" stop-color="#EFEFEF"/>
      <stop offset="100%" stop-color="#D3D3D3"/>
    </linearGradient>
  </defs>
  <g fill="none" fill-rule="evenodd">
    <mask id="reports-d" fill="#fff">
      <use xlink:href="#reports-a"/>
    </mask>
    <use fill="url(#reports-b)" xlink:href="#reports-a"/>
    <path fill="url(#reports-c)" d="M92.7409496,289.804074 C59.7842823,267.975011 38.7842823,252.308344 29.7409496,242.804074 C20.6976168,233.299804 13.9836327,218.75757 9.59899721,199.177372 L77.4042049,115.886347 L162.566878,151.804074 L188.74095,170.804074 L92.7409496,289.804074 Z" mask="url(#reports-d)" opacity=".215" style="mix-blend-mode:multiply" transform="rotate(6 99.17 202.845)"/>
    <g transform="translate(75 69)">
      <g transform="translate(0 12)">
        <path fill="#9D9D9D" d="M1.64695107,58 C1.59264061,59.0530884 1.56515128,60.113248 1.56515128,61.1798123 C1.56515128,94.8089989 28.894093,122.070841 62.6060512,122.070841 C91.4492775,122.070841 115.620043,102.114776 122,75.2887837 C120.341881,107.439979 93.6836685,133 61.0408999,133 C27.3289418,133 0,105.738158 0,72.1089713 C0,67.2521935 0.570015369,62.528223 1.64695107,58 Z"/>
        <path fill="url(#reports-e)" d="M62.278481,0.00486532705 L62.278481,59.6455696 L122.956474,59.6455696 C122.985405,60.4267593 123,61.2116614 123,62 C123,96.2416545 95.4655121,124 61.5,124 C27.5344879,124 0,96.2416545 0,62 C0,27.7583455 27.5344879,0 61.5,0 C61.7598733,0 62.0193701,0.00162495197 62.278481,0.00486532705 Z"/>
      </g>
      <g opacity=".584" transform="translate(87)">
        <path fill="url(#reports-f)" d="M0,46 L0,3.53846154 C28.959596,4.44565304 43.4393939,18.5994992 43.4393939,46 C43.4393939,46 28.959596,46 0,46 Z"/>
        <path fill="url(#reports-g)" d="M3.56060606,42.4615385 L3.56060606,0 C32.520202,0.907191506 47,15.0610377 47,42.4615385 C47,42.4615385 32.520202,42.4615385 3.56060606,42.4615385 Z"/>
        <path fill="#B5B5B5" d="M3.56060606,0 L3.56060606,7.78461538 L0,3.53846154 L3.56060606,0 Z M47,42.4615385 L42.7272727,46 L42.7272727,42.4615385 L47,42.4615385 Z"/>
      </g>
    </g>
    <g>
      <mask id="reports-i" fill="#fff">
        <use xlink:href="#reports-h"/>
      </mask>
      <use fill="url(#reports-b)" xlink:href="#reports-h"/>
      <path fill="url(#reports-c)" d="M95.4646385,286.68098 C70.8914877,292.988461 55.834288,293.230359 50.2930393,287.406674 C44.7517907,281.582988 27.3929628,272.682053 -1.78344437,260.703868 L98.098871,177.809217 L147.372372,196.446109 L181.160825,212.31591 L95.4646385,286.68098 Z" mask="url(#reports-i)" opacity=".121" style="mix-blend-mode:multiply" transform="rotate(6 89.689 234.705)"/>
      <polygon fill="url(#reports-j)" points="93.232 288.761 37.903 307.648 149.983 216.433 158.987 206.437 178.929 214.396" mask="url(#reports-i)" opacity=".215" style="mix-blend-mode:multiply" transform="rotate(6 108.416 257.042)"/>
      <polygon fill="url(#reports-j)" points="63.232 272.418 7.903 291.304 119.983 200.089 128.987 190.093 148.929 198.053" mask="url(#reports-i)" opacity=".215" style="mix-blend-mode:multiply" transform="rotate(6 78.416 240.699)"/>
      <polygon fill="url(#reports-j)" points="36.232 251.418 -19.097 270.304 92.983 179.089 101.987 169.093 121.929 177.053" mask="url(#reports-i)" opacity=".215" style="mix-blend-mode:multiply" transform="rotate(6 51.416 219.699)"/>
      <g transform="matrix(-1 0 0 1 186 50)">
        <g transform="translate(41)">
          <polygon fill="#FFF" points="16 12 33.893 18.014 33.671 144.933 15.862 134.829"/>
          <polygon fill="#CDCDCD" points="15.342 16.341 32.055 18.124 65.573 140.256 47.078 134.894" transform="scale(-1 1) rotate(15 0 -229.008)"/>
          <polygon fill="url(#reports-k)" points="31.221 4.989 48.488 7.609 34.845 18.511 15.646 16.409" transform="rotate(15 32.067 11.75)"/>
        </g>
        <g transform="translate(21 60)">
          <polygon fill="#FFF" points="7 11 23 19 24.228 103.933 6.649 93.81"/>
          <polygon fill="#CDCDCD" points="11.284 14.494 28.714 18.087 50.571 99.93 32.314 94.559" transform="scale(-1 1) rotate(15 0 -177.705)"/>
          <polygon fill="url(#reports-k)" points="20.995 4.102 38.383 7.177 25.032 19.229 6.386 15.263" transform="rotate(15 22.385 11.665)"/>
        </g>
        <g transform="translate(0 120)">
          <polygon fill="#FFF" points="0 1 16.888 8.589 17.109 60.934 0 51"/>
          <polygon fill="#CDCDCD" points="8.26 3.757 25.736 7.303 39.393 57.522 21.087 52.22" transform="scale(-1 1) rotate(15 0 -150.339)"/>
        </g>
      </g>
    </g>
    <polygon fill="url(#reports-k)" points="168.041 164.3 186.158 166.693 172.067 179.786 154.283 175.234" transform="rotate(15 170.22 172.043)"/>
  </g>
</svg>
