<svg xmlns="http://www.w3.org/2000/svg" xmlns:xlink="http://www.w3.org/1999/xlink" width="283" height="283" viewBox="0 0 283 283">
  <defs>
    <linearGradient id="integration-weather-b" x1="38.44%" x2="73.036%" y1="78.265%" y2="12.423%">
      <stop offset="0%" stop-color="#666ACC"/>
      <stop offset="100%" stop-color="#EF70ED"/>
    </linearGradient>
    <path id="integration-weather-a" d="M141.5,283 C219.648292,283 283,219.648292 283,141.5 C283,63.3517079 219.648292,0 141.5,0 C63.3517079,0 0,63.3517079 0,141.5 C0,219.648292 63.3517079,283 141.5,283 Z"/>
    <linearGradient id="integration-weather-c" x1="100%" x2="50%" y1="17.361%" y2="66.56%">
      <stop offset="0%" stop-opacity="0"/>
      <stop offset="100%"/>
    </linearGradient>
    <linearGradient id="integration-weather-e" x1="50%" x2="83.237%" y1="0%" y2="95.88%">
      <stop offset="0%" stop-color="#FF9E00"/>
      <stop offset="61.159%" stop-color="#FF6431"/>
      <stop offset="100%" stop-color="#C12400"/>
    </linearGradient>
    <linearGradient id="integration-weather-f" x1="64.591%" x2="22.585%" y1="3.844%" y2="91.925%">
      <stop offset="0%" stop-color="#FFDB00"/>
      <stop offset="100%" stop-color="#F76B1C"/>
    </linearGradient>
    <linearGradient id="integration-weather-g" x1="-12.57%" x2="101.258%" y1="-16.652%" y2="49.75%">
      <stop offset="0%" stop-color="#6B5EE6"/>
      <stop offset="100%" stop-color="#7FB9FF"/>
    </linearGradient>
    <linearGradient id="integration-weather-h" x1="48.604%" x2="56.912%" y1="22.004%" y2="86.259%">
      <stop offset="0%" stop-color="#FDFEFF"/>
      <stop offset="77.041%" stop-color="#D2DEFF"/>
      <stop offset="100%" stop-color="#D2DDFF"/>
    </linearGradient>
    <filter id="integration-weather-i" width="122.2%" height="114.1%" x="-8.9%" y="-5.6%" filterUnits="objectBoundingBox">
      <feOffset dx="1" dy="1" in="SourceAlpha" result="shadowOffsetOuter1"/>
      <feGaussianBlur in="shadowOffsetOuter1" result="shadowBlurOuter1" stdDeviation="1.5"/>
      <feColorMatrix in="shadowBlurOuter1" result="shadowMatrixOuter1" values="0 0 0 0 0   0 0 0 0 0   0 0 0 0 0  0 0 0 0.206804801 0"/>
      <feMerge>
        <feMergeNode in="shadowMatrixOuter1"/>
        <feMergeNode in="SourceGraphic"/>
      </feMerge>
    </filter>
    <linearGradient id="integration-weather-j" x1="50%" x2="50%" y1="179.934%" y2="29.055%">
      <stop offset="0%" stop-color="#B2D1FD"/>
      <stop offset="100%" stop-color="#7AA4F9"/>
    </linearGradient>
  </defs>
  <g fill="none" fill-rule="evenodd">
    <mask id="integration-weather-d" fill="#fff">
      <use xlink:href="#integration-weather-a"/>
    </mask>
    <use fill="url(#integration-weather-b)" xlink:href="#integration-weather-a"/>
    <path fill="url(#integration-weather-c)" d="M201,198 L282,127 C282,105 271,79 249,49 C234.333333,33 217.666667,21 199,13 L57,114 L201,198 Z" mask="url(#integration-weather-d)" opacity=".203" style="mix-blend-mode:multiply"/>
    <g transform="translate(51 62)">
      <g transform="translate(40)">
        <path fill="url(#integration-weather-e)" d="M107.452958,136.488627 C89.2410554,140.978149 64.7035664,119.181851 48.6282815,92.4280839 C33.1212641,66.6200729 29.9387932,38.7070934 39.1016617,22.538464 C38.6119066,21.8724084 38.0437878,20.8928982 37.3973054,19.5999333 L45.9028088,14.4966313 C46.7284316,13.8454852 47.5970193,13.2446318 48.5085761,12.6969132 C49.4292741,12.143702 50.3772536,11.6546432 51.349931,11.2283579 L52.3973054,10.5999333 L52.6741943,10.6922297 C72.17576,3.43117498 100.731735,20.0788972 118.850823,50.2341241 C137.746464,81.6817515 136.115169,108.414305 119.493005,128.217136 L119.397305,128.599933 L118.862912,128.956196 C118.569877,129.294634 118.272406,129.631004 117.970528,129.965295 C114.885306,133.381777 111.395231,135.478061 107.631706,136.443666 L107.397305,136.599933 L107.452958,136.488627 Z"/>
        <ellipse cx="70.342" cy="79.731" fill="url(#integration-weather-f)" rx="40.962" ry="68.405" transform="rotate(-31 70.342 79.731)"/>
      </g>
      <g transform="translate(0 42)">
        <path fill="url(#integration-weather-g)" d="M57 39L65 34C59 11.3333333 48.3333333.333333333 33 1L24 7C39.3333333 8.33333333 50 19 56 39M8 9.33333333L15 4.33333333C21 3.66666667 24.3333333 4 25 5.33333333L17 13.3333333 8 9.33333333z"/>
        <path fill="url(#integration-weather-g)" d="M72,73 L85,62 C85.6666667,54.6666667 84.3333333,48.6666667 81,44 C76,37 73,35 65,34 L57,39 C63,40.3333333 68,44 72,50 C76,56 76,63.6666667 72,73 Z"/>
        <path fill="url(#integration-weather-h)" d="M17.3296175,12.4712433 C12.6629508,9.80457665 8.99628413,9.13790998 6.32961747,10.4712433 C2.32961747,12.4712433 -6,21 10,39 L65.3296175,72.4712433 C74.6629508,73.8045766 78.3296175,68.8045766 76.3296175,57.4712433 C74.3296175,46.13791 67.6629508,39.8045766 56.3296175,38.4712433 C54.9962841,29.8045766 52.3296175,23.13791 48.3296175,18.4712433 C42.3296175,11.4712433 36.3296175,7.47124332 31.3296175,6.47124332 C23.9378384,4.99288751 19.2711718,6.99288751 17.3296175,12.4712433 Z"/>
      </g>
      <g fill="url(#integration-weather-j)" filter="url(#integration-weather-i)" transform="translate(9 91)">
        <rect width="6" height="23" rx="3"/>
        <rect width="6" height="13" y="29" rx="3"/>
        <rect width="6" height="60" x="18" y="11" rx="3"/>
        <rect width="6" height="12" x="39" y="21" rx="3"/>
        <rect width="6" height="26" x="39" y="39" rx="3"/>
      </g>
    </g>
  </g>
</svg>
