<svg xmlns="http://www.w3.org/2000/svg" xmlns:xlink="http://www.w3.org/1999/xlink" width="286" height="283" viewBox="0 0 286 283">
  <defs>
    <linearGradient id="integration-high-demand-address-b" x1="0%" x2="102%" y1="0%" y2="101%">
      <stop offset="0%" stop-color="#3023AE"/>
      <stop offset="100%" stop-color="#C86DD7"/>
    </linearGradient>
    <path id="integration-high-demand-address-a" d="M143,283 C221.976719,283 286,219.648292 286,141.5 C286,63.3517079 221.976719,0 143,0 C64.0232808,0 0,63.3517079 0,141.5 C0,219.648292 64.0232808,283 143,283 Z"/>
    <linearGradient id="integration-high-demand-address-c" x1="37.122%" x2="61.039%" y1="26.655%" y2="71.667%">
      <stop offset="0%" stop-color="#E5E4FC"/>
      <stop offset="100%" stop-color="#D5D4EF"/>
    </linearGradient>
    <linearGradient id="integration-high-demand-address-d" x1="2.176%" x2="80.034%" y1="0%" y2="41.965%">
      <stop offset="0%" stop-color="#E5E4FC"/>
      <stop offset="100%" stop-color="#D5D4EF"/>
    </linearGradient>
    <linearGradient id="integration-high-demand-address-e" x1="45.168%" x2="85.241%" y1="50%" y2="-18.479%">
      <stop offset="0%" stop-opacity="0"/>
      <stop offset="100%"/>
    </linearGradient>
    <filter id="integration-high-demand-address-f" width="113%" height="121.5%" x="-6.5%" y="-10.8%" filterUnits="objectBoundingBox">
      <feGaussianBlur in="SourceGraphic" stdDeviation=".684"/>
    </filter>
    <linearGradient id="integration-high-demand-address-g" x1="51.488%" x2="83.237%" y1="4.293%" y2="95.88%">
      <stop offset="0%" stop-color="#1BD6CD"/>
      <stop offset="39.844%" stop-color="#03939B"/>
      <stop offset="100%" stop-color="#0A697F"/>
    </linearGradient>
    <linearGradient id="integration-high-demand-address-h" x1="35.258%" x2="48.268%" y1="0%" y2="96.452%">
      <stop offset="0%" stop-color="#74FFB8"/>
      <stop offset="67.697%" stop-color="#0EA8B7"/>
      <stop offset="100%" stop-color="#03689B"/>
    </linearGradient>
  </defs>
  <g fill="none" fill-rule="evenodd">
    <use fill="url(#integration-high-demand-address-b)" xlink:href="#integration-high-demand-address-a"/>
    <polygon fill="#4F3987" points="165 209 240 166 196 145 121 188"/>
    <polygon fill="#4F3987" points="121 188 87 159 164 117 197 145"/>
    <polygon fill="#4F3987" points="87 159 45 139 119 95 164 117"/>
    <polygon fill="url(#integration-high-demand-address-c)" stroke="#FFF" points="165 203 240 160 196 139 121 182"/>
    <path fill="url(#integration-high-demand-address-c)" stroke="#FFF" d="M121,182 L87,153 L164,111 C167.476505,116.192186 170.476505,119.858853 173,122 C175.523495,124.141147 183.523495,129.807814 197,139 L121,182 Z"/>
    <polygon fill="url(#integration-high-demand-address-d)" stroke="#FFF" points="87 153 45 133 119 89 164 111"/>
    <polyline stroke="#F0EEFD" stroke-linecap="square" points="145.5 142.5 125.5 138.5 125.5 134"/>
    <polyline stroke="#F0EEFD" stroke-linecap="square" points="103.5 124.5 93.5 136.5 83 130.5 64 132 77 118 74 116"/>
    <polyline stroke="#F0EEFD" stroke-linecap="square" points="75.5 137.5 105.5 143.5 116 165 133 166 145 143.5 150 129 163 129 209 163 224 163 225 154"/>
    <path stroke="#F0EEFD" stroke-linecap="square" d="M70.5 143.5C80.8649288 130.665366 89.6982621 121.832032 97 117 104.301738 112.167968 118.135071 106.001301 138.5 98.5M95.5 118.5L117.5 135.5"/>
    <path fill="#9783ED" fill-rule="nonzero" stroke="#F6F4FB" d="M121.73097,133.981047 L103.069318,124.916816 L112.172439,110.124244 L113.875756,111.172439 L105.930682,124.083184 L122.26903,132.018953 L146.418648,134.031421 L157.394493,143.909682 L145.087966,158.267297 L147.789313,169.973134 L177.96613,168.96724 L178.03276,170.96613 L146.210687,172.026866 L142.912034,157.732703 L154.605507,144.090318 L145.581352,135.968579 L121.73097,133.981047 Z M122.436904,132.100492 L122.083045,132.003454 L122.26903,132.018953 L122.436904,132.100492 Z"/>
    <ellipse cx="177.5" cy="170.5" stroke="#FF006F" stroke-opacity=".91" stroke-width="1.5" opacity=".289" rx="9.5" ry="5.5"/>
    <ellipse cx="178" cy="170.5" fill="#FF006F" fill-opacity=".91" opacity=".471" rx="4" ry="2.5"/>
    <ellipse cx="177.5" cy="171" stroke="#FF006F" stroke-opacity=".91" stroke-width="1.5" opacity=".289" rx="15.5" ry="9"/>
    <ellipse cx="178" cy="171.5" stroke="#FF006F" stroke-opacity=".91" stroke-width="1.5" opacity=".289" rx="22" ry="12.5"/>
    <path stroke="#F0EEFD" stroke-linecap="square" d="M141 151L123 148M124.5 165.5L124.5 175.5"/>
    <polyline stroke="#F0EEFD" stroke-linecap="square" points="178.5 193.5 153.5 182.5 129 182.5 129 166"/>
    <ellipse cx="113.5" cy="110" fill="#BAACF5" stroke="#F2F0FB" rx="5.5" ry="3"/>
    <path fill="#BAACF5" fill-rule="nonzero" stroke="#B1A1F2" d="M120.73097,134.981047 L102.069318,125.916816 L111.172439,111.124244 L112.875756,112.172439 L104.930682,125.083184 L121.26903,133.018953 L145.418648,135.031421 L156.394493,144.909682 L144.087966,159.267297 L146.789313,170.973134 L174.93337,169.00111 L175,171 L145.210687,173.026866 L141.912034,158.732703 L153.605507,145.090318 L144.581352,136.968579 L120.73097,134.981047 Z M121.436904,133.100492 L121.083045,133.003454 L121.26903,133.018953 L121.436904,133.100492 Z"/>
    <g transform="translate(142 60)">
      <path fill="url(#integration-high-demand-address-e)" d="M37.7118127,111.352837 L6.1297727,112.425525 C8.63901803,118.550254 11.0806348,122.311852 13.4546231,123.710318 C15.8286114,125.108784 23.5736837,127.347948 36.6898399,130.42781 L37.7118127,111.352837 Z" filter="url(#integration-high-demand-address-f)" opacity=".305" transform="rotate(-9 21.92 120.89)"/>
      <path fill="#046E7C" d="M24.2691863,29.3228677 C20.7271525,36.4069355 21.3174914,43.8845626 26.0402033,51.755749 C30.7629151,59.6269355 35.9161807,63.7593083 41.5,64.1528676 C34.0223729,66.5142236 27.0980904,62.77541 20.7271525,52.936427 C16.8015255,46.8738696 15.5524802,40.0993561 19.0671187,34.0455796 C19.7705406,32.833973 21.5045632,31.2597357 24.2691863,29.3228677 Z"/>
      <path fill="url(#integration-high-demand-address-g)" d="M9.85856383,24.1694321 C9.83185367,18.4157401 10.9612532,13.2661719 13.2458635,9.20672779 C12.8937103,8.76770796 12.4760713,8.06872578 11.9929468,7.10978123 L18.7029788,3.11419772 C18.9967968,2.9110493 19.2979321,2.71668417 19.6063841,2.53134751 C19.953357,2.32286515 20.3060704,2.12792085 20.6642159,1.94635134 L22.0174921,1.1405239 L22.2851082,1.22905489 C35.3107584,-3.7379676 54.3887808,7.26753586 66.4383261,27.3213469 C70.0462194,33.3258897 71.838697,38.7527036 72.6320217,43.8267712 C73.8236016,54.7508249 69.946261,66.4752345 61,79 C51.698368,92.0222848 43.838742,101.006953 37.421122,105.954004 L46.1209344,81.1852616 C43.0880619,79.8797243 39.9689016,77.9680452 36.8938471,75.5718218 C40.9328563,76.6097121 44.7593264,76.3056991 47.9100103,74.4125773 C57.0773532,68.9042819 57.0520165,52.0284999 47.8534192,36.7194631 C38.6548219,21.4104264 23.7662857,13.4653557 14.5989427,18.973651 C12.5674712,20.1942823 10.9874153,21.9731253 9.85856383,24.1694321 Z M37.4159292,108.40708 L36,110 L36.4608323,108.687991 L37.4159292,108.40708 Z"/>
      <path fill="url(#integration-high-demand-address-h)" d="M63.5376016,70.1648587 C62.7417261,72.5884621 57.7583848,80.8084119 48.5875777,94.8247081 L35.5063068,110 C18.9018177,78.2661317 10.3383935,61.968752 9.81603408,61.1078611 C-3.24057723,39.5894987 -3.27654044,15.8689212 9.735708,8.12646831 C22.7479564,0.384015442 46.6000006,14.9441742 56.9375541,33.069959 C67.2751075,51.1957438 65.4063546,64.4741243 63.5376016,70.1648587 Z M41.1876232,63.2246464 C46.654909,59.9395697 46.6397985,49.8750698 41.1538731,40.7449566 C35.6679476,31.6148434 26.7886155,26.8765051 21.3213298,30.1615818 C15.854044,33.4466585 15.8691545,43.5111585 21.3550799,52.6412717 C26.8410054,61.7713849 35.7203375,66.5097231 41.1876232,63.2246464 Z"/>
    </g>
  </g>
</svg>
